<svg width="350" height="350" viewBox="0 0 350 350" fill="none" xmlns="http://www.w3.org/2000/svg">
<circle cx="175" cy="175" r="175" fill="#CACACA"/>
<mask id="mask0" mask-type="alpha" maskUnits="userSpaceOnUse" x="0" y="0" width="350" height="350">
<circle cx="175" cy="175" r="175" fill="#CACACA"/>
</mask>
<g mask="url(#mask0)">
<path opacity="0.1" d="M416.674 266.087C416.074 267.508 415.475 268.91 414.878 270.293C413.947 272.442 413.027 274.549 412.12 276.614C411.716 277.529 411.312 278.427 410.919 279.325C406.467 289.312 402.311 298.146 398.781 305.41C395.577 311.992 390.821 317.507 385.01 321.378C379.199 325.248 372.548 327.331 365.752 327.408L287.256 328.346H286.428L279.699 328.425L273.943 328.494L256.292 328.704H255.578L246.592 328.812H246.318L190.933 329.471L141.496 330.04L135.746 330.108L100.03 330.534H99.9889L76.8258 330.807H76.5773L3.33518 331.677L-18.5754 331.938C-23.2511 331.996 -27.9071 331.264 -32.3801 329.767C-40.1639 327.185 -47.1593 322.321 -52.6135 315.698C-62.0237 304.313 -68.8821 291.029 -73.4888 276.614C-74.1548 274.534 -74.776 272.427 -75.3523 270.293C-91.2999 211.093 -71.8584 134.714 -36.8678 83.6021C-35.4012 81.4649 -33.9105 79.3807 -32.3956 77.3496L-32.3594 77.3041C-21.5982 62.7981 -9.53266 50.6794 3.31965 42.0622C26.0946 26.7661 51.3282 22.4575 76.1477 35.298C97.1472 46.1662 116.754 51.2762 135.761 52.6632C137.681 52.7996 139.602 52.9019 141.512 52.9644C185.11 54.4708 225.971 37.2193 273.953 26.084C275.863 25.6406 277.778 25.2029 279.709 24.788C313.939 17.3076 351.911 13.3628 397.067 21.656C401.759 22.4976 406.388 23.7135 410.919 25.2939C412.91 25.9987 414.828 26.7566 416.674 27.5675C438.228 37.1965 449.983 54.988 454.978 77.2813C455.451 79.3504 455.859 81.4554 456.205 83.5965C465.061 137.221 439.123 213.287 416.674 266.087Z" fill="#FF5454"/>
<g opacity="0.1">
<path opacity="0.1" d="M3.31907 42.0615V331.738L-18.5915 332C-23.2672 332.058 -27.9233 331.326 -32.3962 329.829V77.3034H-32.36C-21.5988 62.7803 -9.53325 50.6617 3.31907 42.0615Z" fill="#FF5454"/>
<path opacity="0.1" d="M456.23 83.6013H-36.8684C-35.4018 81.464 -33.9111 79.3798 -32.3962 77.3487V77.3032H455.003C455.476 79.3609 455.885 81.4602 456.23 83.6013Z" fill="#FF5454"/>
<path opacity="0.1" d="M279.708 24.7705V328.448L273.953 328.516V26.0665C275.863 25.6231 277.778 25.1855 279.708 24.7705Z" fill="#FF5454"/>
<path opacity="0.1" d="M141.511 52.9468V330.096L135.76 330.164V52.6455C137.681 52.7819 139.601 52.8615 141.511 52.9468Z" fill="#FF5454"/>
<path opacity="0.1" d="M414.878 270.292C413.946 272.441 413.026 274.548 412.119 276.613H-73.4894C-74.1554 274.533 -74.7766 272.426 -75.3528 270.292H414.878Z" fill="#FF5454"/>
</g>
<path d="M38.3614 168.103H28.5268V200.878H38.3614V168.103Z" fill="#3F3D56"/>
<path d="M303.032 166.397H293.197V201.071H303.032V166.397Z" fill="#3F3D56"/>
<path d="M365.751 320.336V327.726L287.116 328.521L286.277 328.538L256.39 328.84L255.676 328.851L246.592 328.936H246.323L190.948 329.499L100.05 330.426H99.9728L76.8614 330.664L76.613 330.67L-26.0813 331.704V323.178L-1.93468 307.263L46.5138 306.819L47.5491 306.813L47.8907 306.808L48.9259 306.791L72.1874 306.58L73.2278 306.575L73.5591 306.569L74.5943 306.563L82.0531 306.495L82.2498 306.489L100.651 306.319H100.801L244.387 304.989L247.901 304.96H248.253L250.935 304.932L270.423 304.756L271.458 304.739L272.415 304.727H272.912L278.974 304.676L280.174 304.659L281.784 304.648L286.831 304.597L294.838 304.523L295.874 304.511L297.675 304.5H298.011L336.682 304.136L365.751 320.336Z" fill="#65617D"/>
<path opacity="0.2" d="M365.751 320.336V327.726L287.116 328.521L286.277 328.538L256.39 328.84L255.676 328.851L246.592 328.936H246.323L190.948 329.499L100.05 330.426H99.9728L76.8614 330.664L76.613 330.67L-26.0813 331.704V323.178L-1.93468 307.263L46.5138 306.819L47.5491 306.813L47.8907 306.808L48.9259 306.791L72.1874 306.58L73.2278 306.575L73.5591 306.569L74.5943 306.563L82.0531 306.495L82.2498 306.489L100.651 306.319H100.801L244.387 304.989L247.901 304.96H248.253L250.935 304.932L270.423 304.756L271.458 304.739L272.415 304.727H272.912L278.974 304.676L280.174 304.659L281.784 304.648L286.831 304.597L294.838 304.523L295.874 304.511L297.675 304.5H298.011L336.682 304.136L365.751 320.336Z" fill="black"/>
<path d="M72.265 291.921V305.841C72.2653 306.501 72.0952 307.147 71.7745 307.704C71.4538 308.262 70.9957 308.708 70.4534 308.99C70.0495 309.205 69.6081 309.322 69.1593 309.332L51.0947 309.752C50.6122 309.765 50.1337 309.654 49.6971 309.428C49.1452 309.15 48.6776 308.704 48.35 308.143C48.0224 307.582 47.8486 306.929 47.8492 306.262V291.921H72.265Z" fill="#3F3D56"/>
<path opacity="0.1" d="M72.265 291.921V305.841C72.2653 306.501 72.0952 307.147 71.7745 307.704C71.4538 308.262 70.9957 308.708 70.4534 308.99C70.0495 309.205 69.6081 309.322 69.1593 309.332L51.0947 309.752C50.6122 309.765 50.1337 309.654 49.6971 309.428C49.1452 309.15 48.6776 308.704 48.35 308.143C48.0224 307.582 47.8486 306.929 47.8492 306.262V291.921H72.265Z" fill="black"/>
<path d="M73.3002 291.921V305.841C73.3005 306.501 73.1304 307.147 72.8098 307.704C72.4891 308.262 72.0309 308.708 71.4886 308.99C71.0848 309.205 70.6433 309.322 70.1946 309.332L52.1299 309.752C51.6475 309.765 51.1689 309.654 50.7323 309.428C50.1804 309.15 49.7129 308.704 49.3853 308.143C49.0576 307.582 48.8838 306.929 48.8845 306.262V291.921H73.3002Z" fill="#3F3D56"/>
<path d="M295.874 291.921H271.458V309.826H295.874V291.921Z" fill="#3F3D56"/>
<path opacity="0.1" d="M295.874 291.921H271.458V309.826H295.874V291.921Z" fill="black"/>
<path d="M294.838 291.921H270.423V309.826H294.838V291.921Z" fill="#3F3D56"/>
<path opacity="0.1" d="M38.3614 168.097V171.354L28.5268 171.075V168.097H38.3614Z" fill="black"/>
<path d="M103.094 76.3429L91.2769 169.563C91.202 170.159 90.9299 170.703 90.5126 171.092C90.0953 171.481 89.5621 171.688 89.0149 171.672L-5.60459 168.978L-7.40071 168.927C-7.71343 168.919 -8.02108 168.838 -8.3036 168.691C-8.58611 168.543 -8.83714 168.332 -9.04032 168.071C-9.24349 167.81 -9.39425 167.504 -9.48276 167.175C-9.57126 166.845 -9.59553 166.499 -9.55397 166.159L3.71243 68.5726C3.79795 67.9682 4.08676 67.4209 4.52184 67.0388C4.95691 66.6568 5.50661 66.4679 6.06239 66.5093L101.024 73.569C101.33 73.5885 101.629 73.6775 101.903 73.8305C102.176 73.9834 102.418 74.1969 102.612 74.4576C102.807 74.7182 102.95 75.0203 103.033 75.3448C103.116 75.6693 103.137 76.0092 103.094 76.3429Z" fill="#65617D"/>
<path d="M10.0635 73.3643L0.0581055 159.383L87.017 162.413L97.7108 79.4236L10.0635 73.3643Z" fill="#FF5454"/>
<path d="M221.255 72.0342H120.833C119.309 72.0342 118.074 73.3906 118.074 75.0638V167.528C118.074 169.202 119.309 170.558 120.833 170.558H221.255C222.778 170.558 224.013 169.202 224.013 167.528V75.0638C224.013 73.3906 222.778 72.0342 221.255 72.0342Z" fill="#65617D"/>
<path d="M219.35 78.6677H123.074V160.707H219.35V78.6677Z" fill="#FF5454"/>
<path opacity="0.1" d="M303.032 166.392V168.546L293.197 168.768V166.392H303.032Z" fill="black"/>
<path d="M347.407 164.573C347.421 164.808 347.392 165.044 347.32 165.267C347.249 165.49 347.138 165.694 346.993 165.868C346.847 166.043 346.672 166.183 346.476 166.28C346.281 166.378 346.069 166.431 345.854 166.437L248.957 168.637C248.555 168.646 248.164 168.488 247.863 168.193C247.563 167.899 247.375 167.491 247.337 167.051L239.009 71.966C238.988 71.7301 239.011 71.4921 239.077 71.2664C239.143 71.0406 239.249 70.8319 239.391 70.6528C239.532 70.4737 239.705 70.3279 239.899 70.2244C240.093 70.1209 240.304 70.0617 240.52 70.0505L336.682 64.7983L337.717 64.7414C338.129 64.7176 338.533 64.8703 338.844 65.1672C339.155 65.4642 339.348 65.8822 339.384 66.333L347.407 164.573Z" fill="#65617D"/>
<path d="M244.542 75.6381L332.365 70.8975L339.783 157.297L252.653 159.571L244.542 75.6381Z" fill="#FF5454"/>
<path opacity="0.1" d="M347.407 164.573C347.421 164.808 347.392 165.044 347.32 165.267C347.249 165.49 347.138 165.694 346.993 165.868C346.847 166.043 346.672 166.183 346.476 166.28C346.281 166.378 346.069 166.431 345.854 166.437L336.682 64.7983L337.717 64.7414C338.129 64.7176 338.533 64.8703 338.844 65.1672C339.155 65.4642 339.348 65.8822 339.384 66.333L347.407 164.573Z" fill="black"/>
<path opacity="0.1" d="M6.07793 66.5036L-5.60459 168.978L-7.4007 168.927C-7.71343 168.919 -8.02108 168.838 -8.3036 168.691C-8.58611 168.543 -8.83714 168.332 -9.04032 168.071C-9.24349 167.81 -9.39425 167.504 -9.48276 167.175C-9.57126 166.845 -9.59553 166.499 -9.55397 166.159L3.71244 68.5726C3.79695 67.964 4.08751 67.4128 4.52606 67.0292C4.96461 66.6456 5.51883 66.4579 6.07793 66.5036Z" fill="black"/>
<path opacity="0.1" d="M38.3614 191.169H28.5268V200.878H38.3614V191.169Z" fill="black"/>
<path opacity="0.1" d="M73.3002 291.915V294.74L48.8845 295.457V291.915H73.3002Z" fill="black"/>
<path d="M116.391 194.551V290.159C116.385 290.742 116.175 291.301 115.804 291.719C115.433 292.137 114.93 292.382 114.399 292.404L15.1983 295.303H15.1724C14.6322 295.296 14.1161 295.057 13.7341 294.637C13.3521 294.218 13.1345 293.651 13.1278 293.058V194.551C13.1345 193.958 13.3521 193.391 13.7341 192.971C14.1161 192.552 14.6322 192.313 15.1724 192.306H114.347C114.887 192.313 115.403 192.552 115.785 192.971C116.167 193.391 116.385 193.958 116.391 194.551Z" fill="#65617D"/>
<path opacity="0.1" d="M15.1983 192.306V295.303H15.1724C14.6322 295.296 14.1161 295.057 13.7341 294.637C13.3521 294.218 13.1345 293.651 13.1278 293.058V194.551C13.1345 193.958 13.3521 193.391 13.7341 192.971C14.1161 192.552 14.6322 192.313 15.1724 192.306H15.1983Z" fill="black"/>
<path d="M19.7274 198.411H111.604V282.679L19.7274 284.952V198.411Z" fill="white"/>
<path opacity="0.1" d="M303.032 191.169H293.197V201.071H303.032V191.169Z" fill="black"/>
<path opacity="0.1" d="M294.838 291.915V295.559L270.423 294.843V291.915H294.838Z" fill="black"/>
<path d="M327.06 194.551V293.058C327.053 293.656 326.832 294.227 326.444 294.647C326.057 295.067 325.534 295.303 324.989 295.303L225.768 292.404C225.237 292.382 224.734 292.137 224.363 291.719C223.992 291.301 223.782 290.742 223.775 290.159V194.551C223.782 193.958 224 193.391 224.382 192.971C224.764 192.552 225.28 192.313 225.82 192.306H324.994C325.538 192.307 326.06 192.543 326.446 192.964C326.832 193.384 327.053 193.954 327.06 194.551Z" fill="#65617D"/>
<path opacity="0.1" d="M327.06 194.551V293.058C327.053 293.656 326.832 294.227 326.444 294.647C326.057 295.067 325.534 295.303 324.989 295.303V192.306C325.534 192.306 326.057 192.541 326.444 192.962C326.832 193.382 327.053 193.953 327.06 194.551Z" fill="black"/>
<path d="M320.46 198.411H228.584V282.679L320.46 284.952V198.411Z" fill="white"/>
<path d="M221.208 194.551V290.159C221.202 290.742 220.991 291.301 220.62 291.719C220.249 292.137 219.746 292.382 219.215 292.404L120.015 295.303C119.47 295.303 118.947 295.067 118.56 294.647C118.172 294.227 117.951 293.656 117.944 293.058V194.551C117.951 193.958 118.169 193.391 118.551 192.971C118.933 192.552 119.449 192.313 119.989 192.306H219.163C219.703 192.313 220.22 192.552 220.602 192.971C220.984 193.391 221.201 193.958 221.208 194.551Z" fill="#65617D"/>
<path d="M124.544 198.411H216.42V282.679L124.544 284.952V198.411Z" fill="white"/>
<path opacity="0.1" d="M365.751 320.336V327.726L287.116 328.521L286.277 328.538L256.39 328.84L255.676 328.851L246.592 328.936H246.323L190.948 329.499L100.05 330.426H99.9728L76.8614 330.664L76.613 330.67L-26.0813 331.705V323.178L78.7404 322.422H78.9888L100.206 322.263H100.304L246.83 321.2H246.98L247.068 321.194H247.311L249.791 321.177H250.546L289.103 320.893L291.381 320.882L291.888 320.876L365.751 320.336Z" fill="black"/>
<path d="M171.212 200.877C185.885 200.877 197.781 187.815 197.781 171.701C197.781 155.587 185.885 142.524 171.212 142.524C156.538 142.524 144.643 155.587 144.643 171.701C144.643 187.815 156.538 200.877 171.212 200.877Z" fill="#FBBEBE"/>
<path d="M197.786 231.384C197.786 231.384 146.284 238.205 151.201 231.384C152.981 228.918 153.473 221.608 153.375 213.28C153.344 210.751 153.261 208.131 153.142 205.521C152.573 193.016 151.201 180.795 151.201 180.795C151.201 180.795 196.233 157.49 191.057 175.964C188.987 183.427 189.665 193.909 191.238 203.748C191.699 206.619 192.232 209.432 192.791 212.104C194.155 218.62 195.822 225.055 197.786 231.384Z" fill="#FBBEBE"/>
<path opacity="0.1" d="M197.786 231.384C197.786 231.384 146.284 238.205 151.201 231.384C152.981 228.918 153.473 221.608 153.375 213.28C161.227 209.597 171.217 212.342 171.217 212.342C181.735 210.04 188.479 210.489 192.791 212.104C194.155 218.62 195.822 225.055 197.786 231.384Z" fill="black"/>
<path d="M100.03 331.068V330.59L190.933 329.505L246.317 328.936H246.473L246.416 329.777L246.493 328.936H246.592V328.84L247.301 321.194L247.57 318.301L247.653 317.397L247.725 316.641L250.924 304.926L254.123 293.228L256.814 283.378L260.924 268.326C260.924 268.326 258.595 262.357 257.301 260.652C256.007 258.947 254.713 247.294 254.713 247.294C254.713 247.294 243.667 235.738 238.838 234.408C236.814 233.84 232.818 233.084 228.574 232.135C226.984 231.782 225.354 231.407 223.786 230.998C222.9 230.776 222.031 230.543 221.198 230.31C219.576 229.865 217.977 229.322 216.41 228.684C215.588 228.357 214.805 227.919 214.08 227.383C210.276 224.319 200.742 223.972 200.374 223.972C200.373 223.959 200.373 223.946 200.374 223.932V223.881C200.387 223.643 200.387 223.404 200.374 223.165C200.374 222.938 200.374 222.671 200.327 222.369C200.327 222.278 200.327 222.182 200.291 222.085C200.265 221.88 200.234 221.664 200.188 221.437C200.172 221.336 200.151 221.235 200.126 221.136C199.976 220.451 199.759 219.786 199.479 219.152C199.442 219.061 199.396 218.964 199.354 218.874C199.101 218.348 198.806 217.848 198.474 217.379C198.407 217.282 198.335 217.18 198.257 217.083C197.833 216.534 197.361 216.031 196.849 215.582C196.709 215.463 196.564 215.338 196.414 215.224C196.331 215.15 196.242 215.081 196.15 215.02L195.69 214.69L195.26 214.417C194.882 214.19 194.484 213.968 194.049 213.758C193.914 213.69 193.769 213.627 193.624 213.564C193.479 213.502 193.252 213.405 193.06 213.326H193.029L192.641 213.155C192.346 213.047 192.046 212.951 191.73 212.854L191.248 212.718L190.731 212.587L190.213 212.467C189.696 212.354 189.142 212.251 188.562 212.172L187.972 212.092L187.366 212.024L186.74 211.967L185.85 211.91L184.815 211.871C180.249 211.87 175.696 212.402 171.232 213.457C168.132 212.699 164.956 212.378 161.781 212.502H161.331L160.813 212.536H160.482L159.814 212.604C159.591 212.604 159.364 212.655 159.141 212.689C158.918 212.723 158.686 212.752 158.463 212.791L158.121 212.854C157.785 212.916 157.443 212.985 157.086 213.064C156.972 213.087 156.858 213.115 156.744 213.15C156.294 213.258 155.844 213.388 155.399 213.536C155.176 213.604 154.954 213.684 154.731 213.769C154.617 213.803 154.508 213.849 154.4 213.894L154.068 214.025L153.742 214.167L153.354 214.338C153.157 214.429 152.966 214.525 152.774 214.627C152.666 214.679 152.557 214.735 152.453 214.798C152.35 214.86 152.241 214.912 152.143 214.974C150.973 215.638 149.891 216.476 148.929 217.464L148.665 217.742L148.406 218.032C148.318 218.129 148.235 218.231 148.152 218.334C147.815 218.738 147.5 219.166 147.21 219.612C147.127 219.732 147.05 219.851 146.972 219.976C146.643 220.508 146.346 221.063 146.082 221.636C146.014 221.772 145.952 221.915 145.89 222.051C145.468 223.011 145.121 224.01 144.855 225.035C144.758 225.414 144.67 225.793 144.591 226.172C144.591 226.172 133.633 231.481 124.544 235.324C122.127 236.347 119.849 237.273 117.944 237.972C117.39 238.177 116.873 238.365 116.391 238.541C115.347 238.955 114.261 239.23 113.156 239.359C112.636 239.369 112.117 239.422 111.604 239.518C107.426 240.263 100.268 243.497 99.4862 246.743C99.4228 247.002 99.4052 247.272 99.4345 247.539C99.4345 247.539 99.4345 247.579 99.4345 247.601C99.9521 251.58 96.3288 251.012 96.3288 251.012C96.3288 251.012 95.0347 261.528 93.2231 264.37C91.9135 266.416 91.0181 270.98 90.9042 274.425C90.8391 275.498 90.9158 276.576 91.132 277.625C91.132 277.654 91.132 277.682 91.132 277.705C91.339 278.466 90.8421 280.547 89.9984 283.213C89.0822 286.14 87.7468 289.778 86.4631 293.211C84.5272 298.395 82.7052 303.102 82.5914 304.136C82.5448 304.597 82.4102 305.421 82.2238 306.484C81.4681 310.815 79.7911 319.063 78.9629 322.399C78.3469 324.889 77.4515 328.3 76.8355 330.641C76.8355 330.71 76.7993 330.778 76.7838 330.84L99.9883 330.59V331.068H100.061H100.03Z" fill="#FF5454"/>
<path opacity="0.1" d="M108.498 264.068C108.498 264.068 138.002 280.837 148.613 278.847L108.498 264.068Z" fill="black"/>
<path opacity="0.1" d="M168.541 257.248C168.541 257.248 197.268 267.479 206.844 268.9C216.42 270.321 168.541 257.248 168.541 257.248Z" fill="black"/>
<path opacity="0.1" d="M200.405 224.325C185.394 227.36 157.133 226.706 144.917 226.246C149.394 208.625 171.227 214.616 171.227 214.616C198.252 208.693 200.322 220.982 200.405 224.325Z" fill="black"/>
<path d="M200.405 223.188C185.394 226.223 157.133 225.569 144.917 225.109C149.394 207.488 171.227 213.479 171.227 213.479C198.252 207.556 200.322 219.845 200.405 223.188Z" fill="#FF5454"/>
<path d="M280.086 300.873C280.086 300.873 297.768 297.889 298.115 306.415C298.462 314.942 289.098 320.899 289.098 320.899L280.086 300.873Z" fill="#FBBEBE"/>
<path opacity="0.1" d="M191.238 203.748C190.478 204.121 189.7 204.451 188.909 204.737C183.329 206.852 177.703 208.983 171.828 209.756C165.953 210.529 159.788 209.847 154.664 206.63C154.126 206.296 153.607 205.926 153.111 205.521C152.542 193.016 151.17 180.795 151.17 180.795C151.17 180.795 196.202 157.49 191.026 175.964C188.966 183.427 189.665 193.909 191.238 203.748Z" fill="black"/>
<path d="M163.924 126.096C163.185 126.311 162.411 126.332 161.663 126.16C160.915 125.987 160.215 125.625 159.617 125.102L160.694 126.744C160.059 126.825 159.417 126.752 158.81 126.531C158.204 126.31 157.649 125.947 157.184 125.466C157.087 126.936 157.142 128.414 157.35 129.871C155.569 129.965 153.815 129.361 152.402 128.165C152.374 128.678 152.49 129.188 152.735 129.626C152.979 130.064 153.34 130.409 153.768 130.615C151.979 130.381 150.173 130.869 148.687 131.989C147.201 133.109 146.137 134.785 145.693 136.703L148.395 136.976C146.272 137.474 144.366 138.751 142.992 140.597C142.163 141.734 141.532 143.189 141.894 144.576C142.257 145.963 144.006 146.849 144.958 145.86C143.604 147.636 142.619 149.716 142.074 151.954C141.528 154.191 141.435 156.533 141.801 158.815C142.047 159.787 142.127 160.8 142.039 161.804C141.868 162.742 141.33 163.555 141.061 164.47C140.543 166.13 141.035 167.932 141.496 169.586L143.923 178.351C144.803 181.517 145.678 184.689 146.827 187.753C147.641 189.69 148.333 191.686 148.898 193.727C149.55 196.478 149.576 199.491 150.968 201.895C151.922 203.408 153.198 204.643 154.684 205.493C159.804 208.71 165.989 209.392 171.848 208.619C177.708 207.846 183.329 205.715 188.904 203.6C190.142 203.191 191.331 202.618 192.444 201.895C196.3 199.121 197.16 193.448 197.879 188.452C198.681 182.881 199.753 177.322 201.653 172.081C202.781 168.961 204.241 165.795 203.992 162.452C203.676 158.013 200.478 154.415 199.686 150.05C199.421 148.59 199.433 147.087 199.722 145.633C199.967 144.767 200.105 143.868 200.131 142.961C200.043 141.131 198.676 139.721 197.393 138.545C194.608 135.991 191.733 133.577 188.769 131.303C188.619 130.166 190.027 129.677 190.664 128.779C191.564 127.512 190.633 125.5 189.266 124.908C187.9 124.317 186.367 124.704 184.944 125.096C185.037 124.296 184.892 123.484 184.531 122.782C184.17 122.079 183.612 121.524 182.94 121.197C182.269 120.871 181.519 120.792 180.803 120.971C180.087 121.15 179.442 121.578 178.966 122.191C178.588 121.24 177.984 120.417 177.217 119.809C176.45 119.201 175.549 118.83 174.607 118.735C171.176 118.44 171.108 121.322 168.914 122.908C166.719 124.494 164.907 122.402 163.22 120.878C162.91 121.739 162.812 122.675 162.935 123.591C163.059 124.507 163.4 125.371 163.924 126.096Z" fill="#3F3D56"/>
<path d="M293.197 317.926C293.197 317.926 292.737 319.131 291.888 320.876C290.604 323.561 289.041 326.073 287.229 328.362L287.09 328.527H286.251L256.364 328.828H255.65L255.562 328.715L249.765 321.16L247.58 318.313L247.492 318.193L247.306 317.955L247.202 317.818L247.068 317.642L242.818 312.106L244.371 305L247.016 293.029L247.083 292.74L247.601 290.466L247.968 288.761L249.2 283.201L253.424 264.074L260.929 268.337L268.844 283.685L273.093 291.927H275.423C275.863 291.927 276.872 292.859 277.886 293.933C278.249 294.314 278.611 294.718 278.922 295.07C279.843 296.116 280.573 297.014 280.573 297.014C280.573 297.014 284.346 297.105 285.361 300.368C285.413 300.526 285.456 300.687 285.49 300.851C285.827 302.133 286.265 303.381 286.8 304.58C287.467 306.177 288.306 307.99 289.155 309.803C290.734 313.129 292.338 316.295 292.928 317.443L293.001 317.585L293.197 317.926Z" fill="#FF5454"/>
<path opacity="0.1" d="M248.735 292.262L248.683 293.075V293.132L248.595 294.439L247.906 304.96L247.073 317.636L246.835 321.206L246.317 328.845V328.942L190.933 329.51L100.045 330.59V331.068H99.9728V330.59V330.431L100.206 322.269L100.651 306.319L101.034 292.796L101.07 291.449C101.093 290.636 101.266 289.837 101.58 289.099C101.893 288.362 102.34 287.703 102.893 287.162C103.446 286.621 104.094 286.21 104.797 285.953C105.5 285.696 106.243 285.599 106.981 285.668C109.424 285.896 112.597 286.174 116.391 286.47L117.944 286.595C139.855 288.266 180.348 290.426 221.208 287.732C222.067 287.681 222.932 287.624 223.796 287.556C230.132 287.118 236.462 286.555 242.73 285.85C243.523 285.759 244.324 285.86 245.077 286.145C245.83 286.431 246.517 286.894 247.089 287.503C247.662 288.111 248.106 288.85 248.39 289.668C248.674 290.485 248.792 291.361 248.735 292.234V292.262Z" fill="black"/>
<path d="M100.03 331.068V330.59L190.933 329.505L246.317 328.936H246.473V328.84L246.99 321.2L247.213 317.79L248.062 304.938L248.729 294.763V294.513C248.76 294.044 248.741 293.573 248.672 293.109C248.675 293.09 248.675 293.071 248.672 293.052C248.53 292.093 248.175 291.187 247.637 290.415C247.067 289.612 246.32 288.982 245.467 288.584C244.614 288.186 243.683 288.034 242.761 288.141C236.493 288.846 230.163 289.408 223.827 289.846C222.963 289.914 222.098 289.971 221.239 290.022C180.379 292.688 139.886 290.528 117.975 288.885L116.423 288.76C112.628 288.465 109.455 288.192 107.012 287.959C105.668 287.834 104.33 288.261 103.256 289.156C102.181 290.052 101.447 291.353 101.194 292.808C101.142 293.115 101.111 293.427 101.101 293.74L100.749 306.336L100.268 322.291L100.04 330.454V330.613V331.09L100.03 331.068Z" fill="#3F3D56"/>
<path opacity="0.1" d="M248.89 296.247L248.253 304.96L247.306 317.949L247.068 321.2L246.55 328.482L246.519 328.845V328.942L246.442 329.783L246.498 328.942H246.348L190.964 329.51L100.045 330.59V330.431L100.299 322.269L100.816 306.319L101.148 295.718C101.164 295.115 101.317 294.526 101.594 294.005C101.871 293.484 102.262 293.047 102.732 292.734C103.318 292.339 104.003 292.16 104.688 292.222C105.775 292.319 107.111 292.433 108.669 292.558C111.2 292.762 114.321 293.001 117.955 293.251C124.684 293.717 133.126 294.217 142.8 294.627C169.716 295.764 206.052 296.144 240.567 292.825C242.119 292.677 243.724 292.512 245.292 292.347C245.913 292.279 246.539 292.41 247.094 292.722C247.251 292.808 247.4 292.911 247.539 293.029C247.989 293.388 248.346 293.87 248.574 294.428C248.627 294.539 248.67 294.655 248.703 294.774C248.859 295.245 248.922 295.747 248.89 296.247Z" fill="black"/>
<path opacity="0.1" d="M73.3002 304.028V305.842C73.3005 306.501 73.1304 307.147 72.8098 307.704C72.4891 308.262 72.0309 308.708 71.4886 308.991L50.7323 309.428C50.1804 309.15 49.7129 308.704 49.3853 308.143C49.0576 307.582 48.8838 306.929 48.8845 306.262V304.557L73.3002 304.028Z" fill="black"/>
<path d="M73.559 310.059L46.5138 310.627V305.699L73.559 305.131V310.059Z" fill="#3F3D56"/>
<path opacity="0.1" d="M73.559 310.059L46.5138 310.627V305.699L73.559 305.131V310.059Z" fill="black"/>
<path d="M74.5943 310.059L47.549 310.627V305.699L74.5943 305.131V310.059Z" fill="#3F3D56"/>
<g opacity="0.1">
<path opacity="0.1" d="M164.136 124.232C163.63 123.51 163.294 122.663 163.158 121.765C163.033 122.643 163.108 123.541 163.375 124.38C163.632 124.354 163.887 124.304 164.136 124.232Z" fill="black"/>
<path opacity="0.1" d="M157.562 128.006C157.465 127.31 157.401 126.608 157.371 125.903C157.371 126.602 157.371 127.307 157.371 128.012L157.562 128.006Z" fill="black"/>
<path opacity="0.1" d="M199.748 146.974C199.776 146.468 199.839 145.965 199.934 145.468C200.179 144.604 200.318 143.707 200.348 142.802C200.337 142.599 200.309 142.398 200.265 142.2C200.177 142.723 200.038 143.246 199.934 143.763C199.727 144.817 199.664 145.9 199.748 146.974Z" fill="black"/>
<path opacity="0.1" d="M188.981 129.41L189.546 129.859C190.021 129.481 190.466 129.059 190.876 128.597C191.071 128.302 191.191 127.955 191.226 127.592C191.26 127.229 191.207 126.862 191.073 126.528C191.021 126.658 190.955 126.78 190.876 126.892C190.239 127.79 188.831 128.285 188.981 129.41Z" fill="black"/>
<path opacity="0.1" d="M146.449 134.878C146.26 135.293 146.11 135.727 145.999 136.174C146.809 135.678 147.681 135.316 148.587 135.1L146.449 134.878Z" fill="black"/>
<path opacity="0.1" d="M153.587 128.694C153.247 128.489 152.922 128.255 152.614 127.995C152.601 128.22 152.617 128.446 152.661 128.666C152.97 128.65 153.279 128.659 153.587 128.694Z" fill="black"/>
<path opacity="0.1" d="M204.194 162.186C203.982 164.942 202.812 167.597 201.865 170.212C199.965 175.452 198.894 181.012 198.091 186.588C197.372 191.584 196.539 197.257 192.656 200.025C191.547 200.753 190.36 201.326 189.121 201.73C183.541 203.851 177.915 205.976 172.04 206.749C166.165 207.523 160 206.846 154.876 203.629C153.39 202.778 152.115 201.543 151.159 200.031C149.777 197.626 149.752 194.614 149.089 191.863C148.524 189.82 147.832 187.822 147.019 185.883C145.875 182.825 144.995 179.63 144.12 176.487C143.309 173.565 142.5 170.642 141.692 167.716C141.426 166.836 141.229 165.933 141.102 165.016C140.9 166.471 141.294 167.995 141.692 169.422C142.5 172.351 143.309 175.274 144.12 178.192C144.995 181.358 145.875 184.53 147.019 187.588C147.832 189.527 148.524 191.525 149.089 193.568C149.741 196.319 149.767 199.332 151.159 201.736C152.115 203.248 153.39 204.483 154.876 205.334C160 208.551 166.181 209.228 172.04 208.455C177.899 207.682 183.521 205.556 189.121 203.436C190.36 203.031 191.547 202.458 192.656 201.73C196.513 198.962 197.372 193.289 198.091 188.293C198.894 182.717 199.965 177.158 201.865 171.917C202.993 168.802 204.453 165.636 204.204 162.288C204.204 162.254 204.194 162.22 204.194 162.186Z" fill="black"/>
<path opacity="0.1" d="M142.241 159.986C142.241 159.986 142.241 159.946 142.241 159.923C142.334 158.921 142.254 157.908 142.003 156.939C141.9 156.315 141.832 155.685 141.801 155.052C141.741 156.254 141.809 157.459 142.003 158.644C142.086 159.088 142.179 159.537 142.241 159.986Z" fill="black"/>
<path opacity="0.1" d="M143.82 146.082C144.218 145.348 144.67 144.65 145.171 143.996C144.223 144.991 142.474 144.104 142.106 142.723C141.971 143.281 141.971 143.869 142.106 144.428C142.234 144.845 142.459 145.218 142.76 145.508C143.061 145.799 143.427 145.997 143.82 146.082Z" fill="black"/>
</g>
<path opacity="0.1" d="M273.099 291.921C273.099 291.921 274.739 298.458 273.099 304.142C271.458 309.826 273.099 291.921 273.099 291.921Z" fill="black"/>
<path opacity="0.1" d="M280.086 298.588C280.086 298.588 280.775 306.887 279.222 308.359C277.669 309.832 280.086 298.588 280.086 298.588Z" fill="black"/>
<path d="M21.9997 211.888L74.5943 211.319" stroke="#545454" stroke-width="2" stroke-miterlimit="10"/>
<path d="M21.9997 218.976L74.5943 218.413" stroke="#545454" stroke-width="2" stroke-miterlimit="10"/>
<path d="M21.9997 226.07L74.5943 225.501" stroke="#545454" stroke-width="2" stroke-miterlimit="10"/>
</g>
</svg>
