<svg width="350" height="350" viewBox="0 0 350 350" fill="none" xmlns="http://www.w3.org/2000/svg">
<circle cx="175" cy="175" r="175" fill="#CACACA"/>
<mask id="mask0" mask-type="alpha" maskUnits="userSpaceOnUse" x="0" y="0" width="350" height="350">
<circle cx="175" cy="175" r="175" fill="#CACACA"/>
</mask>
<g mask="url(#mask0)">
<path d="M176.711 336.492C245.249 336.492 300.81 325.937 300.81 312.917C300.81 299.897 245.249 289.343 176.711 289.343C108.173 289.343 52.6123 299.897 52.6123 312.917C52.6123 325.937 108.173 336.492 176.711 336.492Z" fill="#3F3D56"/>
<path d="M94.1233 160.279C102.011 147.67 105.436 132.44 103.777 117.349C102.118 102.259 95.4844 88.3071 85.0796 78.0246C74.6748 67.742 61.1877 61.8093 47.064 61.3025C32.9403 60.7956 19.1154 65.7481 8.09616 75.2618C-2.92303 84.7756 -10.4068 98.2205 -12.998 113.159C-15.5892 128.097 -13.1162 143.539 -6.02754 156.684C1.06112 169.83 12.2961 179.809 25.64 184.811C38.9838 189.813 53.553 189.508 66.7055 183.95C67.5582 187.223 69.1523 190.217 71.345 192.665C73.5378 195.113 76.2608 196.938 79.2703 197.976C82.2798 199.015 85.4818 199.235 88.5897 198.617C91.6976 197.998 94.6145 196.561 97.079 194.433C99.5436 192.305 101.479 189.553 102.712 186.424C103.945 183.294 104.437 179.885 104.144 176.501C103.851 173.117 102.783 169.864 101.034 167.032C99.2851 164.201 96.9107 161.881 94.1233 160.279Z" fill="#FF5454"/>
<path d="M80.1785 112.102H9.8844V118.07H80.1785V112.102Z" fill="white"/>
<path d="M80.1785 122.048H9.8844V128.015H80.1785V122.048Z" fill="white"/>
<path d="M80.1785 131.994H9.8844V137.961H80.1785V131.994Z" fill="white"/>
<path d="M219.877 113.011C211.989 100.403 208.564 85.1729 210.223 70.0823C211.882 54.9917 218.516 41.0401 228.92 30.7575C239.325 20.4749 252.812 14.5422 266.936 14.0354C281.06 13.5285 294.885 18.481 305.904 27.9947C316.923 37.5085 324.407 50.9534 326.998 65.8915C329.589 80.8296 327.116 96.2717 320.028 109.417C312.939 122.563 301.704 132.542 288.36 137.544C275.016 142.546 260.447 142.241 247.294 136.683C246.442 139.956 244.848 142.95 242.655 145.398C240.462 147.846 237.739 149.671 234.73 150.709C231.72 151.748 228.518 151.968 225.41 151.349C222.302 150.731 219.386 149.294 216.921 147.166C214.456 145.038 212.521 142.286 211.288 139.157C210.055 136.027 209.563 132.618 209.856 129.234C210.149 125.85 211.217 122.596 212.966 119.765C214.715 116.934 217.089 114.614 219.877 113.011Z" fill="#FF5454"/>
<path d="M233.821 70.8025L304.116 70.8025V64.835L233.821 64.835V70.8025Z" fill="white"/>
<path d="M233.821 80.7483L304.116 80.7483V74.7808L233.821 74.7808V80.7483Z" fill="white"/>
<path d="M233.821 90.6941L304.116 90.6941V84.7266L233.821 84.7266V90.6941Z" fill="white"/>
<path d="M117.261 286.936C112.858 279.897 110.946 271.395 111.872 262.97C112.798 254.545 116.502 246.756 122.31 241.015C128.119 235.275 135.649 231.962 143.534 231.679C151.419 231.396 159.137 234.161 165.289 239.473C171.441 244.784 175.619 252.29 177.066 260.63C178.512 268.97 177.132 277.591 173.174 284.93C169.217 292.269 162.944 297.84 155.495 300.633C148.045 303.425 139.911 303.255 132.568 300.152C132.092 301.979 131.202 303.651 129.978 305.017C128.754 306.384 127.234 307.403 125.554 307.983C123.874 308.563 122.086 308.685 120.351 308.34C118.616 307.995 116.987 307.192 115.611 306.004C114.235 304.816 113.155 303.28 112.466 301.533C111.778 299.786 111.503 297.882 111.667 295.993C111.83 294.104 112.427 292.288 113.403 290.707C114.38 289.127 115.705 287.831 117.261 286.936Z" fill="#FF5454"/>
<path d="M131.678 270.43C133.786 270.43 135.496 268.592 135.496 266.325C135.496 264.057 133.786 262.219 131.678 262.219C129.569 262.219 127.86 264.057 127.86 266.325C127.86 268.592 129.569 270.43 131.678 270.43Z" fill="white"/>
<path d="M144.703 270.43C146.812 270.43 148.521 268.592 148.521 266.325C148.521 264.057 146.812 262.219 144.703 262.219C142.595 262.219 140.886 264.057 140.886 266.325C140.886 268.592 142.595 270.43 144.703 270.43Z" fill="white"/>
<path d="M157.729 270.43C159.838 270.43 161.547 268.592 161.547 266.325C161.547 264.057 159.838 262.219 157.729 262.219C155.621 262.219 153.911 264.057 153.911 266.325C153.911 268.592 155.621 270.43 157.729 270.43Z" fill="white"/>
<path d="M148.527 138.966C148.527 138.966 165.561 139.464 168.375 140.564C171.188 141.665 172.446 149.536 172.446 149.536L159.22 154.006L149.327 153.403L141.882 153.969L146.039 142.262L148.527 138.966Z" fill="#2F2E41"/>
<path d="M149.262 132.955C149.262 132.955 150.382 137.61 147.895 140.906C145.408 144.202 158.588 155.946 158.588 155.946L165.541 154.661C165.541 154.661 164.009 140.358 166.067 136.737C168.126 133.115 149.262 132.955 149.262 132.955Z" fill="#9F616A"/>
<path opacity="0.1" d="M149.262 132.955C149.262 132.955 150.382 137.61 147.895 140.906C145.408 144.202 158.588 155.946 158.588 155.946L165.541 154.661C165.541 154.661 164.009 140.358 166.067 136.737C168.126 133.115 149.262 132.955 149.262 132.955Z" fill="black"/>
<path d="M195.505 269.046L180.163 290.924L190.633 297.497L205.043 272.145L195.505 269.046Z" fill="#9F616A"/>
<path d="M184.743 291.293C184.743 291.293 179.094 284.234 179.345 285.808C179.597 287.382 175.325 300.731 179.3 302.022C183.274 303.314 217.354 306.738 217.823 302.6C218.292 298.462 207.656 295.566 207.656 295.566C207.656 295.566 201.337 289.036 199.936 289.7C198.535 290.364 184.743 291.293 184.743 291.293Z" fill="#2F2E41"/>
<path d="M192.063 289.94L204.317 312.389L213.568 306.628L201.212 288.249L192.063 289.94Z" fill="#9F616A"/>
<path d="M211.407 236.532L207.77 242.066C207.77 242.066 190.433 267.958 192.274 270.049C194.115 272.139 201.783 280.041 205.683 278.51C209.583 276.979 223.438 250.514 223.438 250.514L219.824 234.976L211.407 236.532Z" fill="#2F2E41"/>
<path d="M136.722 231.293C136.722 231.293 140.604 239.084 150.445 241.721C160.286 244.359 170.568 249.752 170.934 249.684C171.3 249.616 172.335 249.02 172.586 250.594C172.838 252.168 175.537 254.91 175.537 254.91C175.537 254.91 186.407 294.632 190.559 294.675C194.71 294.718 203.242 291.52 203.419 290.272C203.596 289.024 190.707 248.46 190.581 247.673L189.072 238.229C189.072 238.229 206.118 241.155 207.707 241.672C209.297 242.188 223.438 250.514 223.438 250.514C223.438 250.514 237.854 239.341 224.37 228.059C210.887 216.776 187.711 208.499 187.711 208.499L179.396 205.984L172.15 205.519L171.083 201.12L153.922 202.185L136.013 210.356L136.722 231.293Z" fill="#2F2E41"/>
<path d="M159.371 142.22C166.754 142.22 172.739 135.784 172.739 127.846C172.739 119.907 166.754 113.471 159.371 113.471C151.988 113.471 146.003 119.907 146.003 127.846C146.003 135.784 151.988 142.22 159.371 142.22Z" fill="#9F616A"/>
<path d="M147.277 139.399L148.885 139.102C148.885 139.102 151.789 151.125 160.772 153.111C160.772 153.111 165.205 147.401 165.016 146.438C164.826 145.474 168.526 140.334 170.493 143.211C172.46 146.089 170.013 196.78 171.665 197.69C173.318 198.6 176.863 199.565 174.01 202.928C171.157 206.292 159.823 210.817 157.313 209.256C154.803 207.694 149.673 194.462 147.455 190.01C145.236 185.558 141.685 170.414 141.685 170.414C141.685 170.414 137.15 153.83 139.941 150.074C142.731 146.317 147.277 139.399 147.277 139.399Z" fill="#D0CDE1"/>
<path d="M160.071 201.805C159.772 205.336 159.261 208.842 158.54 212.302C157.884 215.117 157.121 216.817 156.25 216.744C154.027 216.566 153.017 220.071 152.496 224.113C151.939 228.4 151.939 233.292 151.634 235.02C151.229 237.304 148.643 239.047 143.474 238.536C140.396 238.159 137.375 237.362 134.485 236.165C127.507 233.437 127.713 211.312 128.881 194.895C129.595 184.832 130.668 176.908 130.668 176.908C130.668 176.908 128.548 170.11 127.87 165.45C127.735 164.6 127.668 163.739 127.668 162.876C127.771 158.806 134.682 147.806 138.858 140.955C143.039 134.103 148.742 139.129 148.742 139.129L146.757 145.571C146.757 145.571 149.833 150.675 149.855 155.532C149.878 160.39 157.22 163.895 159.856 166.247C161.513 167.724 161.472 187.449 160.071 201.805Z" fill="#2F2E41"/>
<path d="M165.876 141.431C165.876 141.431 166.357 142.044 168.563 141.745C171.209 141.387 174.846 142.371 175.691 145.087C177.241 150.067 181.609 170.328 181.609 170.328C181.609 170.328 183.428 193.49 184.245 198.606C185.063 203.722 184.657 208.253 185.464 210.94C186.27 213.627 177.504 205.929 174.273 206.931C171.042 207.934 168.967 194.947 169.373 190.416C169.778 185.884 170.122 180.959 169.001 176.304C167.88 171.65 169.867 159.331 169.793 156.508C169.718 153.686 162.669 146.573 165.876 141.431Z" fill="#2F2E41"/>
<path d="M175.334 213.42C175.334 213.42 189.488 221.723 190.843 233.542C192.198 245.36 171.912 222.099 171.912 222.099L175.334 213.42Z" fill="#9F616A"/>
<path d="M183.414 205.039C183.414 205.039 187.751 228.547 194.507 227.298C201.264 226.049 190.733 203.687 190.733 203.687L183.414 205.039Z" fill="#9F616A"/>
<path d="M206.552 307.519C206.552 307.519 203.093 311.805 202.235 311.153C201.377 310.501 199.405 319.374 201.183 321.071C202.961 322.768 209.812 325.554 209.886 328.376C209.96 331.198 228.333 330.639 228.991 327.681C229.648 324.724 226.686 317.978 224.605 316.742C222.523 315.506 214.827 304.131 214.827 304.131C214.827 304.131 208.8 305.078 206.552 307.519Z" fill="#2F2E41"/>
<path opacity="0.1" d="M173.08 227.797C169.797 225.305 160.632 224.687 152.496 224.113C148.926 223.867 145.554 223.625 142.963 223.234C140.466 222.862 138.221 220.409 136.227 216.754C133.205 211.216 130.762 202.91 128.881 194.895C129.595 184.832 130.668 176.908 130.668 176.908C130.668 176.908 128.548 170.11 127.87 165.45C128.348 164.735 128.964 164.139 129.675 163.702C138.306 159.719 146.546 198.922 147.592 205.074C147.61 205.175 147.624 205.272 147.637 205.354C148.145 208.521 153.627 211.23 158.54 212.302C161.566 212.964 164.382 213.007 165.68 212.148C169.088 209.897 179.569 218.903 180.363 219.159C181.158 219.419 177.795 231.385 173.08 227.797Z" fill="black"/>
<path d="M129.677 161.289C129.677 161.289 123.404 164.474 126.16 179.36C128.916 194.247 134.469 219.555 142.96 220.822C151.452 222.088 168.36 221.799 173.078 225.384C177.795 228.969 181.158 217.003 180.363 216.745C179.568 216.487 169.087 207.485 165.679 209.735C162.271 211.986 148.455 208.057 147.638 202.941C146.82 197.825 138.449 157.237 129.677 161.289Z" fill="#2F2E41"/>
<path d="M174.879 154.15L181.773 171.352C181.773 171.352 182.467 170.979 183.273 173.666C184.08 176.353 184.457 178.715 185.869 180.479C187.282 182.244 193.566 207.417 193.755 208.598C193.944 209.778 185.075 213.848 183.094 210.568C181.112 207.288 174.879 154.15 174.879 154.15Z" fill="#2F2E41"/>
<path d="M151.766 127.646C152.278 127.499 152.353 126.767 152.371 126.197C152.463 123.145 154.172 120.014 156.888 119.125C157.931 118.818 159.022 118.753 160.09 118.936C161.614 119.154 163.085 119.682 164.425 120.491C165.133 120.919 165.827 121.434 166.63 121.565C167.16 121.651 169.455 122.369 169.983 122.47C171.143 122.692 172.222 123.808 173.335 123.393C174.4 122.995 174.636 121.512 174.662 120.3C174.721 117.538 172.771 113.716 171.054 111.661C169.75 110.102 167.788 109.383 165.87 109.008C163.629 108.621 161.359 108.473 159.091 108.565C156.021 108.624 152.866 108.878 150.098 110.307C147.33 111.735 145.005 114.578 144.872 117.876C144.845 118.563 144.911 119.253 144.857 119.938C144.726 121.61 143.9 123.12 143.513 124.745C143.236 125.938 143.195 127.179 143.392 128.39C143.588 129.601 144.019 130.754 144.655 131.774C145.683 133.4 147.297 134.87 147.238 136.835L149.465 134.353C149.798 134.08 150.034 133.693 150.133 133.255C150.232 132.818 150.188 132.357 150.009 131.95L149.221 128.643C149.018 128.053 148.994 127.409 149.153 126.803C149.998 124.557 150.912 127.891 151.766 127.646Z" fill="#2F2E41"/>
<path d="M252.999 293.029C252.907 292.867 250.73 288.959 249.975 280.843C249.283 273.398 249.728 260.848 255.781 243.341C267.248 210.177 253.138 183.418 252.994 183.151L253.69 182.717C253.727 182.784 257.368 189.607 259.519 200.471C262.36 214.874 261.326 229.85 256.535 243.643C245.088 276.751 253.598 292.424 253.686 292.578L252.999 293.029Z" fill="#3F3D56"/>
<path d="M248.515 181.204C251.403 181.204 253.745 178.686 253.745 175.58C253.745 172.475 251.403 169.957 248.515 169.957C245.627 169.957 243.286 172.475 243.286 175.58C243.286 178.686 245.627 181.204 248.515 181.204Z" fill="#FF5454"/>
<path d="M265.008 201.966C267.896 201.966 270.237 199.449 270.237 196.343C270.237 193.238 267.896 190.72 265.008 190.72C262.12 190.72 259.779 193.238 259.779 196.343C259.779 199.449 262.12 201.966 265.008 201.966Z" fill="#3F3D56"/>
<path d="M253.745 215.808C256.633 215.808 258.974 213.29 258.974 210.185C258.974 207.079 256.633 204.562 253.745 204.562C250.856 204.562 248.515 207.079 248.515 210.185C248.515 213.29 250.856 215.808 253.745 215.808Z" fill="#FF5454"/>
<path d="M267.422 227.487C270.31 227.487 272.651 224.97 272.651 221.864C272.651 218.758 270.31 216.241 267.422 216.241C264.533 216.241 262.192 218.758 262.192 221.864C262.192 224.97 264.533 227.487 267.422 227.487Z" fill="#FF5454"/>
<path d="M249.722 245.654C252.61 245.654 254.951 243.137 254.951 240.031C254.951 236.926 252.61 234.408 249.722 234.408C246.834 234.408 244.493 236.926 244.493 240.031C244.493 243.137 246.834 245.654 249.722 245.654Z" fill="#3F3D56"/>
<path d="M256.158 293.236C256.158 293.236 250.929 279.394 266.617 269.013L256.158 293.236Z" fill="#3F3D56"/>
<path d="M249.727 292.985C249.727 292.985 247.347 278.265 228.926 278.391L249.727 292.985Z" fill="#3F3D56"/>
</g>
</svg>
