<svg width="350" height="350" viewBox="0 0 350 350" fill="none" xmlns="http://www.w3.org/2000/svg">
<circle cx="175" cy="175" r="175" fill="#CACACA"/>
<mask id="mask0" mask-type="alpha" maskUnits="userSpaceOnUse" x="0" y="0" width="350" height="350">
<circle cx="175" cy="175" r="175" fill="#CACACA"/>
</mask>
<g mask="url(#mask0)">
<path d="M339.664 91.5167C294.491 22.8387 199.067 -5.02011 105.221 24.9845C55.6067 40.847 7.76981 72.6299 -15.937 134.172C-58.3155 244.185 30.6635 279.32 88.8461 290.518C116.98 295.933 143.477 305.029 167.691 317.413C211.253 339.692 288.362 359.434 346.507 266.63C388.65 199.365 369.753 137.263 339.664 91.5167Z" fill="#F2F2F2"/>
<path d="M77.7703 105.104C77.6439 104.013 77.3883 102.944 77.01 101.924C76.9617 101.732 76.8773 101.552 76.7619 101.397C76.6466 101.242 76.503 101.114 76.3402 101.023C76.1226 100.961 75.8944 100.958 75.6756 101.015L72.2635 101.585C71.9779 101.6 71.7044 101.716 71.485 101.916C71.0405 102.427 71.4781 103.249 71.4645 103.953C71.4492 104.745 70.805 105.388 70.1064 105.601C69.3933 105.759 68.6577 105.749 67.9484 105.572L63.1773 104.762C64.5824 104.272 65.8332 103.36 66.7867 102.13C67.4146 101.318 67.7486 99.8004 66.8412 99.4156C66.5716 99.3347 66.2905 99.3101 66.0125 99.3429C63.8508 99.3612 62.1498 97.3893 60.1261 96.5588C58.8309 96.0616 57.4249 96.0246 56.1093 96.4531C54.7937 96.8816 53.6358 97.7536 52.8012 98.9445L55.3428 99.0784C55.5819 99.064 55.819 99.1331 56.0198 99.2757C56.5768 99.7757 55.8843 100.736 55.9628 101.519C56.0648 102.536 57.301 102.754 58.2329 102.856C59.1648 102.959 60.347 103.786 59.8987 104.685C55.2149 106.448 50.4487 101.239 45.5297 101.881C44.2848 102.043 43.1092 102.577 41.8937 102.913C34.4686 104.966 26.7924 99.4893 19.2073 100.649C17.521 100.963 15.8637 101.441 14.255 102.076C13.2226 102.446 12.1458 102.847 11.3957 103.706C10.6456 104.564 10.3602 106.033 11.0708 106.931C9.11216 107.108 7.14048 106.903 5.24734 106.327C5.75928 106.638 6.18517 107.093 6.4803 107.646C6.77544 108.199 6.92893 108.828 6.92467 109.468C3.86654 110.013 0.889397 111.005 -1.9267 112.417C-1.40111 113.372 -0.787216 114.265 -0.0946736 115.083L-3.96619 117.801C-2.65821 118.161 -1.98195 120.109 -2.74258 121.326C-1.38636 120.667 -0.545831 118.962 0.904429 118.616C1.85454 118.39 2.8213 118.814 3.72263 119.213C4.62396 119.612 5.61461 119.999 6.54767 119.7C7.48074 119.4 8.16896 118.078 7.57606 117.236C11.5642 115.965 15.6859 115.261 19.8389 115.143C20.1593 115.099 20.4843 115.166 20.7677 115.336C21.3083 115.745 21.1661 116.63 21.1369 117.349C21.1078 118.067 21.6201 119.011 22.2076 118.687C21.5164 119.342 22.1073 120.575 22.7705 121.263C23.4336 121.952 24.2329 122.902 23.8269 123.798C23.7209 124.032 23.5412 124.219 23.4393 124.455C23.1383 125.151 23.6161 125.963 24.1797 126.425C24.7433 126.888 25.4336 127.211 25.8251 127.851C26.2166 128.491 26.0388 129.612 25.3388 129.702L23.349 126.942C22.6692 127.712 22.2031 128.677 22.0049 129.724C24.1148 131.609 24.4322 135.445 22.6658 137.712C21.7631 138.871 20.4793 139.575 19.3589 140.479C18.2385 141.383 17.2018 142.67 17.2046 144.191C17.2095 146.82 17.0129 149.262 17.9145 151.7C19.5771 156.194 21.4966 160.569 23.6617 164.8C24.2302 165.911 24.9651 167.129 26.1169 167.32C24.6612 163.448 23.3508 159.516 22.1858 155.524C22.9446 155.527 23.8216 155.593 24.2664 156.265C24.6348 156.821 24.5556 157.577 24.6701 158.252C24.8157 158.907 25.0584 159.53 25.3887 160.098L32.3398 173.626C32.9161 174.748 33.577 175.952 34.6783 176.406C35.3824 176.696 36.1971 176.642 36.8452 177.06C37.3531 177.387 37.6953 177.969 38.2132 178.278C39.6774 179.15 41.7137 177.477 43.0821 178.519C43.4733 178.816 43.7223 179.29 44.0828 179.631C45.3466 180.827 47.4199 180.027 48.8788 180.919C49.8191 181.494 50.3064 182.643 50.808 183.685C52.0642 186.295 54.097 188.852 56.7893 189.06C57.635 189.125 58.4989 188.95 59.3255 189.156C60.1522 189.361 60.966 190.15 60.8333 191.064C60.6058 192.633 61.3151 194.35 61.1246 195.925C60.7776 198.792 57.0546 200.053 56.7348 202.924C56.6648 203.553 56.7744 204.202 56.6374 204.817C56.4694 205.571 55.951 206.186 55.7668 206.935C55.4176 208.356 56.3493 209.77 57.3727 210.726C58.3962 211.681 59.6169 212.506 60.1765 213.844C60.7679 215.258 60.4774 216.907 60.6697 218.447C61.0896 221.811 63.7484 224.304 66.4847 225.912C67.3184 226.401 68.2135 226.876 68.7531 227.725C69.4574 228.834 69.3873 230.297 69.6224 231.622C70.1984 234.867 72.699 237.541 72.77 240.846C72.8205 243.195 71.6253 245.326 70.9114 247.543C70.2421 249.666 69.9999 251.923 70.2013 254.158C70.4027 256.393 71.0431 258.555 72.0786 260.495C72.6127 261.48 73.2515 262.409 73.6293 263.477C74.3034 265.383 74.0847 267.55 74.7063 269.477C75.5281 272.025 77.7864 274.13 77.5703 276.821C78.5955 279.147 80.8594 280.29 83.1359 280.983L87.2158 282.224C87.997 282.461 88.8134 282.701 89.6089 282.529C90.4043 282.357 91.1635 281.635 91.143 280.749C89.1422 280.256 87.0773 279.732 85.428 278.4C83.7787 277.068 82.6489 274.696 83.2747 272.562C83.5648 271.572 84.1822 270.43 83.5953 269.612C83.2592 269.144 82.6447 269.021 82.2657 268.594C81.6745 267.928 81.8776 266.809 82.3027 266.005C82.7277 265.202 83.342 264.484 83.5134 263.575C83.6 263.067 83.5421 262.542 83.3477 262.07C83.1533 261.599 82.8315 261.203 82.4256 260.937C83.1821 260.625 83.8702 260.143 84.445 259.522C84.9761 258.859 85.2214 257.837 84.8037 257.084C86.0442 257.256 87.5089 257.34 88.3232 256.303C88.9736 255.476 88.9289 254.238 88.6719 253.183C88.415 252.129 87.9807 251.105 87.9671 250.014C90.8289 250.162 93.697 250.056 96.5431 249.696C96.1315 248.182 95.1963 246.902 93.9357 246.129C95.2247 245.89 96.399 244.204 96.8062 242.847C97.2134 241.49 97.1096 240.012 96.8578 238.61C96.7612 238.249 96.7479 237.868 96.8193 237.5C96.9644 236.994 97.4188 236.686 97.8393 236.422L104.237 232.408C104.619 232.199 104.965 231.92 105.26 231.582C105.931 230.722 105.831 229.424 105.488 228.358C105.145 227.292 104.595 226.29 104.463 225.169C104.068 221.818 107.351 219.414 108.459 216.259C108.894 215.021 108.982 213.676 109.067 212.353C109.157 210.932 109.164 209.282 108.165 208.366C107.208 207.489 105.713 207.685 104.711 206.868C103.793 206.12 103.476 204.666 102.473 204.062C101.562 203.513 100.42 203.862 99.4068 203.604C97.623 203.149 96.5004 200.903 94.6786 200.695C93.6506 200.577 92.4873 201.126 91.6448 200.472C90.9024 199.896 90.8727 198.738 90.7314 197.755C90.4838 196.227 89.8136 194.819 88.8112 193.72C87.8087 192.622 86.5222 191.885 85.1248 191.609C84.065 191.424 82.9114 191.494 82.0097 190.858C81.0968 190.213 80.6782 189.007 79.961 188.115C78.8052 186.677 76.9849 186.166 75.2796 185.728L68.3434 183.946C67.1121 183.63 65.5249 183.462 64.8642 184.641C64.6686 185.089 64.5301 185.565 64.4526 186.055C64.2051 186.941 63.7068 187.718 63.0294 188.275C62.3521 188.832 61.5306 189.14 60.6829 189.155C60.1016 188.072 59.1598 187.275 58.0541 186.933C57.3508 186.718 56.5979 186.695 55.9271 186.379C55.5618 186.185 55.2367 185.91 54.9717 185.574C54.7068 185.237 54.5075 184.844 54.3862 184.42C54.2648 183.997 54.2239 183.55 54.2659 183.108C54.308 182.666 54.4321 182.239 54.6307 181.851C55.0306 181.073 55.1851 180.173 55.0702 179.29C54.9554 178.406 54.5776 177.589 53.9952 176.964C52.8156 175.807 51.1093 175.527 49.5277 175.643C49.1134 174.655 49.8061 173.541 50.5524 172.823C51.2988 172.106 52.2052 171.4 52.3677 170.328C52.6234 168.643 50.6547 167.362 49.1599 167.865C47.6651 168.367 46.711 169.954 46.0803 171.518C45.7185 172.415 45.4108 173.359 44.84 174.116C44.2692 174.872 43.3501 175.414 42.4806 175.171C41.2498 174.828 40.7744 173.23 40.502 171.874C40.1365 170.055 39.7689 168.211 39.8455 166.351C39.9221 164.49 40.4961 162.58 41.7517 161.321C43.7978 159.268 46.9366 159.47 49.6979 159.797C49.0455 158.994 49.2067 157.64 49.9048 156.884C50.2732 156.527 50.716 156.273 51.1947 156.144C51.6734 156.016 52.1735 156.017 52.6517 156.147C53.4838 156.336 54.2334 156.826 54.7798 157.537C55.5645 158.583 55.7876 159.994 56.3807 161.18C56.9739 162.367 58.3075 163.379 59.3991 162.742C60.342 162.192 60.4917 160.764 60.257 159.625C60.0223 158.486 59.5239 157.378 59.6089 156.214C59.7711 153.993 61.8784 152.656 63.7379 151.741C65.5974 150.827 67.7266 149.596 68.0212 147.392C68.0313 146.96 68.1059 146.533 68.2419 146.128C68.4481 145.77 68.7347 145.475 69.0745 145.272C74.5015 141.354 80.0188 137.387 86.2217 135.246C86.5444 135.135 86.5823 135.259 86.9111 135.171C87.3714 134.881 87.0664 134.077 86.6251 133.753C86.1838 133.429 85.594 133.18 85.482 132.613C85.3997 132.195 85.6248 131.785 85.6833 131.363C85.827 130.326 84.6911 129.368 83.809 129.783C83.3107 129.062 84.2966 128.224 85.0938 127.984C87.4877 127.264 89.945 126.826 92.4241 126.676C92.7101 126.626 93.0032 126.681 93.2582 126.831C93.6746 127.146 93.6214 127.869 93.3263 128.319C93.0312 128.768 92.5722 129.051 92.2044 129.431C91.8027 129.859 91.5161 130.399 91.3761 130.992C91.236 131.586 91.2478 132.21 91.4102 132.796C92.7044 133.516 94.1114 134.256 95.5447 134.003C96.9781 133.749 98.2503 131.99 97.5766 130.584C96.9492 129.276 95.0646 128.981 94.7405 127.546C94.361 125.867 96.5368 124.374 96.0467 122.729C95.832 122.008 95.1749 121.584 94.6706 121.064C94.0751 120.427 93.67 119.607 93.5085 118.713C93.3471 117.819 93.4368 116.893 93.7659 116.056C92.9446 116.214 92.1006 116.154 91.3047 115.882C90.5088 115.61 89.7842 115.133 89.1918 114.492C88.0977 113.286 87.2248 111.383 85.6712 111.437C84.2454 111.486 83.0174 113.303 81.6843 112.749C81.3563 112.613 81.0105 112.335 80.6928 112.498C80.5886 112.572 80.5012 112.67 80.4371 112.786C80.3731 112.903 80.334 113.033 80.3229 113.168C79.9841 114.938 80.5669 116.954 79.6841 118.484C78.7235 120.148 76.5015 120.378 75.3369 121.879C74.7047 122.694 74.4598 123.791 73.8787 124.65C73.2976 125.509 72.0643 126.055 71.367 125.306C71.7097 124.537 71.8033 123.662 71.6324 122.827C71.4616 121.992 71.0365 121.244 70.4265 120.707C69.779 120.245 69.0811 119.875 68.3491 119.603C67.5312 119.225 66.7531 118.751 66.0284 118.19C65.6654 117.951 65.3704 117.606 65.1765 117.194C65.023 116.678 65.0437 116.119 65.2347 115.619C65.5883 114.511 66.2121 113.53 67.0388 112.781C67.8655 112.033 68.8636 111.545 69.9254 111.371C70.8539 111.233 71.9345 111.282 72.549 110.509C72.8741 110.1 73.0447 109.481 73.5166 109.315C73.8185 109.249 74.1319 109.291 74.41 109.436L77.8756 110.768C78.2623 110.959 78.6879 111.036 79.1102 110.991C79.3195 110.961 79.5105 110.844 79.6448 110.666C79.779 110.488 79.8466 110.261 79.8339 110.03C79.7232 109.402 78.8376 109.1 78.9182 108.466C78.9633 108.26 79.0645 108.074 79.2083 107.933C80.4589 106.478 81.9885 105.344 83.6874 104.611C85.3862 103.878 87.2124 103.565 89.0352 103.693C89.4726 104.478 88.7808 105.407 88.2052 106.077C87.6296 106.747 87.167 107.945 87.8631 108.46C88.1484 108.62 88.4657 108.698 88.7859 108.688C89.6391 108.814 90.4683 109.088 91.2419 109.501C92.4395 110.071 93.6141 110.694 94.7656 111.37C94.6639 110.541 94.5668 109.667 94.8546 108.891C95.1424 108.116 95.9604 107.507 96.6748 107.809C97.3634 108.1 97.7165 109.096 98.4501 109.188C99.4286 109.309 99.8146 107.73 99.4059 106.751C98.9972 105.772 98.188 104.952 98.1205 103.879C98.0749 103.155 98.3271 102.256 97.7977 101.818C97.6093 101.686 97.3954 101.604 97.173 101.579L83.9524 98.9206C83.1674 98.7627 82.0331 98.8837 81.9983 99.755C81.9788 100.241 82.3764 100.723 82.2003 101.17C82.0124 101.647 81.3949 101.603 80.9451 101.772C80.2473 102.034 79.8971 102.939 79.9641 103.742C80.0868 104.54 80.3696 105.298 80.7922 105.962C79.9323 105.57 78.6302 105.497 77.7703 105.104Z" fill="#3F3D56"/>
<path d="M67.2216 92.8428C66.3879 92.5414 65.4895 92.5273 64.6483 92.8026C63.8071 93.0778 63.0637 93.6291 62.5189 94.3815C62.3012 94.6947 62.1184 95.1264 62.3006 95.4655C62.5619 95.9516 63.2277 95.7596 63.7185 95.5857C64.4399 95.3041 65.2251 95.2836 65.958 95.5273C66.4189 95.7002 66.8312 96.0057 67.2941 96.1721C67.5194 96.2751 67.7662 96.3091 68.0079 96.2705C68.2495 96.2319 68.4771 96.1222 68.666 95.9531C68.9837 95.5991 69.0036 95.0487 69.0042 94.5529C69.0262 94.387 69.0141 94.2179 68.9686 94.0578C68.9232 93.8976 68.8456 93.7506 68.7416 93.6275C68.5563 93.5102 68.3481 93.4429 68.1342 93.4312C67.6553 93.3343 67.2223 93.0579 66.9099 92.6496" fill="#3F3D56"/>
<path d="M71.9886 91.3926C71.802 91.3815 71.616 91.4231 71.4484 91.5132C71.2807 91.6034 71.1372 91.7391 71.0314 91.9075C70.9257 92.0758 70.8614 92.271 70.8447 92.4743C70.828 92.6776 70.8594 92.8822 70.936 93.0684C71.509 93.2391 72.1076 93.2818 72.696 93.1938C72.9895 93.144 73.2629 93.0004 73.4818 92.7811C73.7007 92.5618 73.8553 92.2767 73.9261 91.9615C73.2334 92.0993 72.5185 91.9501 71.9209 91.5431" fill="#3F3D56"/>
<path d="M87.9827 88.9709C86.4232 89.3331 84.9084 89.8953 83.4696 90.6459C84.1479 90.9307 84.7244 91.4461 85.1143 92.116C85.5043 92.7859 85.6869 93.575 85.6353 94.3669C85.5744 94.6709 85.5815 94.9865 85.6558 95.2869C85.8216 95.726 86.3019 95.8907 86.7242 96.0034C87.4828 96.2556 88.275 96.3661 89.0673 96.3301C89.4636 96.3075 89.8485 96.1772 90.1872 95.9511C90.5258 95.725 90.8075 95.4102 91.0068 95.0352C91.1216 94.6793 91.2563 94.3314 91.4101 93.9935C92.4223 92.3094 95.4291 94.3458 96.5158 92.718C96.8986 92.1446 96.8636 91.2815 97.3626 90.8271C97.6207 90.6291 97.9199 90.5044 98.2331 90.4641C100.418 89.9897 102.626 89.6462 104.846 89.4352C105.897 89.3352 107.268 88.9226 107.277 87.7692C103.315 86.9192 99.208 87.5229 95.593 89.4865C94.2905 90.1993 92.5679 91.6985 91.3133 90.7536C90.8436 90.3998 90.8668 89.4471 90.2203 89.0493C89.5593 88.6425 88.6843 88.808 87.9827 88.9709Z" fill="#3F3D56"/>
<path d="M100.938 91.6179L102.797 92.0083C102.455 91.9917 102.113 92.0551 101.795 92.1942C101.477 92.3333 101.19 92.5449 100.953 92.8149C100.715 93.0849 100.533 93.4072 100.419 93.7601C100.305 94.113 100.261 94.4884 100.29 94.8614C102.031 95.497 103.93 94.8785 105.764 94.963C107.598 95.0475 109.733 96.4791 109.42 98.4557C109.325 99.0533 109.009 99.6506 109.173 100.23C109.288 100.636 109.616 100.924 109.801 101.298C110.187 102.077 109.879 103.063 109.392 103.772C108.905 104.48 108.251 105.045 107.823 105.798C106.76 107.671 107.364 110.091 107.997 112.183C108.18 112.974 108.518 113.711 108.988 114.345C109.926 115.434 111.455 115.529 112.823 115.551C113.82 115.567 114.961 115.513 115.591 114.67C116.414 113.569 115.839 111.851 116.38 110.558C116.872 109.385 118.125 108.881 119.26 108.524C121.34 107.87 123.46 107.314 125.427 106.325C127.868 105.098 130.15 103.186 132.834 103.028C133.587 102.984 134.359 103.081 135.084 102.855C135.809 102.63 136.498 101.945 136.443 101.123C136.397 100.421 135.853 99.9057 135.428 99.3764C135.003 98.8472 134.67 98.0334 135.06 97.4735L142.095 96.0379C141.596 94.5531 141.208 92.5977 142.354 91.6312C142.767 91.2825 143.32 91.1432 143.672 90.7216C144.272 90.0031 143.971 88.7655 143.278 88.1544C142.586 87.5434 141.649 87.4015 140.762 87.321C137.678 87.0412 134.575 87.2261 131.485 87.4112C125.444 87.773 119.402 88.1348 113.361 88.4966C112.145 88.5694 110.741 88.4582 109.625 88.9115C108.681 89.2953 108.01 89.9997 106.93 90.2472C104.936 90.7042 102.742 90.395 100.938 91.6179Z" fill="#3F3D56"/>
<path d="M134.251 107.677C134.062 107.644 133.868 107.692 133.71 107.811C133.605 107.937 133.543 108.098 133.534 108.267C133.414 109.015 133.557 109.785 133.934 110.423C134.126 110.736 134.392 110.986 134.703 111.149C135.014 111.312 135.359 111.381 135.703 111.349C136.54 111.232 137.157 110.452 137.927 110.071C139.113 109.485 144.152 108.57 140.666 106.513C139.465 105.804 138.689 106.43 137.742 106.897C136.665 107.499 135.458 107.769 134.251 107.677Z" fill="#3F3D56"/>
<path d="M164.779 90.4563C164.372 90.638 164.032 90.9618 163.811 91.3771C163.709 91.588 163.686 91.8336 163.745 92.063C163.804 92.2924 163.942 92.4881 164.13 92.6097C164.282 92.6699 164.443 92.6978 164.605 92.6919L166.259 92.746C166.962 92.7689 167.841 92.9325 168.03 93.6727C168.17 94.2223 167.856 94.9285 168.235 95.3213C168.397 95.4588 168.593 95.5421 168.798 95.5612C169.343 95.7142 169.912 95.7342 170.465 95.62C171.669 95.2671 171.036 94.4642 171.416 93.7493C171.996 92.6554 171.895 93.3176 172.918 92.6907C173.673 92.2277 174.648 91.3878 174.018 90.2077C172.922 88.1557 166.396 89.5747 164.779 90.4563Z" fill="#3F3D56"/>
<path d="M197.441 89.4248L196.48 89.5649C194.314 89.8808 192.134 90.1996 190.047 90.9106C190.951 91.3008 191.899 91.5549 192.865 91.6659C193.397 91.6944 193.925 91.7764 194.443 91.911C195.365 92.2108 196.293 92.985 197.184 92.5884C197.736 92.3425 197.916 91.7144 198.374 91.3815C198.69 91.1516 199.888 90.7795 200.021 90.5475C201.104 88.6718 198.273 89.3034 197.441 89.4248Z" fill="#3F3D56"/>
<path d="M201.661 94.1961C200.377 94.9803 199.186 95.9331 198.115 97.0334C197.663 97.4971 197.202 98.0738 197.243 98.7494C197.297 99.6472 198.173 100.168 198.931 100.519L202.003 101.94C202.376 101.366 202.035 100.574 201.649 100.01C201.264 99.4459 200.807 98.7934 200.977 98.1148C201.171 97.3404 202.035 97.0765 202.76 96.9431C203.941 96.7257 207.126 96.7431 206.743 94.664C206.292 92.2142 202.846 93.4723 201.661 94.1961Z" fill="#3F3D56"/>
<path d="M201.043 232.834C200.751 233.759 200.723 234.848 201.229 235.656C201.796 236.562 202.932 236.9 203.915 236.67C204.894 236.386 205.766 235.773 206.409 234.918C206.997 234.202 207.481 233.391 207.844 232.515C208.35 231.148 208.707 229.721 208.907 228.264L209.861 222.792C210.074 221.57 210.066 217.821 208.009 219.042C207.447 219.376 206.146 222.01 205.557 222.757C204.496 224.104 204.355 225.41 203.796 227.041C203.097 229.085 201.69 230.787 201.043 232.834Z" fill="#3F3D56"/>
<path d="M309.686 260.832C309.013 260.545 308.36 260.205 307.732 259.815C307.102 261.707 306.767 263.702 306.741 265.715L311.347 262.868C312.04 262.439 312.825 261.844 312.81 260.974C312.816 260.867 312.796 260.76 312.751 260.664C312.706 260.568 312.639 260.487 312.555 260.43C312.453 260.385 312.342 260.371 312.232 260.389C311.549 260.451 310.927 260.818 310.283 261.073C309.638 261.328 308.885 261.463 308.294 261.085" fill="#3F3D56"/>
<path d="M333.983 262.522C333.477 262.673 332.983 262.866 332.506 263.101C331.449 263.689 330.73 264.805 329.779 265.579C328.868 266.319 327.773 266.726 326.697 267.121C326.381 267.427 326.526 268.042 326.87 268.311C327.239 268.54 327.662 268.644 328.086 268.609C329.203 268.636 330.381 268.648 331.359 268.058C331.911 267.668 332.427 267.22 332.901 266.722C334.045 265.679 335.419 264.99 336.78 264.325C337.275 264.121 337.732 263.822 338.132 263.442C338.986 262.522 339.046 261.102 337.814 260.789C336.818 260.536 334.931 262.187 333.983 262.522Z" fill="#3F3D56"/>
<path d="M344.718 254.861C344.773 254.227 344.696 253.589 344.492 252.993C344.289 252.397 343.964 251.86 343.542 251.421C343.53 252.688 343.494 254.037 342.842 255.085C342.378 255.831 341.649 256.336 341.14 257.046C340.631 257.757 340.405 258.884 341.002 259.508C341.384 259.825 341.849 260 342.328 260.007C343.517 260.16 344.893 260.245 345.726 259.307C346.181 258.795 346.402 258.037 346.957 257.66C347.164 257.565 347.349 257.421 347.498 257.238C347.727 256.84 347.363 256.315 346.953 256.172C346.543 256.028 346.091 256.096 345.68 255.96C345.268 255.823 344.89 255.317 345.101 254.908" fill="#3F3D56"/>
<path d="M325.638 208.416C325.014 208.582 324.369 208.623 323.732 208.539C322.674 208.326 321.85 207.455 320.996 206.74C318.965 205.051 316.496 204.109 313.944 204.049C311.623 204.001 309.28 204.688 307 204.208C307.149 205.114 307.858 205.793 308.615 206.196C309.371 206.6 310.206 206.803 310.966 207.198C312.183 207.837 313.149 208.935 313.685 210.289C313.93 210.913 314.084 211.593 314.455 212.138C315.213 213.252 316.649 213.497 317.917 213.405C319.57 213.287 321.297 212.767 322.834 213.44C324.011 213.955 324.853 215.08 325.835 215.955C326.817 216.829 328.201 217.479 329.329 216.847C328.157 216.433 327.138 215.62 326.419 214.528C325.7 213.436 325.319 212.121 325.333 210.775C326.439 210.886 329.625 210.843 329.453 208.79C329.308 207.049 326.588 208.228 325.638 208.416Z" fill="#3F3D56"/>
<path d="M311.166 222.577C311.363 221.4 312.437 220.36 312.102 219.221C311.871 218.433 311.035 218.044 310.278 218.025C309.521 218.006 308.777 218.252 308.02 218.275C307.527 218.247 307.033 218.254 306.541 218.298C305.039 218.568 304.112 220.289 302.696 220.901C301.835 221.273 300.868 221.202 299.972 221.459C297.939 222.043 296.653 224.142 295.232 225.834C292.936 228.556 289.944 230.462 286.645 231.305C285.49 231.597 284.247 231.784 283.328 232.604C282.112 233.691 281.812 235.553 281.541 237.244C280.794 241.913 279.651 246.497 278.127 250.937L282.954 251.61C283.872 251.738 284.823 251.863 285.708 251.566C286.35 251.301 286.959 250.947 287.518 250.512C289.668 249.054 292.074 248.105 294.581 247.727C295.845 247.537 297.17 247.503 298.357 248.016C299.543 248.529 300.561 249.694 300.66 251.083C301.173 250.909 301.72 250.89 302.242 251.029C302.764 251.168 303.242 251.459 303.624 251.871C304.38 252.712 304.875 253.792 305.039 254.957C305.166 255.679 305.293 256.543 305.906 256.846C306.406 257.093 306.98 256.827 307.527 256.779C309.382 256.617 310.922 258.981 312.747 258.574C314.703 258.137 315.183 254.936 317.092 254.295C318.188 253.927 319.726 254.375 320.25 253.261C320.713 252.279 319.79 251.146 319.885 250.046C320.002 248.692 321.464 248.118 322.591 247.54C326.475 245.549 328.319 239.836 326.436 235.623C325.321 233.127 323.127 231.162 322.721 228.42C322.409 226.31 323.171 223.85 321.939 222.189C321.313 221.344 320.253 220.878 319.88 219.87C319.645 219.236 319.74 218.516 319.613 217.845C319.487 217.175 318.952 216.474 318.346 216.648C316.588 217.152 316.026 223.087 315.085 224.53C313.654 226.722 310.715 225.278 311.166 222.577Z" fill="#3F3D56"/>
<path d="M278.661 210.658C278.06 210.474 277.404 210.293 276.828 210.556C276.252 210.819 275.916 211.743 276.378 212.201C279.994 212.047 283.631 211.894 287.216 212.431C291.346 213.049 295.434 214.58 299.582 214.13C297.213 213.366 294.804 212.755 292.368 212.301L288.307 211.453C287.218 211.204 286.117 211.018 285.01 210.896C282.693 210.687 280.939 211.356 278.661 210.658Z" fill="#3F3D56"/>
<path d="M282.281 196.901C281.981 196.873 281.609 196.85 281.454 197.132C281.305 197.401 281.475 197.757 281.395 198.059C281.286 198.472 280.792 198.577 280.402 198.521C280.012 198.465 279.591 198.33 279.245 198.536C279.07 198.666 278.939 198.855 278.87 199.075C278.802 199.294 278.8 199.532 278.866 199.752C279.007 200.19 279.236 200.587 279.535 200.916C280.045 201.62 280.627 202.257 281.269 202.817C282.512 203.819 284.195 204.302 284.978 205.757C285.088 206.039 285.258 206.289 285.473 206.486C285.849 206.746 286.339 206.548 286.744 206.346L288.161 205.638C288.417 205.537 288.645 205.368 288.824 205.145C289.148 204.665 288.949 203.982 288.677 203.465C288.406 202.948 288.057 202.412 288.116 201.819C288.22 200.761 289.464 200.357 289.976 199.452C290.492 198.54 290.156 197.365 290.216 196.294C290.285 195.043 291.005 193.414 289.847 192.479C288.863 191.684 287.922 192.419 287.215 193.296C285.725 195.147 285.02 197.151 282.281 196.901Z" fill="#3F3D56"/>
<path d="M290.888 178.199C291.372 179.212 292.381 179.816 292.909 180.803C293.481 181.872 293.416 183.253 294.037 184.289C294.674 185.352 295.956 185.916 296.313 187.126C296.703 188.446 295.818 190.05 296.523 191.204C296.655 191.392 296.821 191.549 297.01 191.664C297.2 191.778 297.41 191.849 297.626 191.871C297.842 191.892 298.06 191.865 298.266 191.79C298.471 191.714 298.661 191.593 298.821 191.434C299.119 191.081 299.278 190.614 299.265 190.134C299.252 189.654 299.068 189.198 298.752 188.864C298.334 188.448 297.735 188.269 297.386 187.783C297.205 187.502 297.084 187.181 297.032 186.842C296.842 185.864 296.873 184.851 297.121 183.889C297.214 183.645 297.238 183.376 297.189 183.117C297.032 182.618 296.414 182.583 295.981 182.352C294.996 181.827 295.02 180.308 295.192 179.126C295.077 179.913 292.511 178.574 292.242 178.128C291.708 177.243 291.999 175.534 291.893 174.555C290.741 175.162 290.296 176.961 290.888 178.199Z" fill="#3F3D56"/>
<path d="M265.032 193.781C264.559 193.202 263.845 192.596 263.21 192.945C262.726 193.212 262.592 193.944 262.782 194.499C263.014 195.038 263.37 195.502 263.816 195.845C265.139 197.038 266.564 198.114 267.719 199.5C269.785 201.981 270.88 205.329 273.127 207.614C273.578 208.144 274.176 208.498 274.829 208.621C275.484 208.687 276.219 208.23 276.295 207.516C276.356 206.928 275.981 206.402 275.615 205.966C274.742 204.929 273.786 203.974 272.962 202.89C272.582 202.474 272.342 201.928 272.284 201.343C272.28 200.759 272.767 200.149 273.285 200.293C272.655 200.117 272.188 198.972 271.265 198.756C270.493 198.576 270.306 199.098 269.387 198.668C267.635 197.847 266.26 195.282 265.032 193.781Z" fill="#3F3D56"/>
<path d="M306.21 137.367C305.707 137.203 305.213 137.011 304.729 136.789C303.428 136.362 301.706 137.407 301.88 138.879C301.995 139.857 302.828 140.517 303.288 141.365C303.971 142.623 303.789 144.219 303.43 145.628C303.342 146.064 303.175 146.477 302.938 146.841C302.607 147.226 302.211 147.537 301.772 147.757C300.015 148.834 298.465 150.272 297.209 151.993C297.072 152.152 296.977 152.348 296.933 152.56C296.871 153.057 297.329 153.42 297.587 153.834C298.161 154.755 297.746 155.994 297.803 157.107C297.794 157.264 297.823 157.421 297.885 157.563C297.947 157.705 298.042 157.828 298.16 157.919C298.506 158.111 298.916 157.784 299.104 157.413C299.726 156.181 299.257 154.202 300.425 153.608C300.646 153.496 300.914 153.448 301.062 153.236C301.295 152.9 301.07 152.402 301.188 152C301.366 151.396 302.122 151.369 302.702 151.396C303.701 151.441 304.7 151.296 305.653 150.966C306.027 150.869 306.367 150.654 306.63 150.348C306.979 149.872 306.948 149.195 306.878 148.59C306.529 145.572 305.654 142.656 304.301 139.998C305.327 140.141 306.443 140.265 307.329 139.681C307.824 139.353 308.419 138.375 308.173 137.709C307.784 136.656 307.082 137.543 306.21 137.367Z" fill="#3F3D56"/>
<path d="M174.677 153.963C174.8 154.683 174.921 155.44 174.705 156.133C174.489 156.826 173.81 157.405 173.169 157.193C172.672 157.028 172.384 156.481 172.031 156.065C170.066 153.747 165.634 155.089 164.42 152.222C163.925 151.052 164.261 149.65 163.923 148.415C163.71 147.701 163.286 147.085 162.718 146.663C162.149 146.241 161.468 146.037 160.782 146.084C160.157 146.182 159.548 146.381 158.975 146.673C155.138 148.352 151.109 149.453 147 149.945C146.219 149.997 145.447 150.151 144.699 150.403C143.012 151.071 141.859 152.78 141.039 154.524C140.219 156.268 139.613 158.156 138.513 159.705C137.357 161.334 135.737 162.474 134.226 163.707C133.644 164.117 133.159 164.672 132.812 165.326C132.484 166.061 132.503 166.916 132.528 167.733L132.837 177.653C132.877 178.929 132.927 180.251 133.449 181.393C134.102 182.819 135.392 183.753 136.286 185.013C137.199 186.307 137.675 187.907 137.632 189.54C137.613 190.197 137.554 190.974 138.022 191.386C138.307 191.588 138.64 191.693 138.979 191.687L151.262 192.785C153.423 192.979 155.817 193.296 157.228 195.095C157.894 195.944 158.428 197.164 159.448 197.255C159.886 197.294 160.311 197.098 160.749 197.06C161.852 196.965 162.822 197.88 163.434 198.888C164.36 200.425 164.781 202.26 164.626 204.092C164.526 205.242 164.199 206.36 164.129 207.513C163.861 211.899 167.265 215.709 167.33 220.105C167.369 222.69 166.246 225.105 165.151 227.398C166.918 230.323 165.471 234.219 166.175 237.639C166.842 240.884 169.319 243.424 169.936 246.68C170.218 248.171 170.234 250.006 171.438 250.774C171.966 251.055 172.551 251.183 173.137 251.146C176.674 251.191 180.171 250.322 183.341 248.608C184.829 247.801 186.371 246.597 186.631 244.804C186.84 243.359 186.169 241.742 186.852 240.483C187.657 238.999 189.718 239.117 190.902 237.976C192.823 236.125 191.325 232.595 192.104 229.929C192.803 227.532 195.211 226.259 196.405 224.109C196.875 223.184 197.212 222.185 197.405 221.149C197.951 218.671 198.292 216.144 198.422 213.6C198.453 212.054 198.558 210.51 198.734 208.976C200.021 200.24 207.926 194.39 210.492 185.998C210.737 185.196 210.852 184.129 210.2 183.675C209.813 183.474 209.374 183.423 208.957 183.533L203.295 184.313C202.592 184.41 201.846 184.501 201.2 184.181C200.554 183.862 200.092 182.97 200.434 182.292C201.396 180.388 199.418 177.983 198.539 176.033C196.172 170.781 193.353 165.787 190.121 161.118C189.914 160.878 189.785 160.571 189.752 160.243L191.359 160.301C190.817 158.174 189.922 155.847 188.031 155.069C186.965 154.631 185.785 154.783 184.648 154.85C181.391 155.045 177.9 154.508 174.677 153.963Z" fill="#3F3D56"/>
<path d="M184.651 106.038C185.503 107.027 186.458 108.075 187.691 108.248C189.868 108.552 191.434 106.092 192.431 103.955C192.468 104.499 192.698 105.007 193.072 105.369C193.446 105.732 193.935 105.92 194.435 105.895C194.972 105.796 195.485 105.577 195.942 105.252C200.256 102.675 205.089 101.31 210.006 101.279C209.959 100.872 210.051 100.461 210.265 100.124C210.48 99.7868 210.8 99.5485 211.166 99.4548C212.166 99.2383 213.066 100.183 213.548 101.164C214.031 102.144 214.331 103.281 215.098 104.016C215.864 104.75 217.347 104.718 217.65 103.655C217.94 102.634 216.967 101.763 216.158 101.162C215.35 100.56 214.497 99.4459 215.042 98.5577C219.173 97.5586 223.33 96.5557 227.557 96.3571C228.277 96.3844 228.994 96.2495 229.664 95.9605C230.309 95.6149 230.821 94.8303 230.648 94.0689C229.725 94.3058 228.759 94.2372 227.873 93.8718C226.986 93.5064 226.219 92.8607 225.669 92.0172C231.535 91.4883 237.774 91.0375 242.972 94.0531C243.596 95.5163 240.417 96.7336 241.268 98.0533C241.539 98.4742 242.083 98.5235 242.554 98.5331C246.166 98.6064 249.799 98.6782 253.371 98.0823C254.676 97.8646 255.995 97.5572 257.305 97.7338C259.488 98.0279 261.355 99.619 263.502 100.138C264.376 100.349 265.356 100.356 266.093 99.8007C266.83 99.2453 267.146 97.9807 266.542 97.2586C268.564 95.0936 271.92 95.6302 274.587 96.6667C277.255 97.7032 279.781 99.3747 282.604 99.6058C284.629 99.7715 286.681 99.1765 288.682 99.5547C289.939 99.7923 291.109 100.403 292.337 100.779C294.661 101.489 297.119 101.339 299.531 101.373C305.687 101.464 311.775 102.785 317.495 105.273C318.239 105.538 318.921 105.978 319.492 106.562C320.024 107.185 320.296 108.152 319.938 108.909L314.028 107.966C314.585 109.163 316.025 109.368 317.195 109.781C318.365 110.194 319.578 111.606 318.875 112.708C317.607 112.267 316.459 113.651 315.818 114.925C315.178 116.199 314.398 117.725 313.069 117.803C311.88 117.872 310.441 116.766 309.665 117.754C310.737 119.23 311.654 120.833 312.4 122.531C313.167 124.275 313.712 126.472 312.677 128.041C312.514 128.321 312.267 128.53 311.978 128.633C311.132 128.867 310.583 127.737 309.976 127.052C309.212 126.188 308.057 125.944 307.022 125.539C305.987 125.134 304.897 124.338 304.816 123.14C304.765 122.395 305.125 121.702 305.391 121.013C305.837 119.852 306.032 118.595 305.961 117.338C305.902 116.328 305.643 115.276 304.979 114.57C304.314 113.863 303.167 113.639 302.454 114.286C302.121 114.588 301.854 115.071 301.422 115.089C300.658 115.121 300.072 113.666 299.457 114.163C299.529 114.692 299.429 115.232 299.173 115.688C297.34 117.431 294.523 116.693 292.159 117.309C291.035 117.66 289.959 118.174 288.959 118.836C288.585 119.011 288.267 119.303 288.044 119.675C287.749 120.301 288.075 121.104 288.595 121.52C289.146 121.89 289.766 122.121 290.409 122.197C293.291 122.793 296.215 123.716 298.49 125.739C300.765 127.761 302.257 131.104 301.537 134.211L295.854 128.278C296.07 130.769 296.193 133.267 296.222 135.772C296.259 136.261 296.197 136.753 296.042 137.213C295.636 138.191 294.538 138.52 293.576 138.736C293.309 138.791 293.055 138.908 292.831 139.078C292.608 139.249 292.42 139.469 292.28 139.724C292.14 139.979 292.051 140.264 292.019 140.56C291.987 140.855 292.012 141.155 292.094 141.439C292.436 142.656 293.288 143.606 294.068 144.551C294.849 145.497 295.617 146.572 295.719 147.841C295.821 149.109 294.945 150.539 293.783 150.451C292.901 150.384 292.247 149.522 291.871 148.648C291.495 147.775 291.271 146.802 290.707 146.059C288.997 143.812 285.156 144.775 283.624 142.38C283.234 142.864 282.963 143.449 282.838 144.079C282.712 144.709 282.736 145.364 282.908 145.982C283.62 145.494 284.596 145.947 285.131 146.655C285.667 147.364 285.919 148.271 286.34 149.067C286.907 150.14 287.81 151.092 287.889 152.328C287.868 152.796 287.876 153.264 287.911 153.731C288.052 154.48 288.631 155.018 289.033 155.644C289.968 157.101 289.922 159.103 289.319 160.757C288.717 162.41 287.634 163.791 286.561 165.131C284.688 167.47 282.777 169.796 280.556 171.738C279.922 172.293 279.246 172.838 278.851 173.613C278.457 174.388 278.437 175.476 279.043 176.065C278.609 176.089 277.831 176.322 277.397 176.346C277.244 174.444 277.211 172.533 277.298 170.626C275.585 169.728 273.741 172.134 273.962 174.195C274.183 176.257 275.548 177.911 276.52 179.694C277.23 180.999 277.758 182.519 277.521 184.015C277.284 185.51 276.062 186.89 274.678 186.758C272.477 186.548 271.556 183.095 269.376 182.7C269.184 182.651 268.982 182.673 268.802 182.763C268.479 182.957 268.422 183.43 268.404 183.832C268.315 185.809 268.238 187.865 268.944 189.687C269.978 192.354 272.647 194.593 272.087 197.424C269.07 195.892 267.502 192.196 266.79 188.645C266.078 185.095 265.959 181.368 264.683 178.012C263.713 179.369 261.676 178.247 260.79 176.823C259.951 175.473 259.434 173.912 258.619 172.543C257.805 171.175 256.557 169.95 255.065 169.875C253.5 169.796 252.143 170.969 250.95 172.077C249.968 172.989 248.961 173.936 248.387 175.196C247.553 177.03 247.771 179.191 247.731 181.238C247.687 183.451 247.258 185.787 245.877 187.407C244.497 189.027 241.948 189.591 240.425 188.131C239.63 187.369 239.245 186.23 238.903 185.136C237.25 179.866 235.873 174.497 234.78 169.056C234.524 170.298 233.526 171.899 232.572 171.167C232.358 170.97 232.185 170.726 232.064 170.451C230.285 167.157 226.991 165.182 223.663 163.997C220.335 162.813 216.833 162.26 213.542 160.958C211.698 160.228 209.936 159.27 208.292 158.101C207.873 158.774 207.628 159.558 207.584 160.37C207.539 161.183 207.697 161.993 208.04 162.716C208.77 164.128 210.422 164.945 211.836 164.452C212.567 164.196 213.184 163.642 213.909 163.368C214.634 163.095 215.607 163.229 215.924 163.992C216.228 164.723 215.769 165.607 215.997 166.37C216.343 167.531 217.947 167.621 218.508 168.678C218.925 169.465 218.582 170.509 217.986 171.144C217.39 171.779 216.595 172.127 215.868 172.569C213.508 174.003 211.83 176.45 209.768 178.354C207.706 180.258 204.796 181.648 202.338 180.427C202.924 177.186 199.39 174.806 198.74 171.58C198.526 170.518 198.637 169.389 198.332 168.355C197.889 166.856 196.673 165.826 195.674 164.69C194.464 163.298 193.52 161.655 192.9 159.858C192.28 158.061 191.996 156.147 192.064 154.228C192.118 152.894 192.342 151.539 192.064 150.239C191.786 148.939 190.801 147.681 189.581 147.74C186.793 147.875 183.281 148.101 181.819 145.505C181.297 144.578 181.07 143.221 181.824 142.511C182.357 142.01 183.143 142.058 183.842 142.133L190.123 142.808C191.592 142.966 193.18 143.096 194.44 142.257C195.701 141.418 196.247 139.191 195.08 138.203C194.227 137.482 192.699 137.521 192.451 136.374C192.244 135.419 193.212 134.336 192.689 133.537C192.315 132.965 191.472 133.124 190.962 133.553C190.451 133.982 190.081 134.609 189.51 134.934C188.507 135.504 187.31 134.962 186.232 134.593C185.153 134.225 183.708 134.193 183.185 135.287C182.6 136.511 183.703 138.115 183.123 139.341C182.356 140.962 179.756 140.039 178.679 141.434C177.442 143.034 179.52 145.42 179.103 147.464C178.571 147.752 177.979 147.885 177.385 147.848C176.792 147.812 176.218 147.608 175.718 147.256C175.227 146.891 174.835 146.387 174.585 145.798C174.335 145.209 174.235 144.557 174.297 143.912C174.4 142.992 174.839 142.053 174.545 141.184C174.307 140.482 173.662 140.063 173.062 139.701L166.958 136.016C166.391 137.165 167.108 138.588 168.004 139.451C168.9 140.314 170.022 140.963 170.61 142.099C170.983 142.885 171.066 143.798 170.844 144.649C170.621 145.501 170.11 146.227 169.414 146.681C169.326 146.746 169.227 146.791 169.123 146.811C169.018 146.831 168.911 146.826 168.809 146.796C168.711 146.733 168.626 146.65 168.559 146.551C168.491 146.452 168.443 146.339 168.416 146.219C167.339 143.208 165.722 140.24 163.137 138.667C160.552 137.094 156.838 137.417 155.143 140.067C154.74 140.696 154.47 141.414 154.119 142.079C152.256 145.614 148.261 147.288 144.528 147.179C144.163 147.201 143.8 147.108 143.482 146.91C142.879 146.455 142.906 145.489 142.998 144.694L143.39 141.322C143.469 140.645 143.583 139.897 144.073 139.474C144.765 138.878 145.762 139.254 146.643 139.24C147.31 139.206 147.951 138.949 148.48 138.503C149.009 138.057 149.399 137.445 149.598 136.748C149.776 136.045 149.775 135.302 149.595 134.599C149.415 133.896 149.063 133.261 148.577 132.761C148.173 132.346 147.631 131.826 147.844 131.268C147.93 131.113 148.045 130.981 148.181 130.881C148.318 130.78 148.474 130.713 148.637 130.685C150.218 130.183 151.89 130.052 153.445 129.46C155 128.867 156.509 127.656 156.877 125.902C156.99 125.364 157.041 124.713 157.483 124.447C157.705 124.345 157.943 124.291 158.184 124.29C159.027 124.159 159.795 123.688 160.336 122.97C160.877 122.251 161.152 121.337 161.108 120.408C161.853 119.839 162.898 120.257 163.619 120.863C164.34 121.468 164.976 122.268 165.854 122.528C167.489 123.015 169.069 121.433 170.764 121.426C171.477 121.422 172.214 121.698 172.885 121.434C173.565 121.166 173.97 120.427 174.492 119.881C175.014 119.335 175.929 119.002 176.411 119.59L176.001 116.27C176.827 116.498 177.688 116.531 178.526 116.365C179.365 116.199 180.161 115.84 180.862 115.31L175.56 113.353C175.376 113.303 175.205 113.203 175.065 113.064C174.679 112.61 175.062 111.904 175.375 111.388C176.125 110.155 176.251 108.124 175.018 107.51C174.176 107.091 173.211 107.594 172.403 108.086L168.534 110.443C168.411 111.247 169.31 111.702 169.867 112.243C170.205 112.571 170.443 113.002 170.552 113.481C170.661 113.959 170.634 114.462 170.477 114.924C170.319 115.386 170.037 115.785 169.668 116.068C169.299 116.352 168.86 116.507 168.409 116.513C168.664 116.875 168.841 117.294 168.927 117.741C169.013 118.188 169.006 118.65 168.907 119.094L166.303 119.298C166.011 119.363 165.708 119.298 165.459 119.118C165.181 118.848 165.218 118.375 165.154 117.974C164.998 117.007 164.131 116.329 163.247 116.155C162.362 115.981 161.457 116.204 160.581 116.424C160.209 116.57 159.801 116.56 159.435 116.395C159.226 116.247 159.067 116.027 158.982 115.77C158.598 114.753 158.957 113.557 159.574 112.687C160.19 111.817 161.035 111.181 161.793 110.457C163.607 108.718 164.939 106.46 165.64 103.938C167.073 103.282 168.556 102.391 169.99 101.735C172.199 100.513 174.677 99.988 177.144 100.22L181.998 100.322C183.435 100.351 184.91 100.39 186.239 100.988C187.568 101.587 188.735 102.881 188.827 104.449C188.855 104.626 188.841 104.808 188.786 104.978C188.732 105.148 188.639 105.3 188.516 105.42C188.328 105.531 188.116 105.584 187.902 105.571C186.562 105.622 185.991 105.987 184.651 106.038Z" fill="#3F3D56"/>
<path d="M145.966 122.657C146.156 122.461 146.292 122.212 146.36 121.936C146.429 121.661 146.426 121.37 146.353 121.096C145.892 120.902 145.39 120.852 144.904 120.952C144.418 121.053 143.967 121.299 143.602 121.664C143.315 121.982 143.067 122.34 142.866 122.728C142.228 123.865 141.664 125.223 142.033 126.494C142.063 126.632 142.119 126.763 142.196 126.878C142.272 126.993 142.37 127.09 142.481 127.163C142.647 127.236 142.826 127.267 143.004 127.253C143.706 127.252 144.408 127.205 145.105 127.111C145.534 127.054 146.031 126.922 146.197 126.487C146.414 125.915 145.888 125.267 146.041 124.67C146.142 124.404 146.295 124.164 146.49 123.969C146.586 123.87 146.66 123.749 146.706 123.613C146.752 123.478 146.769 123.333 146.754 123.19C146.692 122.91 146.3 122.751 146.159 122.994" fill="#3F3D56"/>
<path d="M149.609 117.497C148.985 117.34 148.342 117.296 147.704 117.366C147.564 117.361 147.424 117.396 147.299 117.467C147.177 117.565 147.089 117.704 147.048 117.862C146.914 118.334 146.947 118.844 147.141 119.291C147.335 119.737 147.676 120.087 148.096 120.272C148.325 120.329 148.544 120.425 148.746 120.557C149.284 121.013 148.941 121.947 149.043 122.683C149.157 123.51 149.89 124.205 149.756 125.028C149.65 125.677 149.016 126.191 149.118 126.84C149.225 127.52 150.015 127.725 150.645 127.779C151.01 127.849 151.385 127.802 151.726 127.644C152.068 127.389 152.311 127.004 152.409 126.564C152.667 125.726 152.775 124.841 152.728 123.958C152.725 123.556 152.633 123.161 152.459 122.808C152.269 122.527 152.059 122.264 151.831 122.021C150.624 120.488 151.894 118.2 149.609 117.497Z" fill="#3F3D56"/>
<path opacity="0.8" d="M308.274 237.621C308.274 237.621 215.861 179.664 176.076 190.645C176.076 190.645 91.759 200.559 81.9872 222.369C81.9872 222.369 55.1845 130.857 45.4127 127.807" stroke="#FF5454" stroke-width="2" stroke-miterlimit="10"/>
<path opacity="0.8" d="M81.9872 222.37C97.4825 177.224 237.08 127.197 237.08 127.197C217.257 132.688 176.076 190.645 176.076 190.645C176.076 190.645 88.9671 121.401 45.4127 127.807C45.4127 127.807 237.219 134.67 308.274 237.621" stroke="#FF5454" stroke-width="2" stroke-miterlimit="10"/>
<path d="M45.4127 132.23C47.6485 132.23 49.461 130.25 49.461 127.807C49.461 125.364 47.6485 123.384 45.4127 123.384C43.1769 123.384 41.3644 125.364 41.3644 127.807C41.3644 130.25 43.1769 132.23 45.4127 132.23Z" fill="#FF5454"/>
<path d="M81.9872 226.793C84.223 226.793 86.0355 224.812 86.0355 222.37C86.0355 219.927 84.223 217.947 81.9872 217.947C79.7514 217.947 77.9389 219.927 77.9389 222.37C77.9389 224.812 79.7514 226.793 81.9872 226.793Z" fill="#FF5454"/>
<path d="M237.08 131.62C239.316 131.62 241.128 129.64 241.128 127.197C241.128 124.754 239.316 122.774 237.08 122.774C234.844 122.774 233.031 124.754 233.031 127.197C233.031 129.64 234.844 131.62 237.08 131.62Z" fill="#FF5454"/>
<path d="M308.274 242.044C310.51 242.044 312.323 240.064 312.323 237.621C312.323 235.179 310.51 233.198 308.274 233.198C306.039 233.198 304.226 235.179 304.226 237.621C304.226 240.064 306.039 242.044 308.274 242.044Z" fill="#FF5454"/>
<path d="M176.076 195.068C178.312 195.068 180.124 193.088 180.124 190.645C180.124 188.202 178.312 186.222 176.076 186.222C173.84 186.222 172.027 188.202 172.027 190.645C172.027 193.088 173.84 195.068 176.076 195.068Z" fill="#FF5454"/>
</g>
</svg>
