<svg width="350" height="350" viewBox="0 0 350 350" fill="none" xmlns="http://www.w3.org/2000/svg">
<circle cx="175" cy="175" r="175" fill="#CACACA"/>
<mask id="mask0" mask-type="alpha" maskUnits="userSpaceOnUse" x="0" y="0" width="350" height="350">
<circle cx="175" cy="175" r="175" fill="#CACACA"/>
</mask>
<g mask="url(#mask0)">
<path opacity="0.1" d="M207.564 41.0239C170.618 46.8403 133.725 44.3469 98.2337 40.72C62.7428 37.0932 27.3398 32.3571 -9.62128 33.7847C-33.3975 34.701 -59.876 39.0899 -76.4774 51.8465C-92.4576 64.1161 -94.9476 80.6732 -94.9787 95.6195C-95.0201 106.862 -93.9744 118.495 -85.4226 127.451C-79.4798 133.663 -70.3327 138.114 -63.4427 143.849C-39.4697 163.768 -46.7584 195.131 -62.4902 221.797C-69.872 234.308 -78.9001 246.611 -83.9266 259.416C-88.9531 272.221 -89.6208 285.942 -80.6239 296.384C-71.7097 306.739 -54.4664 312.574 -36.488 315.598C0.0279541 321.743 40.711 317.928 80.0741 312.758C167.192 301.274 253.408 283.371 339.439 265.512C371.27 258.9 403.24 252.259 433.907 242.729C450.938 237.423 468.28 230.821 479.28 220.543C493.257 207.521 493.609 189.71 480.139 179.066C457.538 161.221 406.383 165.181 388.901 144.78C379.283 133.547 383.471 118.292 391.127 104.817C407.542 75.9178 439.27 47.366 435.16 18.5538C432.323 -1.22019 410.679 -17.5844 381.669 -21.8479C351.262 -26.3139 312.21 -17.8448 294.702 2.05459C276.703 22.5569 240.187 35.873 207.564 41.0239Z" fill="#FF5454"/>
<path d="M238.08 150.259H91.3585V181.912H238.08V150.259Z" fill="#565661"/>
<path opacity="0.1" d="M238.08 150.259H91.3585V181.912H238.08V150.259Z" fill="black"/>
<path d="M108.912 182.954L109.943 267.456L95.8311 300.648L94.7389 182.954H108.912Z" fill="#BCBEC9"/>
<path d="M92.9063 156.336L235.755 157.137V180.711H92.9063V156.336Z" fill="#565661"/>
<path d="M223.533 182.954L235.755 184.56V299.365L223.533 264.249V182.954Z" fill="#BCBEC9"/>
<path d="M309.243 151.527H240.399V287.823H309.243V151.527Z" fill="#EFEFF0"/>
<path d="M303.735 155.313H245.907V260.082H303.735V155.313Z" fill="#565661"/>
<path opacity="0.1" d="M303.735 155.313H245.907V260.082H303.735V155.313Z" fill="black"/>
<path d="M303.735 157.46H245.907V180.711H303.735V157.46Z" fill="#565661"/>
<path d="M303.735 182.954H245.907V232.34H303.735V182.954Z" fill="#565661"/>
<path d="M303.735 235.389H245.907V284.776H303.735V235.389Z" fill="#565661"/>
<path opacity="0.1" d="M303.735 235.389H245.907V284.776H303.735V235.389Z" fill="black"/>
<path d="M248.319 296.698C250.377 296.698 252.046 294.711 252.046 292.261C252.046 289.81 250.377 287.823 248.319 287.823C246.26 287.823 244.592 289.81 244.592 292.261C244.592 294.711 246.26 296.698 248.319 296.698Z" fill="#565661"/>
<path d="M300.008 296.91C302.066 296.91 303.735 294.924 303.735 292.473C303.735 290.022 302.066 288.036 300.008 288.036C297.949 288.036 296.28 290.022 296.28 292.473C296.28 294.924 297.949 296.91 300.008 296.91Z" fill="#565661"/>
<path d="M90.8408 300.648H95.8311L94.4593 152.709H86.8807L90.8408 300.648Z" fill="#EFEFF0"/>
<path d="M235.755 151.527V299.365H240.399V152.709L235.755 151.527Z" fill="#EFEFF0"/>
<path d="M94.7026 179.264V184.56H235.755V180.711L94.7026 179.264Z" fill="#EFEFF0"/>
<path d="M104.264 141.587H283.085L309.072 149.603V154.252L86.0214 152.651V147.92L104.264 141.587Z" fill="white"/>
<path d="M86.0214 147.92L309.072 149.603V154.252L86.0214 152.651V147.92Z" fill="#BCBEC9"/>
<path d="M106.226 203.056L105.19 202.911C105.19 202.868 105.19 202.829 105.19 202.79C105.159 202.564 105.123 202.342 105.087 202.115C105.511 202.429 105.915 202.742 106.288 203.056H106.226Z" fill="url(#paint0_linear)"/>
<path d="M83.7282 277.527C84.4011 277.382 85.0844 277.261 85.7677 277.175C90.4607 276.552 95.2468 277.209 99.5479 279.065C99.1131 282.046 98.6834 285.128 99.6049 288.007C100.247 290.033 101.536 291.865 101.81 293.978C102.501 294.088 103.146 294.376 103.672 294.809C104.197 295.242 104.583 295.802 104.787 296.428C104.985 296.981 105.085 297.561 105.082 298.145C105.076 298.867 104.979 299.585 104.792 300.286C104.729 300.846 104.434 301.361 103.97 301.721C103.506 302.081 102.909 302.259 102.307 302.215C98.3003 302.64 94.3713 301.169 90.6441 299.727L83.3968 296.92C82.5479 296.592 81.6937 296.259 80.881 295.854C79.3395 295.078 77.9708 294.035 76.8484 292.782C76.6111 292.558 76.4445 292.278 76.367 291.971C76.2324 291.123 77.2988 290.616 77.9769 290.042C78.1755 289.867 78.3495 289.67 78.4946 289.454C79.297 288.325 79.3746 286.767 79.856 285.436C80.9949 282.277 84.515 280.242 85.7574 277.16C85.8247 276.991 85.8868 276.823 85.9386 276.649" fill="#A26565"/>
<path opacity="0.1" d="M105.082 298.144C105.076 298.866 104.979 299.585 104.792 300.286C104.729 300.846 104.434 301.36 103.97 301.721C103.506 302.081 102.909 302.258 102.307 302.215C98.3004 302.639 94.3713 301.168 90.6441 299.726L83.3969 296.919C82.5479 296.592 81.6937 296.259 80.881 295.854C79.3395 295.078 77.9708 294.035 76.8484 292.781C76.6111 292.558 76.4445 292.277 76.367 291.971C76.2324 291.122 77.2988 290.616 77.9769 290.042C78.1755 289.867 78.3495 289.669 78.4946 289.454C80.4928 289.854 82.9724 291.026 84.4995 291.479C86.0291 291.867 87.4978 292.44 88.8685 293.182C90.7735 294.32 92.1454 296.075 93.7605 297.522C95.3756 298.969 97.4618 300.286 99.7136 300.107C100.904 299.94 102.052 299.571 103.099 299.017L105.082 298.144Z" fill="black"/>
<path d="M96.5972 229.606C96.7319 230.044 96.7197 230.509 96.5624 230.94C96.4052 231.371 96.1102 231.747 95.7172 232.017C95.0391 232.408 94.1642 232.355 93.4913 232.779C92.6578 233.324 92.5388 234.405 92.3938 235.34C91.8762 238.557 90.1627 241.475 88.6977 244.432C87.2327 247.388 85.9955 250.615 86.5339 253.827C86.9014 256.007 88.0506 258.331 86.9739 260.294C86.7099 260.777 86.3165 261.206 86.0162 261.674C84.5409 263.969 85.3795 266.878 85.3226 269.549C85.3441 269.846 85.274 270.142 85.1207 270.403C84.8944 270.65 84.6159 270.85 84.3028 270.992C83.7772 271.352 83.3455 271.817 83.0399 272.354C82.7343 272.891 82.5626 273.485 82.5375 274.093C82.4939 275.307 82.6511 276.521 83.0034 277.691C83.0605 278.163 83.2844 278.604 83.6401 278.945C84.0523 279.198 84.5389 279.326 85.0327 279.311C88.2849 279.557 91.4751 280.279 94.4852 281.452C96.4471 282.214 98.3521 283.169 100.438 283.536C100.64 283.594 100.852 283.614 101.062 283.593C101.273 283.572 101.476 283.512 101.66 283.415C101.922 283.195 102.103 282.903 102.178 282.581C102.98 280.121 103.793 277.584 103.518 275.028C103.399 273.929 103.084 272.853 103.001 271.754C102.638 267.413 105.791 263.497 106.79 259.214C107.24 257.285 107.24 255.288 107.561 253.34C108.431 248.001 111.589 243.211 112.805 237.93C112.975 236.946 113.238 235.977 113.592 235.037C114.498 232.992 116.595 231.333 116.641 229.119C116.67 228.632 116.532 228.149 116.248 227.739C115.76 227.24 115.111 226.902 114.4 226.775C111.587 226.054 108.725 225.516 105.832 225.164C104.507 224.921 103.154 224.834 101.805 224.904C100.053 225.095 98.3696 225.649 96.8768 226.524C94.8786 227.672 96.1624 227.947 96.5972 229.606Z" fill="#454B69"/>
<path opacity="0.05" d="M96.5972 229.606C96.7319 230.044 96.7197 230.509 96.5624 230.94C96.4052 231.371 96.1102 231.747 95.7172 232.017C95.0391 232.408 94.1642 232.355 93.4913 232.779C92.6578 233.324 92.5388 234.405 92.3938 235.34C91.8762 238.557 90.1627 241.475 88.6977 244.432C87.2327 247.388 85.9955 250.615 86.5339 253.827C86.9014 256.007 88.0506 258.331 86.9739 260.294C86.7099 260.777 86.3165 261.206 86.0162 261.674C84.5409 263.969 85.3795 266.878 85.3226 269.549C85.3441 269.846 85.274 270.142 85.1207 270.403C84.8944 270.65 84.6159 270.85 84.3028 270.992C83.7772 271.352 83.3455 271.817 83.0399 272.354C82.7343 272.891 82.5626 273.485 82.5375 274.093C82.4939 275.307 82.6511 276.521 83.0034 277.691C83.0605 278.163 83.2844 278.604 83.6401 278.945C84.0523 279.198 84.5389 279.326 85.0327 279.311C88.2849 279.557 91.4751 280.279 94.4852 281.452C96.4471 282.214 98.3521 283.169 100.438 283.536C100.64 283.594 100.852 283.614 101.062 283.593C101.273 283.572 101.476 283.512 101.66 283.415C101.922 283.195 102.103 282.903 102.178 282.581C102.98 280.121 103.793 277.584 103.518 275.028C103.399 273.929 103.084 272.853 103.001 271.754C102.638 267.413 105.791 263.497 106.79 259.214C107.24 257.285 107.24 255.288 107.561 253.34C108.431 248.001 111.589 243.211 112.805 237.93C112.975 236.946 113.238 235.977 113.592 235.037C114.498 232.992 116.595 231.333 116.641 229.119C116.67 228.632 116.532 228.149 116.248 227.739C115.76 227.24 115.111 226.902 114.4 226.775C111.587 226.054 108.725 225.516 105.832 225.164C104.507 224.921 103.154 224.834 101.805 224.904C100.053 225.095 98.3696 225.649 96.8768 226.524C94.8786 227.672 96.1624 227.947 96.5972 229.606Z" fill="black"/>
<path d="M86.4666 302.292H82.0509L79.1624 247.002L78.9605 243.858L82.7135 242.628L82.9672 245.97L86.4666 302.292Z" fill="#565661"/>
<path opacity="0.1" d="M82.9672 245.97L79.1624 247.002L78.9605 243.858L82.7135 242.628L82.9672 245.97Z" fill="black"/>
<path d="M141.872 313.988L134.589 314.808L101.034 243.858L91.9849 243.241L76.0927 247.562L73.0022 332.036H65.7187L68.5865 244.475L51.1465 244.89L20.0246 317.07H13.4037L46.1355 232.712L47.3986 229.461L96.178 227.904L108.338 234.255L108.493 234.622L141.872 313.988Z" fill="#565661"/>
<path opacity="0.1" d="M108.493 234.622C98.0105 237.564 87.1292 240.776 87.1292 240.776C87.1292 240.776 77.2056 244.003 73.0022 240.776C72.4721 240.391 71.8798 240.086 71.2473 239.874C71.7928 240.237 72.3817 240.54 73.0022 240.776L46.1355 232.707L47.3934 229.461L96.1779 227.904L108.338 234.255L108.493 234.622Z" fill="black"/>
<path d="M58.8752 220.621L78.7379 216.507C78.7379 216.507 126.197 224.735 129.728 228.024C129.728 228.024 91.7623 235.22 87.5692 237.67C83.3761 240.12 58.43 242.83 58.8752 220.621Z" fill="white"/>
<path d="M50.3337 174.374C48.7807 178.96 44.5411 183.094 39.38 183.291C39.0044 183.332 38.6243 183.268 38.2877 183.108C37.6406 182.732 37.6251 181.849 37.8891 181.179C38.1531 180.508 38.6138 179.906 38.6863 179.201C38.7018 179.058 38.6913 178.913 38.6553 178.772C38.5207 178.198 38.0185 177.687 37.4284 177.808C37.8302 177.508 38.0979 177.08 38.1793 176.606C38.2606 176.133 38.1498 175.648 37.8684 175.247C37.6341 175 37.4229 174.736 37.2369 174.456C36.8072 173.636 37.475 172.715 37.7545 171.837C38.3291 169.908 36.8693 167.978 36.7503 165.967C36.6467 164.168 37.6251 162.475 37.8684 160.691C38.2567 157.797 36.714 155.024 36.5328 152.135C36.4086 150.119 36.9418 148.122 37.5371 146.179C38.0548 144.443 38.6397 142.687 38.676 140.874C38.676 139.557 38.4327 138.255 38.3654 136.943C38.258 135.744 38.4919 134.539 39.0435 133.451C39.4019 132.811 40.0123 132.326 40.7466 132.096C42.4446 131.565 43.5575 132.39 43.806 133.89C44.2201 136.441 43.982 139.046 44.5255 141.607C45.0281 144.002 45.7895 146.343 46.7981 148.595C47.7144 150.63 48.8273 152.598 49.5313 154.706C50.0614 156.443 50.4405 158.217 50.665 160.011C51.3587 164.829 51.9022 169.787 50.3337 174.374Z" fill="#FF5454"/>
<path d="M168.237 291.108C167.582 291.968 166.739 292.689 165.764 293.225C164.789 293.76 163.703 294.097 162.578 294.214C160.332 294.474 157.997 293.949 155.818 294.523C155.48 294.574 155.162 294.703 154.891 294.898C154.62 295.092 154.405 295.346 154.265 295.637C154.211 296.029 154.178 296.423 154.166 296.818C153.913 298.106 152.096 298.395 150.683 298.386L144.854 298.352C143.642 298.352 142.302 298.289 141.432 297.508C141.018 297.081 140.785 296.529 140.776 295.954C140.766 295.38 140.981 294.821 141.38 294.383C141.561 294.183 141.783 294.019 142.032 293.9C141.669 293.788 141.345 293.584 141.098 293.311C140.852 293.037 140.691 292.706 140.635 292.352C140.529 291.643 140.566 290.922 140.743 290.225C140.743 288.209 141.261 284.833 142.783 283.256C144.652 281.293 147.892 278.756 150.714 278.231C151.666 278.061 152.649 278.101 153.582 278.348C154.515 278.595 155.373 279.042 156.087 279.654C157.423 280.811 158.396 282.624 160.228 282.827C161.227 282.943 162.19 282.504 163.179 282.345C164.303 282.21 165.444 282.402 166.445 282.895C167.447 283.388 168.261 284.158 168.775 285.099C169.026 285.576 169.2 286.084 169.293 286.608C169.566 288.179 169.189 289.787 168.237 291.108Z" fill="#A26565"/>
<path opacity="0.1" d="M168.237 291.108C167.582 291.968 166.739 292.689 165.764 293.225C164.789 293.76 163.703 294.097 162.579 294.214C160.332 294.474 157.997 293.949 155.818 294.523C155.48 294.574 155.162 294.703 154.891 294.898C154.62 295.092 154.405 295.346 154.265 295.637C154.211 296.029 154.178 296.423 154.166 296.818C153.913 298.106 152.096 298.395 150.683 298.386L144.854 298.352C143.642 298.352 142.302 298.289 141.432 297.508C141.018 297.081 140.785 296.529 140.776 295.954C140.766 295.38 140.981 294.821 141.38 294.383C144.745 294.253 148.053 294.383 151.407 293.736C152.769 293.481 154.11 293.143 155.487 292.965C158.468 292.569 161.642 292.907 164.38 291.73C166.663 290.766 168.299 288.803 169.267 286.613C169.546 288.179 169.178 289.785 168.237 291.108Z" fill="black"/>
<path d="M152.857 283.483C150.786 284.978 148.358 286.145 145.749 286.271C143.14 286.396 140.371 285.306 139.092 283.194C137.223 280.092 138.88 275.781 136.592 272.935C135.877 272.043 134.847 271.411 134.092 270.548C133.336 269.685 132.901 268.387 133.574 267.471C132.761 267.76 131.902 267.027 131.664 266.246C131.426 265.464 131.576 264.625 131.431 263.834C131.053 261.736 128.842 260.391 127.781 258.529C126.72 256.667 126.865 254.251 126.746 252.047C126.481 246.677 124.336 241.536 120.637 237.409C119.933 236.628 119.033 235.832 117.935 235.871C118.127 234.106 116.864 232.418 115.228 231.53C113.592 230.643 111.646 230.344 109.751 230.17C90.6338 228.415 70.7141 235.037 52.4613 229.466C47.3831 227.918 42.486 225.328 39.38 221.267C38.1701 219.722 37.3046 217.966 36.8342 216.104C36.3639 214.242 36.2984 212.311 36.6416 210.425V210.358C37.3611 206.933 39.3023 206.089 42.517 204.527C46.2282 202.699 50.1071 201.183 54.1075 199.998C61.8724 197.736 70.2327 196.921 78.2461 198.58C81.9888 199.361 85.5969 200.654 89.3448 201.411C90.8201 201.71 92.3058 201.922 93.8019 202.101C96.1262 202.371 98.4608 202.549 100.801 202.8C108.282 203.603 115.651 205.147 122.781 207.406C125.436 208.245 128.092 209.205 130.375 210.724C132.18 211.946 133.707 213.49 134.866 215.267C136.025 217.044 136.793 219.018 137.125 221.074C137.342 222.492 137.348 223.968 137.679 225.342C137.993 226.498 138.408 227.627 138.921 228.718C143.345 238.908 146.959 249.385 149.735 260.068C149.893 260.861 150.185 261.626 150.6 262.334C151.262 263.333 152.401 264.003 153.069 265.001C154.622 267.355 153.126 270.639 154.503 273.089C154.979 273.938 155.771 274.609 156.248 275.458C157.8 278.24 155.507 281.568 152.857 283.483Z" fill="#454B69"/>
<path opacity="0.1" d="M126.404 228.067C127.14 227.525 127.775 226.873 128.283 226.138C128.793 225.4 128.996 224.513 128.853 223.645C129.055 224.743 128.978 225.87 128.628 226.935C128.278 228 127.666 228.975 126.839 229.78C125.54 231.019 123.102 232.234 121.202 231.81C121.471 230.392 125.198 229.022 126.404 228.067Z" fill="black"/>
<path opacity="0.1" d="M94.0607 204.03C93.9044 204.547 93.6125 205.019 93.2112 205.405C92.81 205.791 92.312 206.077 91.7623 206.239C90.6584 206.553 89.5027 206.679 88.3509 206.61H87.3155C73.7321 206.33 60.0037 203.524 46.736 206.2C45.137 206.507 43.5682 206.938 42.046 207.488C40.1066 208.2 38.2907 209.175 36.6571 210.382V210.314C37.3766 206.89 39.3179 206.046 42.5326 204.483C46.2403 202.671 50.1139 201.17 54.1075 199.998C61.8724 197.736 70.2327 196.921 78.2461 198.58C81.9888 199.361 85.5969 200.654 89.3448 201.411C90.8201 201.71 92.3058 201.922 93.8018 202.101C94.092 202.706 94.1821 203.377 94.0607 204.03Z" fill="black"/>
<path d="M94.0607 203.34C93.9056 203.858 93.6141 204.332 93.2128 204.719C92.8114 205.105 92.3128 205.392 91.7622 205.554C90.6586 205.869 89.5025 205.993 88.3509 205.921H87.3155C73.7321 205.641 60.0037 202.834 46.736 205.511C45.1377 205.818 43.5691 206.247 42.046 206.794C40.015 207.548 38.1206 208.589 36.4293 209.88C36.0325 208.864 35.6373 207.847 35.2439 206.827C34.7676 205.612 36.2792 205.342 36.5691 204.252C36.7606 203.514 36.4345 202.675 36.2689 201.889C36.2264 201.696 36.1987 201.501 36.186 201.305C36.0928 199.564 36.7606 198.561 38.2929 197.62C42.838 194.823 48.3821 192.903 53.5691 191.461C56.3267 190.649 59.1752 190.135 62.0588 189.928C66.138 189.706 70.212 190.41 74.1824 191.302C79.064 192.426 83.8938 193.911 88.2214 196.289C90.3439 197.442 92.4145 198.889 93.5585 200.943C94.0151 201.665 94.1923 202.511 94.0607 203.34Z" fill="#A26565"/>
<path opacity="0.1" d="M50.3337 174.374C48.7808 178.96 44.5411 183.093 39.38 183.291C39.0045 183.332 38.6243 183.268 38.2877 183.108C37.6407 182.732 37.6251 181.849 37.8892 181.179C38.1532 180.508 38.6139 179.906 38.6863 179.201C38.7018 179.058 38.6913 178.913 38.6553 178.772C41.3937 175.174 44.0493 171.538 45.1002 167.279C45.3129 166.546 45.3779 165.782 45.2917 165.027C45.1519 164.159 44.6809 163.372 44.422 162.533C43.9665 161.048 44.1787 159.476 44.3082 157.937C44.8472 151.162 43.6329 144.366 40.7674 138.12C40.0685 136.615 39.2713 135.091 39.028 133.485C39.3864 132.845 39.9968 132.359 40.7311 132.13C42.429 131.599 43.542 132.424 43.7905 133.924C44.2046 136.475 43.9665 139.079 44.51 141.64C45.0126 144.035 45.774 146.377 46.7826 148.629C47.6989 150.664 48.8118 152.632 49.5158 154.739C50.0459 156.477 50.425 158.251 50.6495 160.045C51.3587 164.829 51.9023 169.787 50.3337 174.374Z" fill="black"/>
<path opacity="0.1" d="M94.0607 203.34C93.9056 203.858 93.6141 204.332 93.2128 204.719C92.8114 205.105 92.3128 205.392 91.7623 205.554C90.6587 205.869 89.5025 205.993 88.3509 205.921H87.3155C82.8938 203.184 77.5779 201.989 72.3033 202.544C70.6157 202.733 68.9282 203.099 67.2406 202.954C63.8292 202.665 61.0649 200.379 58.0262 198.918C54.5684 197.327 50.6794 196.735 46.858 197.218C43.0367 197.701 39.4574 199.237 36.5795 201.628L36.2844 201.869C36.2419 201.677 36.2142 201.482 36.2016 201.286C36.1084 199.545 36.7762 198.541 38.3084 197.601C42.8535 194.804 48.3977 192.884 53.5847 191.442C56.3422 190.63 59.1908 190.115 62.0743 189.908C66.1535 189.687 70.2275 190.391 74.198 191.283C79.0795 192.407 83.9093 193.892 88.237 196.27C90.3439 197.442 92.4145 198.889 93.5585 200.943C94.0151 201.665 94.1923 202.511 94.0607 203.34Z" fill="black"/>
<path d="M105.672 150.51L105.599 150.684C104.44 153.486 102.307 155.854 100.94 158.584C99.2166 162.042 98.7921 165.919 98.4091 169.72C98.0778 172.975 97.7516 176.25 98.0156 179.515C98.6783 187.56 102.897 195.19 104.026 203.08C104.304 204.902 104.375 206.747 104.238 208.583C104.145 209.745 103.917 210.994 103.089 211.853C102.26 212.711 100.651 213.049 99.7602 212.224C100.159 211.515 100.563 210.811 100.966 210.102C98.6006 208.39 95.0391 209.62 92.2748 208.549C91.0583 208.067 90.0851 207.199 89.0653 206.422C86.7378 204.659 84.0555 203.347 81.1761 202.564C78.2967 201.78 75.2783 201.541 72.2982 201.86C70.6106 202.053 68.923 202.419 67.2354 202.275C63.824 201.98 61.0597 199.699 58.021 198.238C54.5634 196.648 50.675 196.056 46.854 196.538C43.033 197.02 39.4535 198.554 36.5743 200.943C35.8495 201.57 34.8763 202.303 33.986 201.908C33.6418 201.712 33.3638 201.429 33.1836 201.093C29.7929 195.696 32.288 188.737 35.9117 183.48C39.5353 178.223 44.334 173.375 45.8249 167.284C46.0402 166.551 46.1051 165.787 46.0164 165.032C45.8767 164.164 45.4056 163.378 45.1468 162.538C44.6912 161.053 44.9035 159.481 45.0329 157.942C45.576 151.167 44.3653 144.369 41.5024 138.12C40.6742 136.321 39.6906 134.498 39.6906 132.545C39.6906 129.468 42.0563 126.916 44.0131 124.442C46.2649 121.596 48.1544 118.447 51.0067 116.108C53.7089 113.885 57.6224 112.525 60.9665 113.653C66.6488 112.368 72.4976 111.837 78.3393 112.076C80.3582 112.163 82.4444 112.361 84.2148 113.272C86.1094 114.237 87.4709 115.954 89.3344 116.981C90.6959 117.738 92.2644 118.095 93.7449 118.626C97.8331 120.113 101.208 122.925 103.249 126.545C105.32 130.283 105.838 134.58 106.293 138.766C106.728 142.706 107.142 146.801 105.672 150.51Z" fill="#FF5454"/>
<path opacity="0.1" d="M98.0156 179.515C98.6783 187.56 102.897 195.19 104.026 203.08C101.769 201.3 98.6265 199.511 98.2072 197.442C97.7413 195.204 96.2504 192.272 96.0019 190.01C95.7535 187.748 97.4566 184.984 95.6706 183.431C94.801 182.674 97.1149 182.886 96.2659 182.11C94.3558 180.378 93.8847 177.711 93.7656 175.237C93.5637 170.858 94.1591 166.43 93.2946 162.124C92.7769 159.466 91.695 156.934 90.8305 154.354C89.8262 151.349 89.1015 148.272 88.3768 145.19C87.6635 142.45 87.1447 139.669 86.8238 136.866C86.6012 134.454 86.7047 131.898 87.8591 129.699C89.0135 127.5 91.3481 125.715 93.9675 125.749C102.726 125.855 101.215 136.919 103.141 142.031C103.912 144.066 104.952 146.034 105.372 148.156C105.525 148.988 105.608 149.83 105.62 150.674C104.461 153.476 102.328 155.844 100.961 158.574C99.2373 162.032 98.8128 165.91 98.4298 169.71C98.0778 172.975 97.7516 176.25 98.0156 179.515Z" fill="black"/>
<path d="M103.71 141.906C104.481 143.941 105.522 145.909 105.941 148.031C106.64 151.585 105.558 155.362 106.733 158.805C107.039 159.54 107.295 160.293 107.499 161.058C107.701 162.152 107.468 163.271 107.468 164.385C107.468 166.18 108.074 167.916 108.612 169.638C110.433 175.489 111.638 181.491 112.21 187.56C112.295 189.19 112.571 190.808 113.033 192.383C113.25 192.916 113.437 193.461 113.592 194.013C113.731 194.75 113.764 195.501 113.69 196.246C113.551 198.609 113.266 200.982 113.551 203.335C113.835 205.689 114.757 208.076 116.657 209.654C114.959 209.996 113.162 210.338 111.506 209.832C109.176 209.123 107.779 206.938 106.593 204.951C105.092 202.414 99.3874 200.128 98.7973 197.278C98.3366 195.045 96.8457 192.113 96.5972 189.846C96.3488 187.579 98.0467 184.825 96.2608 183.272C95.3963 182.515 97.7102 182.722 96.8561 181.951C94.9511 180.219 94.48 177.552 94.3609 175.073C94.1591 170.699 94.7492 166.271 93.8899 161.964C93.3722 159.307 92.2903 156.775 91.4258 154.19C90.4215 151.19 89.6968 148.113 88.9721 145.026C88.2567 142.287 87.7379 139.506 87.4191 136.702C87.1965 134.29 87.2948 131.729 88.4544 129.53C89.614 127.331 91.9486 125.551 94.5628 125.58C103.285 125.725 101.784 136.794 103.71 141.906Z" fill="#FF5454"/>
<path opacity="0.1" d="M78.7482 143.792C79.5662 144.684 80.617 145.663 81.8542 145.489C81.7603 145.628 81.6117 145.727 81.4404 145.765C81.2692 145.803 81.0888 145.776 80.9379 145.692C80.641 145.508 80.403 145.253 80.2495 144.954L78.479 142.171C78.2461 141.809 76.6414 139.702 76.2479 140.917C76.0926 141.433 78.3496 143.357 78.7482 143.792Z" fill="black"/>
<path opacity="0.1" d="M77.7957 150.732C77.7449 149.822 77.3335 148.963 76.6414 148.32C76.0191 147.794 75.293 147.387 74.5034 147.119C72.5622 146.377 70.2638 145.779 68.1569 145.875C68.923 146.917 71.3819 147.539 72.6139 148.127C74.3602 148.966 76.0875 149.835 77.7957 150.732Z" fill="black"/>
<path opacity="0.1" d="M83.3088 170.486C82.9517 172.956 80.7827 174.827 78.5878 176.274C76.3929 177.721 73.9288 178.965 72.4949 181.058C71.501 182.505 71.0558 184.184 70.212 185.693C69.2802 187.357 67.8877 188.756 66.7747 190.318C65.6617 191.881 64.7921 193.748 65.1337 195.6C65.1386 195.685 65.1623 195.768 65.2033 195.844C65.2442 195.921 65.3016 195.988 65.3719 196.043C65.4785 196.085 65.5949 196.101 65.71 196.089C65.8251 196.077 65.935 196.038 66.0293 195.976C68.2863 194.876 69.1767 192.363 70.124 190.188C71.1185 187.993 72.2382 185.848 73.4784 183.764C74.0375 182.799 74.6535 181.748 75.694 181.213C76.4065 180.936 77.1359 180.699 77.8786 180.504C78.932 180.054 79.8562 179.378 80.5756 178.531C83.4015 175.39 84.877 171.385 84.7169 167.289C84.6858 166.426 84.6341 162.268 83.2415 163.551C81.849 164.834 83.547 168.808 83.3088 170.486Z" fill="black"/>
<path d="M86.7202 75.7785C91.1721 77.5871 95.0029 81.5661 94.8631 86.0755C94.744 90.8116 90.4888 95.2729 91.9538 99.8112C92.8028 102.445 95.36 104.21 97.3841 106.211C105.092 113.812 105.077 127.08 97.3427 134.667C94.3816 137.56 90.5768 139.62 87.445 142.383C76.4032 152.077 75.9321 168.847 81.8439 181.864C77.3144 182.776 72.6976 183.261 68.0637 183.311C65.8947 183.311 63.2391 182.968 62.4522 181.082C61.7275 179.341 62.9699 176.988 61.5411 175.7C60.8682 175.097 59.8587 175.015 58.9528 174.875C53.1239 173.998 48.3407 169.662 46.1562 164.554C43.9717 159.447 44.0855 153.698 45.3383 148.325C46.2287 144.443 47.6212 140.17 45.5557 136.697C42.9674 132.327 35.5234 130.485 35.6373 125.489C35.7305 121.394 40.9123 119.402 43.8526 116.359C49.2777 110.754 46.6946 102.059 46.6842 94.506C46.6842 87.86 49.1793 81.0018 54.4906 76.5743C62.3901 69.9332 77.6042 72.089 86.7202 75.7785Z" fill="#464353"/>
<g opacity="0.1">
<path opacity="0.1" d="M46.4047 131.744C44.1322 127.924 38.1635 126.033 36.7762 122.276C36.0821 123.153 35.692 124.207 35.658 125.296C35.5441 130.292 42.9778 132.134 45.5764 136.509C46.4298 138.057 46.7891 139.801 46.6118 141.534C47.4297 138.178 48.1492 134.676 46.4047 131.744Z" fill="black"/>
<path opacity="0.1" d="M92.5491 93.628C93.4809 91.0959 94.832 88.5398 94.8993 85.9113C94.9087 85.6265 94.9001 85.3414 94.8734 85.0576C93.8329 87.961 92.2385 90.7776 92.5491 93.628Z" fill="black"/>
<path opacity="0.1" d="M47.2951 107.118C49.0758 101.875 47.5384 95.3741 47.5332 89.5577C47.5332 88.8535 47.5643 88.1446 47.6212 87.4404C47.0079 89.6882 46.6983 91.9986 46.6998 94.3179C46.7101 98.4705 47.4918 102.975 47.2951 107.118Z" fill="black"/>
<path opacity="0.1" d="M98.2071 129.732C95.2461 132.626 91.4413 134.686 88.3094 137.449C82.7187 142.354 79.8456 149.072 79.1261 156.196C80.4617 150.891 83.1587 146.005 87.4812 142.209C90.5872 139.46 94.4179 137.411 97.3789 134.493C100.901 130.917 102.946 126.292 103.151 121.442C102.257 124.541 100.559 127.388 98.2071 129.732Z" fill="black"/>
<path opacity="0.1" d="M68.9282 178.362C66.7592 178.362 64.1036 178.015 63.3167 176.129C62.592 174.393 63.8344 172.04 62.4056 170.747C61.7327 170.144 60.7181 170.062 59.8173 169.922C53.9936 169.049 49.2104 164.709 47.0259 159.606C45.416 155.835 45.0691 151.721 45.4729 147.66C45.4315 147.819 45.3953 147.978 45.359 148.142C44.127 153.515 43.9976 159.268 46.1769 164.376C48.3563 169.483 53.1447 173.819 58.9684 174.692C59.8898 174.832 60.9044 174.919 61.5567 175.517C63.001 176.809 61.743 179.163 62.4678 180.899C63.2546 182.785 65.9102 183.156 68.0792 183.132C72.7131 183.083 77.3298 182.598 81.8594 181.685C81.2205 180.278 80.6624 178.841 80.1874 177.379C76.4697 177.994 72.7039 178.323 68.9282 178.362Z" fill="black"/>
</g>
<path opacity="0.1" d="M85.8816 157.329C87.1603 158.227 88.5476 154.807 87.7556 153.953C87.5433 154.175 85.6849 157.204 85.8816 157.329Z" fill="black"/>
<path opacity="0.1" d="M91.3326 219.227C92.839 218.745 94.4386 218.262 95.4222 217.105C96.2349 216.174 96.9027 212.48 95.184 214.25C93.7242 215.769 93.0357 217.77 91.3326 219.227Z" fill="black"/>
<path opacity="0.1" d="M106.671 215.354C106.49 216.492 106.153 217.674 105.289 218.494C105.128 218.648 104.771 218.745 104.725 218.537C105.69 218.058 106.588 217.469 107.396 216.782C109.145 215.166 109.384 211.187 106.718 210.131C106.692 211.877 106.956 213.579 106.671 215.354Z" fill="black"/>
<path d="M125.084 208.182C125.084 208.182 110.393 202.805 105.082 203.359C99.7705 203.914 111.097 211.713 111.097 211.713L117.868 215.967C117.868 215.967 122.009 214.52 122.284 214.409C122.558 214.298 125.084 208.182 125.084 208.182Z" fill="#454B69"/>
<path d="M24.0002 150.491C24.0002 150.491 35.0368 144.529 49.6038 151.937C64.1709 159.345 66.5987 202.94 66.5987 202.94C66.5987 202.94 60.6404 247.354 83.6143 237.472C83.6143 237.472 125.545 225.342 129.743 228.014C129.743 228.014 133.719 228.014 125.773 229.659C117.827 231.304 87.1292 240.366 87.1292 240.366C87.1292 240.366 77.2056 243.597 73.0022 240.366C68.7988 237.135 56.8873 240.781 55.3395 218.566C54.3152 204.567 52.4731 190.631 49.8213 176.819L45.7265 165.509L24.0002 150.491Z" fill="#565661"/>
<path d="M22.675 219.179C22.675 219.179 27.5307 174.142 19.569 157.894C12.6427 143.734 39.4266 150.355 46.415 152.285C47.4966 152.586 48.4399 153.214 49.0965 154.069C53.2378 159.495 68.0947 181.242 63.7153 210.338C63.7153 210.338 61.9501 236.252 72.9866 240.361L38.9814 230.156C36.2222 229.326 33.4217 228.637 30.5952 228.038C26.9923 227.276 21.122 225.111 22.675 219.179Z" fill="white"/>
<path d="M264.532 303.257H268.948L271.842 247.967L272.038 244.822L268.285 243.593L268.037 246.935L264.532 303.257Z" fill="#565661"/>
<path opacity="0.1" d="M268.037 246.935L271.842 247.967L272.038 244.822L268.285 243.593L268.037 246.935Z" fill="black"/>
<path d="M227.664 281.906C227.556 282.663 227.347 283.405 227.043 284.115C226.729 285.041 226.055 285.826 225.154 286.314C224.548 286.547 223.899 286.667 223.243 286.666C220.805 286.801 218.227 286.767 216.131 285.61C215.238 285.074 214.419 284.437 213.693 283.714C208.981 279.353 204.699 274.608 200.896 269.535C200.259 268.681 199.602 267.673 199.886 266.641C204.812 265.368 209.49 263.374 213.744 260.733C214.331 260.313 214.989 259.987 215.691 259.768C216.892 259.529 218.129 259.487 219.345 259.643C220.52 259.822 220.572 259.855 221.023 261.09C221.768 263.178 221.644 265.431 222.482 267.519C223.015 268.673 223.663 269.778 224.418 270.818C226.582 274.189 228.244 278.168 227.664 281.906Z" fill="#A26565"/>
<path opacity="0.1" d="M227.664 281.906C227.556 282.663 227.347 283.405 227.043 284.115C226.729 285.042 226.055 285.826 225.154 286.314C224.548 286.547 223.899 286.667 223.243 286.666C220.805 286.801 218.227 286.767 216.131 285.61C215.238 285.074 214.419 284.437 213.692 283.715C208.981 279.353 204.699 274.608 200.896 269.535C200.259 268.681 199.602 267.673 199.886 266.641C201.493 266.226 203.076 265.734 204.628 265.166L204.706 265.219C206.295 266.275 207.449 267.789 208.573 269.275L212.196 274.025C212.842 274.958 213.605 275.816 214.469 276.581C215.54 277.382 216.722 278.044 217.984 278.549C219.687 279.316 221.39 280.083 223.161 280.7C224.305 281.129 226.241 281.298 227.664 281.906Z" fill="black"/>
<path d="M231.008 230.402C230.652 231.203 230.218 231.973 229.714 232.702C224.903 240.23 221.191 248.322 218.678 256.764C217.963 256.614 217.559 257.521 217.565 258.211C217.57 258.9 217.565 259.769 216.881 260.019C216.679 260.092 216.452 260.092 216.255 260.174C215.82 260.357 215.696 260.873 215.634 261.317L215.023 265.493C214.811 266.94 214.624 268.508 215.385 269.786C215.91 270.545 216.591 271.201 217.389 271.715L227.493 279.142C227.907 279.446 228.42 279.769 228.917 279.6C230.051 279.215 229.046 277.324 229.952 276.557C230.553 276.031 231.505 276.427 232.339 276.364C233.426 276.287 234.249 275.356 234.523 274.377C234.716 273.38 234.735 272.361 234.58 271.358C234.512 270.901 234.569 270.434 234.746 270.003C235.055 269.546 235.48 269.166 235.983 268.898C237.736 267.705 239.149 266.13 240.097 264.311C241.046 262.491 241.501 260.483 241.424 258.462C241.341 257.846 241.366 257.222 241.496 256.614C241.707 256.058 242.024 255.541 242.433 255.09C246.103 250.465 249.163 245.444 252.201 240.433C253.951 237.54 255.732 234.602 256.343 231.342C256.396 231.221 256.418 231.09 256.407 230.959C256.396 230.829 256.353 230.702 256.28 230.59C256.208 230.478 256.109 230.383 255.99 230.312C255.871 230.242 255.737 230.198 255.597 230.185C254.081 229.744 252.535 229.399 250.969 229.153C246.212 228.255 241.62 226.871 236.992 225.54C232.365 224.209 232.401 226.92 231.008 230.402Z" fill="#454B69"/>
<path d="M209.127 314.953L216.415 315.773L249.965 244.822L259.014 244.205L274.911 248.526L277.997 333H285.28L282.412 245.44L299.852 245.855L330.974 318.035H337.595L304.863 233.677L303.605 230.426L254.821 228.868L242.661 235.22L242.506 235.587L209.127 314.953Z" fill="#565661"/>
<path opacity="0.1" d="M242.506 235.587C252.988 238.529 263.87 241.741 263.87 241.741C263.87 241.741 273.793 244.967 277.997 241.741C278.527 241.355 279.119 241.051 279.751 240.839C279.206 241.202 278.617 241.504 277.997 241.741L304.863 233.672L303.621 230.426L254.836 228.868L242.676 235.22L242.506 235.587Z" fill="black"/>
<path d="M292.123 221.585L272.261 217.471C272.261 217.471 224.802 225.699 221.271 228.989C221.271 228.989 259.236 236.184 263.429 238.634C267.623 241.084 292.569 243.795 292.123 221.585Z" fill="white"/>
<path d="M218.419 287.698C217.223 289.82 214.277 290.418 211.689 290.452C208.096 290.494 204.526 289.899 201.17 288.701C199.255 288.016 197.417 287.134 195.44 286.632C192.494 285.88 189.228 285.943 186.639 284.433C185.267 283.58 184.133 282.435 183.332 281.091C183.181 280.854 183.036 280.608 182.902 280.358C181.665 278.115 181.09 275.506 181.779 273.085C182.467 270.664 184.967 267.996 187.866 268.035C191.309 268.083 195.414 269.603 198.737 270.389C202.879 271.353 207.02 272.467 210.68 274.507C213.744 276.224 216.452 278.689 217.896 281.698C218.174 282.279 218.402 282.879 218.579 283.493C219.03 284.882 219.133 286.43 218.419 287.698Z" fill="#A26565"/>
<path opacity="0.1" d="M218.419 287.698C217.223 289.82 214.277 290.418 211.689 290.452C208.096 290.494 204.526 289.899 201.17 288.701C199.255 288.017 197.417 287.134 195.44 286.632C192.494 285.88 189.228 285.943 186.639 284.433C185.267 283.58 184.133 282.435 183.332 281.091C183.181 280.854 183.037 280.608 182.902 280.358C183.42 280.396 183.896 280.444 184.155 280.469C187.333 280.753 190.367 281.833 193.4 282.649C197.611 283.782 201.96 284.414 206.342 284.53C209.448 284.612 212.688 284.399 215.401 282.986C216.211 282.51 217.051 282.08 217.917 281.698C218.194 282.279 218.423 282.879 218.6 283.493C219.03 284.882 219.133 286.43 218.419 287.698Z" fill="black"/>
<path d="M240.663 195.995C233.933 194.968 227.079 194.717 220.256 194.466L211.912 194.157C211.318 194.093 210.717 194.161 210.157 194.355C209.674 194.644 209.216 194.967 208.785 195.32C207.946 195.85 206.875 195.908 205.865 195.961C198.705 196.329 191.583 197.19 184.558 198.537C180.935 199.226 177.171 200.128 174.449 202.458C171.57 204.922 170.307 208.679 170.209 212.316C170.111 215.952 171.135 219.526 172.217 223.018C173.595 227.221 174.356 231.579 174.48 235.972C174.431 237.191 174.481 238.412 174.63 239.623C174.871 240.78 175.237 241.911 175.722 242.999L179.532 252.476C179.868 253.306 180.2 254.131 180.567 254.941C180.935 255.751 181.287 256.388 181.603 257.15C182.069 258.192 182.436 259.272 182.804 260.347L185.34 267.77L185.671 268.735C186.588 271.406 187.525 274.127 189.254 276.422C190.983 278.718 193.659 280.57 196.667 280.71C197.637 280.676 198.609 280.7 199.576 280.782C200.4 280.97 201.2 281.24 201.962 281.588C204.221 282.462 206.645 282.903 209.091 282.885C211.342 282.885 213.843 282.301 215.064 280.536C215.737 279.572 215.913 278.385 216.1 277.247C216.426 274.961 216.742 272.574 215.908 270.403C215.39 269.106 214.521 267.992 213.92 266.714C213.082 264.973 212.807 263.048 212.264 261.211C211.087 257.256 208.694 253.708 205.379 251.005C204.201 246.662 203.337 242.251 202.791 237.8C202.715 236.815 202.504 235.842 202.164 234.906C201.559 233.46 200.332 232.288 199.819 230.812C199.338 229.442 199.483 227.86 198.608 226.679C205.891 228.545 213.102 228.125 220.665 228.014C223.087 228.022 225.507 227.893 227.913 227.629C229.034 227.437 230.169 227.324 231.309 227.291C233.648 227.291 235.843 228.256 237.992 229.104C244.064 231.516 250.462 233.411 257.057 233.672C263.864 233.937 270.594 232.447 277.246 230.971C280.171 230.32 283.209 229.616 285.529 227.826C287.848 226.037 289.152 222.811 287.723 220.356C286.636 218.508 284.385 217.602 282.283 216.83C276.464 214.689 270.615 212.6 265.008 210.01C256.446 206.123 250.043 197.442 240.663 195.995Z" fill="#454B69"/>
<path d="M228.663 174.176C227.851 175.816 226.484 177.157 225.474 178.7C223.786 181.24 223.229 184.295 223.921 187.212C224.285 188.655 225 190 226.009 191.145C227.019 192.289 228.297 193.203 229.745 193.815C231.038 194.295 232.398 194.6 233.783 194.722C235.605 194.929 237.546 194.973 239.156 194.153C240.361 193.479 241.35 192.516 242.019 191.365C243.411 189.195 244.204 186.749 244.928 184.314C246.269 179.819 247.413 175.208 247.247 170.544C247.19 168.938 246.849 167.13 245.42 166.204C244.683 165.807 243.865 165.557 243.018 165.471L236.19 164.332C234.87 164.111 232.566 163.209 231.422 164.096C230.278 164.983 230.19 167.607 229.994 168.837C229.683 170.655 229.492 172.502 228.663 174.176Z" fill="#FDB797"/>
<path d="M311.66 155.521L309.874 169.469C309.504 171.956 309.292 174.462 309.237 176.973C309.237 178.372 309.284 179.925 308.29 180.971C307.804 181.448 307.189 181.793 306.509 181.97C304.34 182.597 301.975 182.037 299.904 181.174C298.693 180.692 297.455 179.992 296.907 178.869C296.588 178.089 296.455 177.255 296.519 176.423C296.519 168.104 297.362 159.427 302.026 152.338C302.424 151.642 302.985 151.039 303.667 150.572C304.962 149.801 306.654 150.018 308.119 150.437C309.02 150.693 311.453 150.978 312.028 151.725C312.602 152.473 311.784 154.561 311.66 155.521Z" fill="#A1616A"/>
<path d="M264.278 105.083C274.571 105.083 282.914 97.3091 282.914 87.72C282.914 78.1309 274.571 70.3574 264.278 70.3574C253.986 70.3574 245.643 78.1309 245.643 87.72C245.643 97.3091 253.986 105.083 264.278 105.083Z" fill="#FDB797"/>
<path d="M259.293 113.595C259.226 114.946 258.832 116.265 258.139 117.453C267.654 116.103 277.144 114.598 286.61 112.939C283.47 111.435 281.095 108.834 280.005 105.705C279.49 104.027 279.208 102.294 279.166 100.549C279.016 97.782 279.073 95.0085 279.337 92.2488C276.024 92.5719 272.887 93.7294 269.729 94.7229C266.555 95.7226 263.325 96.5646 260.054 97.2453C258.476 97.5733 256.886 97.853 255.292 98.1135C253.428 98.4221 252.533 98.4173 253.827 99.9414C257.3 104.012 259.78 108.15 259.293 113.595Z" fill="#FDB797"/>
<path d="M265.019 111.275C262.56 111.618 259.982 112.003 258.02 113.421C257.273 114.019 256.563 114.655 255.892 115.326C251.994 118.852 246.492 120.27 241.76 122.759C240.988 123.114 240.305 123.615 239.752 124.23C239.234 124.9 238.97 125.754 238.426 126.419C237.795 127.191 236.796 127.673 236.304 128.527C235.812 129.38 235.921 130.287 235.869 131.194C235.75 133.186 234.943 135.076 234.316 136.981C231.443 146.102 233.017 156.273 228.668 164.887C228.868 165.383 229.174 165.836 229.568 166.219C229.961 166.602 230.433 166.907 230.957 167.115C232.051 167.482 233.193 167.711 234.352 167.795L243.986 168.909C245.363 169.068 246.823 169.218 248.081 168.683C246.93 171.638 246.116 174.698 245.653 177.812C245.419 179.716 245.056 181.604 244.566 183.465C243.241 187.709 239.907 191.244 235.957 193.661C235.46 193.903 235.04 194.264 234.741 194.707C234.223 195.672 234.989 196.752 235.533 197.697C237.112 200.437 236.894 203.726 236.873 206.832C236.853 209.938 237.189 213.348 239.519 215.576C240.896 216.893 242.78 217.606 244.612 218.286L259.682 223.896C262.168 224.882 264.733 225.688 267.353 226.307C271.324 227.151 275.45 227.117 279.524 226.953C282.215 226.847 284.904 226.686 287.589 226.471C288.657 226.468 289.706 226.21 290.638 225.723C291.44 225.134 292.057 224.354 292.424 223.466C294.52 219.217 295.224 214.259 298.475 210.7C300.706 208.255 304.17 206.301 304.423 203.104C304.542 201.512 303.781 199.964 303.771 198.368C303.771 196.405 304.874 194.538 304.806 192.58C304.666 189.392 301.441 186.962 300.929 183.807C299.624 175.811 303.983 167.824 306.659 160.132C307.141 158.757 307.762 157.238 309.18 156.649C310.599 156.061 312.597 156.37 313.104 155.067C314.383 151.798 314.688 147.963 314.523 144.486C314.43 142.475 313.663 140.507 313.751 138.491C313.814 137.073 314.3 135.694 314.43 134.281C314.626 132.144 314.021 130.022 313.394 127.958C313.213 127.221 312.942 126.506 312.587 125.826C312.204 125.21 311.753 124.632 311.241 124.104L308.72 121.312C307.539 120.005 306.292 118.649 304.578 117.989C304.025 116.711 302.254 115.828 300.986 115.124C299.708 114.448 298.387 113.844 297.031 113.315L282.775 107.451C282.242 107.201 281.671 107.028 281.082 106.939C280.214 106.912 279.352 107.078 278.566 107.422C274.218 109.028 269.678 110.629 265.019 111.275Z" fill="#FF5454"/>
<path d="M249.918 90.7393C249.37 88.9404 247.967 87.3874 247.755 85.5257C247.563 83.8715 248.345 82.2702 248.79 80.6594C249.235 79.0485 249.22 77.0808 247.848 76.0101C247.62 75.8268 247.33 75.6628 247.247 75.3927C247.082 74.9104 247.605 74.4716 247.765 73.9844C248.06 73.0198 246.781 71.954 247.247 71.028C247.511 70.5216 248.174 70.3431 248.754 70.184C250.969 69.5715 253.216 68.2114 253.697 66.1038C255.432 66.779 257.28 65.5105 258.61 64.2807C259.94 63.0508 261.576 61.6474 263.409 62.0187L263 62.7952C265.825 61.8395 268.916 61.8072 271.764 62.7036H270.894C273.392 62.743 275.815 63.5067 277.826 64.8884C277.603 64.8884 277.582 65.1971 277.67 65.3707C278.395 66.9478 280.259 67.7821 282.055 68.1728C283.137 68.414 284.312 68.5876 285.104 69.311C285.896 70.0345 285.912 71.544 284.866 71.8913C286.998 72.6648 289.018 73.6857 290.876 74.9297C291.394 75.2818 291.979 75.7593 291.911 76.3766C291.837 76.6866 291.73 76.9887 291.59 77.2785C291.487 77.7933 291.524 78.324 291.699 78.8218L292.274 81.0308C292.905 83.4856 293.402 86.4421 291.482 88.2217C292.201 89.4732 292.467 90.9072 292.243 92.3111C292.018 93.715 291.314 95.014 290.234 96.0156C290.386 96.4465 290.439 96.9026 290.388 97.3538C290.338 97.805 290.185 98.2411 289.941 98.6334C289.696 99.0257 289.365 99.3653 288.97 99.6299C288.574 99.8944 288.123 100.078 287.646 100.168C288.282 101.094 287.698 102.416 286.693 102.994C285.689 103.573 284.426 103.578 283.256 103.477C282.086 103.375 280.901 103.129 279.731 103.293C278.028 103.539 276.361 104.62 274.72 104.137C274.108 103.894 273.521 103.6 272.965 103.26C271.816 102.686 270.48 102.556 269.207 102.295C267.036 101.86 264.974 101.042 263.134 99.8836C261.915 99.2006 260.943 98.1926 260.344 96.9898C259.205 94.3083 261.121 90.7924 259.107 88.6076C257.927 87.3343 255.587 87.315 254.267 88.405C253.609 88.95 253.521 90.0979 252.838 90.5078C251.885 90.7325 250.899 90.8107 249.918 90.7393Z" fill="#464353"/>
<path opacity="0.1" d="M224.594 229.032C223.859 228.489 223.224 227.838 222.715 227.103C222.205 226.364 222.003 225.477 222.146 224.609C221.944 225.707 222.021 226.834 222.371 227.9C222.72 228.965 223.333 229.939 224.16 230.744C225.459 231.984 227.897 233.199 229.797 232.775C229.528 231.357 225.801 229.987 224.594 229.032Z" fill="black"/>
<path d="M326.998 151.455C326.998 151.455 315.962 145.494 301.395 152.902C286.828 160.31 284.4 203.905 284.4 203.905C284.4 203.905 290.358 248.319 267.384 238.437C267.384 238.437 225.454 226.307 221.256 228.979C221.256 228.979 217.28 228.979 225.226 230.624C233.172 232.268 263.87 241.33 263.87 241.33C263.87 241.33 273.793 244.562 277.997 241.33C282.2 238.099 294.111 241.745 295.659 219.531C296.683 205.532 298.526 191.596 301.177 177.784L305.272 166.474L326.998 151.455Z" fill="#565661"/>
<path d="M328.324 220.143C328.324 220.143 323.468 175.107 331.43 158.858C338.356 144.698 311.572 151.32 304.584 153.249C303.502 153.55 302.559 154.178 301.902 155.034C297.761 160.46 282.904 182.206 287.283 211.303C287.283 211.303 289.049 237.216 278.012 241.326L312.017 231.12C314.776 230.291 317.577 229.601 320.403 229.003C324.006 228.241 329.877 226.075 328.324 220.143Z" fill="white"/>
<path d="M390.692 181.092C409.597 193.834 417.47 213.763 417.47 213.763C417.47 213.763 394.693 213.034 375.783 200.292C356.873 187.55 349.009 167.626 349.009 167.626C349.009 167.626 371.792 168.355 390.692 181.092Z" fill="#FF5454"/>
<path d="M349.009 167.626C349.009 167.626 372.651 179.853 380.24 189.976C387.829 200.099 417.47 213.763 417.47 213.763" stroke="#535461" stroke-width="2" stroke-miterlimit="10"/>
<path d="M193.328 143.521V144.621H158.328V143.729C159.288 143.394 160.196 142.943 161.031 142.388C162.517 141.397 163.728 140.089 164.564 138.574C165.399 137.06 165.835 135.381 165.835 133.678C165.835 132.788 165.715 131.902 165.477 131.04C165.054 129.489 164.263 128.045 163.163 126.816C162.063 125.587 160.682 124.603 159.12 123.936H193.09C191.528 124.603 190.147 125.587 189.047 126.816C187.947 128.045 187.156 129.489 186.733 131.04C186.497 131.902 186.378 132.788 186.381 133.678C186.379 135.381 186.814 137.059 187.649 138.574C188.483 140.089 189.694 141.396 191.179 142.388C191.851 142.835 192.571 143.214 193.328 143.521Z" fill="#DFE6F5"/>
<path opacity="0.1" d="M193.09 123.936C191.528 124.603 190.147 125.587 189.047 126.816C187.947 128.045 187.156 129.489 186.733 131.04H165.477C165.054 129.489 164.264 128.045 163.164 126.816C162.064 125.587 160.682 124.603 159.121 123.936H193.09Z" fill="black"/>
<path d="M118.256 118.317V124.509C118.256 127.924 120.938 130.697 124.251 130.697H227.219C230.532 130.697 233.219 127.924 233.219 124.509V118.317H118.256Z" fill="#DFE6F5"/>
<path opacity="0.1" d="M193.328 143.522V144.621H158.328V143.729C159.288 143.394 160.196 142.943 161.031 142.388H191.179C191.851 142.835 192.571 143.215 193.328 143.522Z" fill="black"/>
<path d="M203.137 142.73H148.519C147.55 142.73 146.764 143.461 146.764 144.363C146.764 145.265 147.55 145.996 148.519 145.996H203.137C204.107 145.996 204.892 145.265 204.892 144.363C204.892 143.461 204.107 142.73 203.137 142.73Z" fill="#DFE6F5"/>
<path d="M233.219 50.4919C233.219 49.7581 233.063 49.0315 232.762 48.3536C232.46 47.6756 232.018 47.0598 231.461 46.5411C230.904 46.0224 230.242 45.6111 229.515 45.3307C228.787 45.0503 228.007 44.9064 227.219 44.907H124.251C123.463 44.9064 122.684 45.0504 121.956 45.3308C121.228 45.6113 120.567 46.0226 120.01 46.5414C119.454 47.0601 119.012 47.676 118.711 48.3539C118.41 49.0318 118.256 49.7583 118.256 50.4919V119.523H233.219V50.4919Z" fill="#474157"/>
<path d="M230.082 52.9854V112.307C230.082 112.669 230.007 113.027 229.859 113.361C229.711 113.695 229.493 113.999 229.219 114.254C228.945 114.51 228.62 114.713 228.261 114.852C227.903 114.99 227.519 115.061 227.131 115.061H124.344C123.956 115.061 123.572 114.99 123.214 114.852C122.855 114.713 122.53 114.51 122.256 114.254C121.982 113.999 121.764 113.695 121.616 113.361C121.468 113.027 121.393 112.669 121.393 112.307V52.9854C121.391 52.5028 121.527 52.0282 121.787 51.6109C122.046 51.1927 122.419 50.8455 122.868 50.6042C123.316 50.3629 123.826 50.236 124.344 50.2363H227.131C227.914 50.2363 228.664 50.526 229.217 51.0415C229.771 51.5571 230.082 52.2563 230.082 52.9854Z" fill="#4C4C78"/>
<path d="M175.737 48.857C176.501 48.857 177.12 48.2804 177.12 47.5692C177.12 46.858 176.501 46.2815 175.737 46.2815C174.974 46.2815 174.355 46.858 174.355 47.5692C174.355 48.2804 174.974 48.857 175.737 48.857Z" fill="white"/>
<path d="M175.737 127.943C177.622 127.943 179.149 126.52 179.149 124.765C179.149 123.01 177.622 121.587 175.737 121.587C173.853 121.587 172.326 123.01 172.326 124.765C172.326 126.52 173.853 127.943 175.737 127.943Z" fill="white"/>
<path d="M230.082 52.9854H121.404C121.404 52.2563 121.715 51.5571 122.268 51.0415C122.821 50.526 123.572 50.2363 124.354 50.2363H227.131C227.914 50.2363 228.664 50.526 229.217 51.0415C229.771 51.5571 230.082 52.2563 230.082 52.9854Z" fill="#C8CAD7"/>
<path d="M124.344 52.3005C124.753 52.3005 125.084 51.9917 125.084 51.6108C125.084 51.2299 124.753 50.9211 124.344 50.9211C123.935 50.9211 123.604 51.2299 123.604 51.6108C123.604 51.9917 123.935 52.3005 124.344 52.3005Z" fill="#EDEDF4"/>
<path d="M126.56 52.3005C126.968 52.3005 127.3 51.9917 127.3 51.6108C127.3 51.2299 126.968 50.9211 126.56 50.9211C126.151 50.9211 125.819 51.2299 125.819 51.6108C125.819 51.9917 126.151 52.3005 126.56 52.3005Z" fill="#EDEDF4"/>
<path d="M128.775 52.3005C129.184 52.3005 129.515 51.9917 129.515 51.6108C129.515 51.2299 129.184 50.9211 128.775 50.9211C128.366 50.9211 128.035 51.2299 128.035 51.6108C128.035 51.9917 128.366 52.3005 128.775 52.3005Z" fill="#EDEDF4"/>
</g>
<defs>
<linearGradient id="paint0_linear" x1="105.051" y1="202.588" x2="106.252" y2="202.588" gradientUnits="userSpaceOnUse">
<stop stop-color="#808080" stop-opacity="0.25"/>
<stop offset="0.54" stop-color="#808080" stop-opacity="0.12"/>
<stop offset="1" stop-color="#808080" stop-opacity="0.1"/>
</linearGradient>
</defs>
</svg>
