<svg width="350" height="350" viewBox="0 0 350 350" fill="none" xmlns="http://www.w3.org/2000/svg">
<circle cx="175" cy="175" r="175" fill="#CACACA"/>
<mask id="mask0" mask-type="alpha" maskUnits="userSpaceOnUse" x="0" y="0" width="350" height="350">
<circle cx="175" cy="175" r="175" fill="#CACACA"/>
</mask>
<g mask="url(#mask0)">
<path d="M444.621 135.721C443.164 134.594 441.802 133.36 440.55 132.03C440.55 132.347 440.55 132.664 440.55 132.982C430.607 123.344 430.957 111.668 435.028 101.017L436.374 100.543C442.766 84.4908 457.414 71.0269 457.414 71.0269L455.226 71.9002C455.904 71.2348 456.293 70.8605 456.293 70.8605C365.456 107.67 302.254 109.817 295.206 109.942C290.861 108.383 255.063 96 220.43 91.3839C209.535 89.8815 198.717 89.1277 188.998 89.71L178.087 45.2064L177.879 45.3259C177.37 41.5103 175.482 33.2032 168.576 28.0516C159.356 21.2105 166.223 52.6869 166.223 52.6869L166.979 52.349L170.842 91.9817L168.959 93.4788C158.044 96.5698 146.78 98.4144 135.405 98.9735C137.502 97.1305 139.23 94.9412 140.505 92.5119C141.237 92.6555 141.996 92.6248 142.713 92.4225C143.43 92.2203 144.083 91.8528 144.614 91.3527C144.973 90.9944 145.277 90.5902 145.517 90.1518C146.02 89.3805 146.424 88.5551 146.721 87.693C148.986 81.9123 151.46 76.1161 152.193 69.9924C152.926 63.8687 151.722 57.2251 147.383 52.6349C143.044 48.0447 135.131 46.298 129.818 49.8433C128.444 50.7582 127.279 51.9747 125.768 52.6713C121.166 54.787 116.061 51.3561 111.776 48.7049C106.797 45.6222 100.219 43.4129 95.059 46.2096C93.4483 47.0993 92.1239 48.3899 91.2286 49.9421C89.8133 52.073 89.1483 54.5763 89.3298 57.0899C89.6253 61.1291 91.9181 64.8875 94.9879 67.6739C96.019 68.7018 97.2871 69.4883 98.6925 69.9716C99.0501 70.076 99.4161 70.1525 99.7869 70.2003C98.0753 72.6605 96.8917 75.4174 96.3039 78.313C95.7161 81.2086 95.7356 84.186 96.3614 87.0744L94.4516 98.0534C92.7553 98.8072 91.8086 100.455 91.2778 102.067C83.2941 102.29 75.1242 107.489 75.1242 107.489L43.7474 137.296C35.6104 142.541 41.1317 152.2 41.1317 152.2L59.4358 204.366L60.4481 203.649C64.202 210.147 75.2227 228.081 77.3404 219.14C79.9287 208.307 71.8684 198.471 71.8684 198.471H71.7699L69.685 195.924L62.0241 157.144L71.7151 148L84.7387 146.196L85.3187 226.496C61.4933 286.116 64.399 313.439 64.399 313.439L85.3187 387.964L87.9891 387.543L88.6348 389.996L88.8701 389.918L90.0302 395.418H87.9399L85.3242 402.873C85.3242 402.873 71.9614 402.597 72.2514 405.358C72.5414 408.118 79.8083 412.812 98.4025 407.842L103.634 402.873C103.634 402.873 106.249 400.388 101.018 395.418H100.646L99.1959 385.77L101.018 385.479L85.3187 310.939C98.3915 300.724 121.927 261.258 121.927 261.258C121.927 261.258 145.457 300.729 158.535 310.939L142.847 385.458L144.669 385.749L143.241 395.397H142.869C137.637 400.367 140.253 402.852 140.253 402.852L145.484 407.822C164.089 412.791 171.345 408.097 171.635 405.337C171.925 402.576 158.562 402.852 158.562 402.852L155.947 395.397H153.856L155.361 388.244L155.629 387.48L158.562 387.943L179.482 313.418C179.482 313.418 179.094 270.36 158.781 216.536L200.511 272.127L233.53 321.585C235.277 317.586 237.426 313.756 239.949 310.149L263.84 288.944C291.611 273.25 328.684 272.309 351.579 273.604L372.69 275.772L382.617 226.096C388.401 219.02 396.986 212.918 409.468 208.353C435.362 198.892 457.075 178.806 456.9 159.275C457.278 159.675 457.644 160.076 457.995 160.481C458.263 151.841 454.317 143.264 444.621 135.721ZM158.015 209.409L157.988 208.494L159.192 210.292L158.015 209.409Z" fill="url(#paint0_linear)"/>
<path d="M76.3008 198.944H76.2023L71.5565 193.252L64.0378 200.395L64.8696 201.58L63.9229 201.798C63.9229 201.798 79.097 229.641 81.6251 219.072C84.1532 208.504 76.3008 198.944 76.3008 198.944Z" fill="#FDB797"/>
<path d="M107.979 99.4623C107.979 99.4623 135.651 107.348 174.399 95.5167C213.146 83.6851 293.4 112.604 293.4 112.604C293.4 112.604 357.051 112.604 451.149 74.4839C451.149 74.4839 408.253 113.919 438.695 137.582C469.136 161.245 441.463 195.42 405.485 208.567C369.506 221.713 366.742 248.002 369.506 272.98C372.269 297.958 369.506 274.295 369.506 274.295C369.506 274.295 261.574 255.893 233.897 319.002L96.9086 113.924C96.9086 113.924 88.6075 98.1523 107.979 99.4623Z" fill="#FF5454"/>
<path opacity="0.1" d="M39.408 60.7603L383.957 296.061L404.713 238.224L39.408 60.7603Z" fill="black"/>
<path opacity="0.1" d="M60.1636 134.375L251.117 318.409L278.795 298.692L60.1636 134.375Z" fill="black"/>
<g opacity="0.1">
<path opacity="0.1" d="M115.973 118.016C115.973 118.016 143.646 125.902 182.393 114.07C221.141 102.238 301.384 131.162 301.384 131.162C301.384 131.162 352.876 131.162 431.696 103.424C437.928 87.766 452.211 74.6348 452.211 74.6348C358.091 112.755 294.462 112.755 294.462 112.755C294.462 112.755 214.203 83.836 175.46 95.6675C136.718 107.499 109.04 99.6131 109.04 99.6131C89.669 98.2979 97.9702 114.075 97.9702 114.075L103.667 122.606C104.854 119.731 108.165 117.485 115.973 118.016Z" fill="black"/>
</g>
<path d="M179.805 51.5643C179.805 51.5643 179.521 39.4208 170.541 32.7357C161.561 26.0505 168.281 56.7471 168.281 56.7471L179.805 51.5643Z" fill="#FDB797"/>
<path d="M160.751 226.241H89.3626C66.1281 284.385 68.9627 311.038 68.9627 311.038L89.3626 383.717L104.684 381.294L89.3626 308.631C102.113 298.671 125.068 260.176 125.068 260.176C125.068 260.176 148.012 298.65 160.751 308.631L145.429 381.31L160.751 383.732L181.151 311.053C181.151 311.053 184.002 284.385 160.751 226.241Z" fill="#333333"/>
<path opacity="0.1" d="M89.3626 227.182C89.3626 227.182 129.856 241.738 160.768 227.182H89.3626Z" fill="black"/>
<path d="M87.1081 139.261L66.7082 158.641L74.3691 197.406L64.1692 204.683L46.3192 153.807C46.3192 153.807 40.9347 144.387 48.8692 139.251L79.4746 110.176C79.4746 110.176 92.6075 101.817 101.636 106.101C110.665 110.384 86.933 138.955 86.933 138.955" fill="#848484"/>
<path d="M86.8071 139.022L89.3571 226.241C89.3571 226.241 129.85 240.797 160.762 226.241L158.212 144.138L157.561 141.424L158.032 140.088L188.675 115.947C197.075 111.554 192.637 101.698 192.637 101.698L179.832 49.4692L168.959 55.8009L172.79 95.0697L150.967 112.266L150.42 112.24V112.37L94.479 109.953" fill="#848484"/>
<path d="M126.742 97.9707H123.667C118.883 97.9707 115.005 101.655 115.005 106.2V111.544C115.005 116.089 118.883 119.773 123.667 119.773H126.742C131.526 119.773 135.405 116.089 135.405 111.544V106.2C135.405 101.655 131.526 97.9707 126.742 97.9707Z" fill="#FDB797"/>
<path opacity="0.1" d="M115.656 107.281C118.894 108.355 122.345 108.726 125.754 108.366C129.163 108.006 132.444 106.925 135.355 105.201C134.637 103.333 133.333 101.719 131.618 100.576C129.904 99.4338 127.862 98.8183 125.768 98.8125C123.289 98.8206 120.897 99.6836 119.037 101.241C117.177 102.799 115.975 104.945 115.656 107.281Z" fill="black"/>
<path d="M122.655 107.66C135.33 107.66 145.605 97.8993 145.605 85.8583C145.605 73.8173 135.33 64.0562 122.655 64.0562C109.98 64.0562 99.7048 73.8173 99.7048 85.8583C99.7048 97.8993 109.98 107.66 122.655 107.66Z" fill="#FDB797"/>
<path opacity="0.1" d="M106.715 73.8341C105.289 74.0049 103.843 73.9274 102.446 73.6053C101.076 73.1323 99.8395 72.3636 98.8347 71.3596C95.836 68.6253 93.6034 64.976 93.3134 61.0356C93.0234 57.0952 94.955 52.9208 98.5502 50.9662C103.584 48.2423 110.003 50.3944 114.857 53.3991C119.032 55.9983 124.017 59.3305 128.504 57.2667C129.976 56.5909 131.115 55.4005 132.455 54.5116C137.637 51.0546 145.353 52.7597 149.583 57.2355C153.813 61.7114 155 68.1886 154.272 74.1668C153.545 80.1449 151.137 85.7956 148.926 91.4307C148.582 92.5426 147.999 93.5746 147.213 94.4614C144.521 97.0866 139.481 95.0488 137.708 91.7946C134.628 86.1335 137.708 76.3189 130.431 73.0179C124.636 70.3979 112.936 73.4494 106.715 73.8341Z" fill="black"/>
<path d="M107.059 73.2935C105.634 73.4644 104.187 73.3869 102.791 73.0648C101.42 72.5918 100.184 71.823 99.1795 70.8191C96.1808 68.0847 93.9482 64.4354 93.6582 60.495C93.3681 56.5546 95.2998 52.3803 98.8949 50.4257C103.929 47.7018 110.348 49.8539 115.202 52.8586C119.377 55.4578 124.362 58.79 128.849 56.7262C130.321 56.0504 131.459 54.86 132.8 53.971C137.982 50.5141 145.698 52.2192 149.928 56.695C154.157 61.1708 155.345 67.6481 154.617 73.6262C153.889 79.6044 151.449 85.2551 149.26 90.8902C148.916 92.0021 148.333 93.0341 147.547 93.9208C144.855 96.546 139.815 94.5083 138.042 91.254C134.961 85.593 138.042 75.7784 130.764 72.4774C124.997 69.8574 113.276 72.914 107.059 73.2935Z" fill="#333333"/>
<path d="M135.405 90.703C136.813 90.703 137.955 88.5339 137.955 85.8581C137.955 83.1823 136.813 81.0132 135.405 81.0132C133.996 81.0132 132.855 83.1823 132.855 85.8581C132.855 88.5339 133.996 90.703 135.405 90.703Z" fill="#FDB797"/>
<path opacity="0.1" d="M86.84 139.012L93.3134 141.892L86.84 149.409V139.012Z" fill="black"/>
<path opacity="0.1" d="M158.01 140.072L153.698 144.626L156.571 148.722L158.251 144.169L158.01 140.072Z" fill="black"/>
<path d="M125.506 117.849V121.795C125.506 121.795 95.2177 116.539 94.4462 108.648L114.436 109.963L125.506 117.849Z" fill="#FF5454"/>
<path d="M125.506 117.849V121.795C125.506 121.795 155.794 116.539 156.565 108.648L136.576 109.963L125.506 117.849Z" fill="#FF5454"/>
<path opacity="0.1" d="M310.621 160.664L410.251 183.012L374.272 197.474L310.621 160.664Z" fill="black"/>
<path d="M94.5392 108.84C94.5392 108.84 94.5392 100.58 100.34 100.58C106.14 100.58 111.935 117.106 111.935 117.106L94.5392 108.84Z" fill="#FF5454"/>
<path opacity="0.5" d="M15.7741 258.009C17.8715 258.009 19.5717 256.394 19.5717 254.401C19.5717 252.409 17.8715 250.793 15.7741 250.793C13.6767 250.793 11.9765 252.409 11.9765 254.401C11.9765 256.394 13.6767 258.009 15.7741 258.009Z" fill="#F55F44"/>
<path opacity="0.5" d="M237.136 29.5959C236.613 29.3796 236.193 28.9885 235.953 28.4969C235.714 28.0052 235.674 27.4473 235.839 26.9291C235.866 26.8498 235.882 26.7678 235.888 26.6847C235.904 26.4469 235.838 26.2107 235.701 26.0111C235.564 25.8115 235.363 25.6593 235.128 25.577C234.892 25.4946 234.635 25.4867 234.395 25.5542C234.154 25.6217 233.943 25.7611 233.793 25.9518C233.74 26.0192 233.696 26.0925 233.661 26.1701C233.433 26.6645 233.022 27.0623 232.505 27.2884C231.989 27.5144 231.404 27.553 230.86 27.3969C230.776 27.3716 230.69 27.3559 230.602 27.3501C230.352 27.3354 230.103 27.3977 229.893 27.5279C229.683 27.658 229.523 27.8491 229.436 28.0727C229.35 28.2963 229.341 28.5405 229.412 28.769C229.483 28.9975 229.63 29.1982 229.831 29.3411C229.902 29.3914 229.979 29.4333 230.061 29.4659C230.579 29.6848 230.995 30.0762 231.231 30.5664C231.467 31.0566 231.506 31.6118 231.341 32.1275C231.314 32.2068 231.298 32.2888 231.292 32.3718C231.276 32.6096 231.342 32.8459 231.479 33.0454C231.616 33.245 231.817 33.3973 232.052 33.4796C232.288 33.5619 232.545 33.5699 232.785 33.5024C233.026 33.4348 233.237 33.2954 233.388 33.1048C233.441 33.0373 233.485 32.964 233.519 32.8864C233.747 32.3899 234.158 31.9901 234.676 31.763C235.193 31.5359 235.781 31.4972 236.326 31.6544C236.41 31.6797 236.496 31.6954 236.583 31.7012C236.833 31.7155 237.08 31.6534 237.29 31.5238C237.499 31.3943 237.659 31.2043 237.746 30.9818C237.833 30.7593 237.843 30.5161 237.773 30.2881C237.704 30.0601 237.559 29.8593 237.36 29.7154C237.291 29.6673 237.216 29.6272 237.136 29.5959Z" fill="#4D8AF0"/>
<path opacity="0.5" d="M283.386 355.37C285.483 355.37 287.184 353.754 287.184 351.762C287.184 349.769 285.483 348.154 283.386 348.154C281.289 348.154 279.588 349.769 279.588 351.762C279.588 353.754 281.289 355.37 283.386 355.37Z" fill="#47E6B1"/>
<path opacity="0.5" d="M271.999 68.6876C274.096 68.6876 275.796 67.0723 275.796 65.0799C275.796 63.0874 274.096 61.4722 271.999 61.4722C269.901 61.4722 268.201 63.0874 268.201 65.0799C268.201 67.0723 269.901 68.6876 271.999 68.6876Z" fill="#47E6B1"/>
<g opacity="0.5">
<path opacity="0.5" d="M3.12263 114.964H1.22382V125.179H3.12263V114.964Z" fill="#47E6B1"/>
<path opacity="0.5" d="M7.54953 120.973V119.169H-3.2031V120.973H7.54953Z" fill="#47E6B1"/>
</g>
<g opacity="0.5">
<path opacity="0.5" d="M351.081 71.0894H349.182V81.3042H351.081V71.0894Z" fill="#47E6B1"/>
<path opacity="0.5" d="M355.513 77.0988V75.2949H344.761V77.0988H355.513Z" fill="#47E6B1"/>
</g>
</g>
<defs>
<linearGradient id="paint0_linear" x1="248.671" y1="410" x2="248.671" y2="27.0847" gradientUnits="userSpaceOnUse">
<stop stop-color="#808080" stop-opacity="0.25"/>
<stop offset="0.54" stop-color="#808080" stop-opacity="0.12"/>
<stop offset="1" stop-color="#808080" stop-opacity="0.1"/>
</linearGradient>
</defs>
</svg>
