<svg width="350" height="350" viewBox="0 0 350 350" fill="none" xmlns="http://www.w3.org/2000/svg">
<circle cx="175" cy="175" r="175" fill="#CACACA"/>
<mask id="mask0" mask-type="alpha" maskUnits="userSpaceOnUse" x="0" y="0" width="350" height="350">
<circle cx="175" cy="175" r="175" fill="#CACACA"/>
</mask>
<g mask="url(#mask0)">
<path d="M80.5687 286.599C90.8512 286.599 99.1867 277.076 99.1867 265.329C99.1867 253.582 90.8512 244.059 80.5687 244.059C70.2863 244.059 61.9507 253.582 61.9507 265.329C61.9507 277.076 70.2863 286.599 80.5687 286.599Z" fill="#F2F2F2"/>
<path d="M83.596 283.486C93.8785 283.486 102.214 273.963 102.214 262.216C102.214 250.469 93.8785 240.946 83.596 240.946C73.3135 240.946 64.978 250.469 64.978 262.216C64.978 273.963 73.3135 283.486 83.596 283.486Z" fill="#FF5454"/>
<path d="M328.945 238.681H98.59V239.399H328.945V238.681Z" fill="#3F3D56"/>
<path d="M217.891 84.6967H136.129V82.7715H99.0554V84.6967H16.9565C16.2302 84.6967 15.511 84.8601 14.84 85.1777C14.169 85.4952 13.5593 85.9606 13.0458 86.5473C12.5322 87.134 12.1248 87.8306 11.8469 88.5971C11.569 89.3637 11.4259 90.1853 11.4259 91.0151V218.92C11.4259 220.596 12.0086 222.203 13.0458 223.388C14.083 224.573 15.4897 225.238 16.9565 225.238H217.891C219.358 225.238 220.765 224.573 221.802 223.388C222.839 222.203 223.422 220.596 223.422 218.92V91.0151C223.422 90.1853 223.279 89.3637 223.001 88.5971C222.723 87.8306 222.315 87.134 221.802 86.5473C221.288 85.9606 220.679 85.4952 220.008 85.1777C219.337 84.8601 218.617 84.6967 217.891 84.6967Z" fill="#3F3D56"/>
<path d="M216.007 95.863H18.8407V222.928H216.007V95.863Z" fill="#FF5454"/>
<path d="M117.255 92.3976C118.372 92.3976 119.278 91.3633 119.278 90.0874C119.278 88.8114 118.372 87.7771 117.255 87.7771C116.139 87.7771 115.233 88.8114 115.233 90.0874C115.233 91.3633 116.139 92.3976 117.255 92.3976Z" fill="#FF5454"/>
<path opacity="0.1" d="M159.621 222.928H18.8408V95.8633L159.621 222.928Z" fill="black"/>
<path d="M49.6913 213.42C60.1583 213.42 68.6436 203.726 68.6436 191.768C68.6436 179.81 60.1583 170.116 49.6913 170.116C39.2243 170.116 30.7391 179.81 30.7391 191.768C30.7391 203.726 39.2243 213.42 49.6913 213.42Z" fill="#F2F2F2"/>
<path d="M181.677 164.39H163.26V168.787H181.677V164.39Z" fill="#3F3D56"/>
<path d="M203.943 130.159H140.994V132.044H203.943V130.159Z" fill="#3F3D56"/>
<path d="M203.943 136.126H140.994V138.01H203.943V136.126Z" fill="#3F3D56"/>
<path d="M203.943 142.093H140.994V143.977H203.943V142.093Z" fill="#3F3D56"/>
<path d="M203.943 148.06H140.994V149.944H203.943V148.06Z" fill="#3F3D56"/>
<path d="M203.943 154.027H140.994V155.911H203.943V154.027Z" fill="#3F3D56"/>
<path d="M203.943 98.4409H196.246V107.234H203.943V98.4409Z" fill="#F2F2F2"/>
<path d="M207.517 111.317H198.17V100.639H207.517V111.317ZM198.577 110.852H207.11V101.103H198.577V110.852Z" fill="#3F3D56"/>
<path d="M228.958 220.618H209.716V219.034C209.716 218.993 209.709 218.952 209.695 218.914C209.681 218.876 209.661 218.841 209.635 218.812C209.61 218.783 209.579 218.76 209.546 218.744C209.513 218.728 209.477 218.72 209.441 218.72H202.843C202.807 218.72 202.772 218.728 202.738 218.744C202.705 218.76 202.675 218.783 202.649 218.812C202.624 218.841 202.603 218.876 202.589 218.914C202.576 218.952 202.569 218.993 202.569 219.034V220.618H198.445V219.034C198.445 218.993 198.438 218.952 198.424 218.914C198.411 218.876 198.39 218.841 198.365 218.812C198.339 218.783 198.309 218.76 198.276 218.744C198.242 218.728 198.206 218.72 198.17 218.72H191.573C191.537 218.72 191.501 218.728 191.468 218.744C191.434 218.76 191.404 218.783 191.379 218.812C191.353 218.841 191.333 218.876 191.319 218.914C191.305 218.952 191.298 218.993 191.298 219.034V220.618H187.175V219.034C187.175 218.993 187.168 218.952 187.154 218.914C187.14 218.876 187.12 218.841 187.094 218.812C187.069 218.783 187.039 218.76 187.005 218.744C186.972 218.728 186.936 218.72 186.9 218.72H180.303C180.267 218.72 180.231 218.728 180.197 218.744C180.164 218.76 180.134 218.783 180.108 218.812C180.083 218.841 180.063 218.876 180.049 218.914C180.035 218.952 180.028 218.993 180.028 219.034V220.618H175.904V219.034C175.904 218.993 175.897 218.952 175.884 218.914C175.87 218.876 175.849 218.841 175.824 218.812C175.798 218.783 175.768 218.76 175.735 218.744C175.701 218.728 175.666 218.72 175.63 218.72H169.032C168.996 218.72 168.96 218.728 168.927 218.744C168.894 218.76 168.863 218.783 168.838 218.812C168.812 218.841 168.792 218.876 168.778 218.914C168.764 218.952 168.757 218.993 168.757 219.034V220.618H164.634V219.034C164.634 218.993 164.627 218.952 164.613 218.914C164.599 218.876 164.579 218.841 164.554 218.812C164.528 218.783 164.498 218.76 164.464 218.744C164.431 218.728 164.395 218.72 164.359 218.72H157.762C157.726 218.72 157.69 218.728 157.657 218.744C157.623 218.76 157.593 218.783 157.567 218.812C157.542 218.841 157.522 218.876 157.508 218.914C157.494 218.952 157.487 218.993 157.487 219.034V220.618H153.364V219.034C153.364 218.993 153.357 218.952 153.343 218.914C153.329 218.876 153.309 218.841 153.283 218.812C153.258 218.783 153.227 218.76 153.194 218.744C153.161 218.728 153.125 218.72 153.089 218.72H146.491C146.455 218.72 146.42 218.728 146.386 218.744C146.353 218.76 146.323 218.783 146.297 218.812C146.272 218.841 146.251 218.876 146.237 218.914C146.224 218.952 146.217 218.993 146.217 219.034V220.618H142.093V219.034C142.093 218.993 142.086 218.952 142.072 218.914C142.058 218.876 142.038 218.841 142.013 218.812C141.987 218.783 141.957 218.76 141.924 218.744C141.89 218.728 141.854 218.72 141.818 218.72H90.1394C90.1033 218.72 90.0676 218.728 90.0342 218.744C90.0009 218.76 89.9706 218.783 89.9451 218.812C89.9195 218.841 89.8993 218.876 89.8855 218.914C89.8717 218.952 89.8645 218.993 89.8645 219.034V220.618H85.7412V219.034C85.7412 218.993 85.7341 218.952 85.7203 218.914C85.7065 218.876 85.6863 218.841 85.6607 218.812C85.6352 218.783 85.6049 218.76 85.5715 218.744C85.5382 218.728 85.5024 218.72 85.4663 218.72H78.869C78.8329 218.72 78.7972 218.728 78.7638 218.744C78.7305 218.76 78.7002 218.783 78.6747 218.812C78.6491 218.841 78.6289 218.876 78.6151 218.914C78.6013 218.952 78.5942 218.993 78.5942 219.034V220.618H74.4708V219.034C74.4708 218.993 74.4637 218.952 74.4499 218.914C74.4361 218.876 74.4158 218.841 74.3903 218.812C74.3648 218.783 74.3345 218.76 74.3011 218.744C74.2678 218.728 74.232 218.72 74.1959 218.72H67.5986C67.5625 218.72 67.5268 218.728 67.4934 218.744C67.4601 218.76 67.4298 218.783 67.4043 218.812C67.3787 218.841 67.3585 218.876 67.3447 218.914C67.3309 218.952 67.3237 218.993 67.3237 219.034V220.618H63.2004V219.034C63.2004 218.993 63.1933 218.952 63.1795 218.914C63.1657 218.876 63.1454 218.841 63.1199 218.812C63.0944 218.783 63.0641 218.76 63.0307 218.744C62.9974 218.728 62.9616 218.72 62.9255 218.72H56.3282C56.2921 218.72 56.2564 218.728 56.223 218.744C56.1897 218.76 56.1594 218.783 56.1339 218.812C56.1083 218.841 56.0881 218.876 56.0743 218.914C56.0605 218.952 56.0533 218.993 56.0533 219.034V220.618H51.93V219.034C51.93 218.993 51.9229 218.952 51.9091 218.914C51.8953 218.876 51.8751 218.841 51.8495 218.812C51.824 218.783 51.7937 218.76 51.7604 218.744C51.727 218.728 51.6913 218.72 51.6552 218.72H45.0578C45.0217 218.72 44.986 218.728 44.9526 218.744C44.9193 218.76 44.889 218.783 44.8635 218.812C44.8379 218.841 44.8177 218.876 44.8039 218.914C44.7901 218.952 44.7829 218.993 44.7829 219.034V220.618H40.6596V219.034C40.6596 218.993 40.6525 218.952 40.6387 218.914C40.6249 218.876 40.6046 218.841 40.5791 218.812C40.5536 218.783 40.5233 218.76 40.4899 218.744C40.4566 218.728 40.4208 218.72 40.3847 218.72H33.7874C33.7513 218.72 33.7156 218.728 33.6822 218.744C33.6489 218.76 33.6186 218.783 33.5931 218.812C33.5675 218.841 33.5473 218.876 33.5335 218.914C33.5197 218.952 33.5125 218.993 33.5125 219.034V220.618H29.3892V219.034C29.3892 218.993 29.3821 218.952 29.3683 218.914C29.3545 218.876 29.3342 218.841 29.3087 218.812C29.2832 218.783 29.2529 218.76 29.2195 218.744C29.1862 218.728 29.1504 218.72 29.1143 218.72H22.517C22.4809 218.72 22.4452 218.728 22.4118 218.744C22.3785 218.76 22.3482 218.783 22.3227 218.812C22.2971 218.841 22.2769 218.876 22.2631 218.914C22.2493 218.952 22.2421 218.993 22.2422 219.034V220.618H9.59731C7.84759 220.618 6.16954 221.412 4.93231 222.825C3.69507 224.239 3 226.156 3 228.155V231.563C3.00001 233.562 3.69508 235.479 4.93231 236.893C6.16955 238.306 7.8476 239.1 9.59731 239.1H228.958C230.707 239.1 232.386 238.306 233.623 236.893C234.86 235.479 235.555 233.562 235.555 231.563V228.155C235.555 226.156 234.86 224.239 233.623 222.825C232.386 221.412 230.708 220.618 228.958 220.618Z" fill="#3F3D56"/>
<path d="M54.2788 205.291C49.555 205.291 44.9373 203.691 41.0096 200.693C37.0819 197.695 34.0206 193.433 32.2128 188.447C30.4051 183.461 29.9321 177.975 30.8537 172.682C31.7753 167.389 34.05 162.527 37.3903 158.711C40.7305 154.895 44.9862 152.296 49.6193 151.243C54.2523 150.19 59.0546 150.731 63.4188 152.796C67.7831 154.861 71.5133 158.359 74.1377 162.846C76.7621 167.333 78.1629 172.609 78.1629 178.005C78.1557 185.239 75.637 192.175 71.1595 197.29C66.6819 202.406 60.6111 205.283 54.2788 205.291ZM54.2788 151.437C49.6793 151.437 45.1831 152.995 41.3588 155.915C37.5344 158.834 34.5537 162.983 32.7935 167.838C31.0334 172.693 30.5728 178.035 31.4702 183.188C32.3675 188.342 34.5824 193.076 37.8347 196.792C41.087 200.507 45.2308 203.038 49.7419 204.063C54.253 205.088 58.9289 204.562 63.1783 202.551C67.4277 200.54 71.0597 197.135 73.6151 192.766C76.1704 188.397 77.5343 183.26 77.5343 178.005C77.5274 170.961 75.075 164.208 70.7152 159.227C66.3555 154.247 60.4444 151.445 54.2788 151.437Z" fill="#3F3D56"/>
<path d="M267.349 89.6841H187.212V90.4021H267.349V89.6841Z" fill="#3F3D56"/>
<path d="M361 279.251H130.645V279.969H361V279.251Z" fill="#3F3D56"/>
<path d="M143.687 312.282H63.5497V313H143.687V312.282Z" fill="#3F3D56"/>
<path d="M159.818 275.466H151.018V285.519H159.818V275.466Z" fill="#FF5454"/>
<path d="M165.16 279.774H154.475V267.567H165.16V279.774ZM154.94 279.244H164.695V268.098H154.94V279.244Z" fill="#3F3D56"/>
<path d="M261.953 85.8987H253.154V95.9515H261.953V85.8987Z" fill="#FF5454"/>
<path d="M267.296 90.207H256.611V78H267.296V90.207ZM257.075 89.6762H266.831V78.5307H257.075V89.6762Z" fill="#3F3D56"/>
<path d="M350.576 275.466H341.776V285.519H350.576V275.466Z" fill="#FF5454"/>
<path d="M355.918 279.774H345.233V267.567H355.918V279.774ZM345.698 279.244H355.454V268.098H345.698V279.244Z" fill="#3F3D56"/>
<path d="M335.231 161.28H334.483V137.885C334.483 136.107 334.176 134.346 333.581 132.703C332.985 131.06 332.112 129.568 331.012 128.31C329.911 127.053 328.604 126.056 327.167 125.375C325.729 124.695 324.187 124.344 322.631 124.344H279.246C277.689 124.344 276.148 124.695 274.71 125.375C273.272 126.056 271.966 127.053 270.865 128.31C269.764 129.568 268.891 131.06 268.296 132.703C267.7 134.346 267.394 136.107 267.394 137.885V266.231C267.394 268.009 267.7 269.77 268.296 271.413C268.891 273.055 269.764 274.548 270.865 275.805C271.966 277.063 273.272 278.06 274.71 278.741C276.148 279.421 277.689 279.771 279.246 279.771H322.631C324.187 279.771 325.729 279.421 327.167 278.741C328.604 278.06 329.911 277.063 331.012 275.805C332.112 274.548 332.985 273.055 333.581 271.413C334.176 269.77 334.483 268.009 334.483 266.231V177.933H335.231V161.28Z" fill="#3F3D56"/>
<path d="M331.959 138.681V266.84C331.959 269.521 331.027 272.094 329.368 273.99C327.708 275.887 325.457 276.953 323.109 276.953H279.515C277.167 276.953 274.916 275.887 273.256 273.99C271.597 272.094 270.665 269.521 270.665 266.84V138.681C270.665 135.999 271.598 133.428 273.257 131.532C274.917 129.636 277.168 128.571 279.515 128.57H284.804C284.544 129.3 284.444 130.091 284.515 130.875C284.585 131.658 284.823 132.41 285.208 133.064C285.593 133.717 286.112 134.253 286.721 134.623C287.329 134.994 288.008 135.187 288.698 135.187H313.553C314.242 135.187 314.921 134.994 315.53 134.623C316.138 134.253 316.658 133.717 317.042 133.064C317.427 132.41 317.665 131.658 317.735 130.875C317.806 130.091 317.707 129.3 317.446 128.57H323.109C325.456 128.571 327.707 129.636 329.367 131.532C331.026 133.428 331.959 135.999 331.959 138.681Z" fill="#FF5454"/>
<path d="M307.805 213.073H294.819V217.47H307.805V213.073Z" fill="#3F3D56"/>
<path d="M323.505 178.842H279.119V180.727H323.505V178.842Z" fill="#3F3D56"/>
<path d="M323.505 184.809H279.119V186.693H323.505V184.809Z" fill="#3F3D56"/>
<path d="M323.505 190.776H279.119V192.66H323.505V190.776Z" fill="#3F3D56"/>
<path d="M323.505 196.743H279.119V198.627H323.505V196.743Z" fill="#3F3D56"/>
<path d="M323.505 202.709H279.119V204.594H323.505V202.709Z" fill="#3F3D56"/>
<path d="M302.863 153.819H295.166V162.613H302.863V153.819Z" fill="#F2F2F2"/>
<path d="M298.112 156.018V166.696H307.458V156.018H298.112ZM307.053 166.232H298.518V156.481H307.053V166.232Z" fill="#3F3D56"/>
<path opacity="0.1" d="M331.959 253.154V266.84C331.959 269.522 331.027 272.094 329.368 273.991C327.708 275.887 325.457 276.953 323.109 276.954H279.515C277.167 276.953 274.916 275.887 273.256 273.991C271.597 272.094 270.665 269.522 270.665 266.84V197.831L307.393 230.98L308.022 231.547L314.854 237.712L315.492 238.29L331.959 253.154Z" fill="black"/>
<path d="M297.541 272.8C305.155 272.8 311.327 265.749 311.327 257.05C311.327 248.352 305.155 241.301 297.541 241.301C289.927 241.301 283.755 248.352 283.755 257.05C283.755 265.749 289.927 272.8 297.541 272.8Z" fill="#F2F2F2"/>
<path d="M103.618 313C98.2107 313 92.9246 311.168 88.4284 307.736C83.9322 304.304 80.4279 299.425 78.3585 293.718C76.2891 288.01 75.7477 281.73 76.8026 275.671C77.8576 269.612 80.4616 264.046 84.2853 259.678C88.109 255.309 92.9807 252.334 98.2843 251.129C103.588 249.924 109.085 250.543 114.081 252.907C119.077 255.271 123.347 259.274 126.351 264.411C129.356 269.548 130.959 275.587 130.959 281.765C130.951 290.046 128.068 297.985 122.942 303.841C117.817 309.697 110.867 312.991 103.618 313ZM103.618 251.247C98.335 251.247 93.1704 253.037 88.7776 256.39C84.3848 259.744 80.961 264.51 78.9392 270.086C76.9174 275.662 76.3884 281.798 77.4191 287.718C78.4498 293.638 80.9939 299.076 84.7297 303.344C88.4655 307.612 93.2252 310.518 98.4069 311.696C103.589 312.873 108.96 312.269 113.841 309.959C118.722 307.649 122.894 303.738 125.829 298.719C128.764 293.701 130.331 287.8 130.331 281.765C130.323 273.674 127.506 265.917 122.498 260.196C117.49 254.474 110.7 251.256 103.618 251.247Z" fill="#3F3D56"/>
<path d="M301.604 269.199C298.186 269.199 294.844 268.04 292.002 265.871C289.159 263.701 286.944 260.617 285.636 257.009C284.327 253.4 283.985 249.43 284.652 245.6C285.319 241.769 286.965 238.251 289.382 235.489C291.8 232.727 294.879 230.847 298.232 230.085C301.585 229.323 305.06 229.714 308.219 231.208C311.377 232.703 314.077 235.234 315.976 238.481C317.875 241.729 318.889 245.546 318.889 249.452C318.884 254.687 317.061 259.706 313.821 263.408C310.58 267.11 306.187 269.193 301.604 269.199ZM301.604 230.423C298.31 230.423 295.09 231.539 292.351 233.63C289.612 235.721 287.477 238.693 286.216 242.17C284.956 245.647 284.626 249.473 285.268 253.164C285.911 256.855 287.497 260.246 289.827 262.907C292.156 265.568 295.124 267.381 298.355 268.115C301.586 268.849 304.935 268.472 307.978 267.032C311.022 265.592 313.623 263.153 315.453 260.024C317.283 256.894 318.26 253.215 318.26 249.452C318.255 244.407 316.499 239.57 313.376 236.003C310.254 232.436 306.02 230.429 301.604 230.423Z" fill="#3F3D56"/>
</g>
</svg>
