<svg width="216" height="163" viewBox="0 0 216 163" fill="none" xmlns="http://www.w3.org/2000/svg">
<path d="M0.377438 71.52C5.08144 71.328 8.53744 70.32 10.7454 68.496C12.9534 66.576 14.0574 63.888 14.0574 60.432C14.0574 57.84 13.5774 52.704 12.6174 45.024C12.5214 44.256 12.2334 41.808 11.7534 37.68C11.2734 33.456 11.0334 29.664 11.0334 26.304C11.0334 18.144 13.5294 11.808 18.5214 7.29599C23.5134 2.68799 30.1854 0.383995 38.5374 0.383995H48.9054V20.544H43.2894C40.2174 20.544 38.0094 21.216 36.6654 22.56C35.3214 23.904 34.6494 25.968 34.6494 28.752C34.6494 30.864 35.0334 35.664 35.8014 43.152C36.6654 52.464 37.0974 58.56 37.0974 61.44C37.0974 66.72 35.8014 71.088 33.2094 74.544C30.7134 78 26.8734 80.208 21.6894 81.168V81.456C26.8734 82.512 30.7134 84.768 33.2094 88.224C35.8014 91.584 37.0974 95.952 37.0974 101.328C37.0974 104.208 36.6654 110.304 35.8014 119.616C35.0334 126.912 34.6494 131.664 34.6494 133.872C34.6494 136.656 35.3214 138.72 36.6654 140.064C38.0094 141.504 40.2174 142.224 43.2894 142.224H48.9054V162.384H38.5374C30.1854 162.384 23.5134 160.08 18.5214 155.472C13.5294 150.96 11.0334 144.576 11.0334 136.32C11.0334 132.96 11.2734 129.216 11.7534 125.088C12.2334 120.864 12.5214 118.368 12.6174 117.6C13.5774 109.92 14.0574 104.784 14.0574 102.192C14.0574 98.928 12.9534 96.336 10.7454 94.416C8.53744 92.4 5.08144 91.296 0.377438 91.104V71.52ZM215.619 91.104C210.915 91.296 207.459 92.4 205.251 94.416C203.043 96.336 201.939 98.928 201.939 102.192C201.939 104.784 202.419 109.92 203.379 117.6C203.475 118.368 203.763 120.864 204.243 125.088C204.723 129.216 204.963 132.96 204.963 136.32C204.963 144.576 202.467 150.96 197.475 155.472C192.483 160.08 185.811 162.384 177.459 162.384H167.091V142.224H172.707C175.779 142.224 177.987 141.504 179.331 140.064C180.675 138.72 181.347 136.656 181.347 133.872C181.347 131.664 180.963 126.912 180.195 119.616C179.331 110.304 178.899 104.208 178.899 101.328C178.899 95.952 180.147 91.584 182.643 88.224C185.235 84.768 189.123 82.512 194.307 81.456V81.168C189.123 80.208 185.235 78 182.643 74.544C180.147 71.088 178.899 66.72 178.899 61.44C178.899 58.56 179.331 52.464 180.195 43.152C180.963 35.664 181.347 30.864 181.347 28.752C181.347 25.968 180.675 23.904 179.331 22.56C177.987 21.216 175.779 20.544 172.707 20.544H167.091V0.383995H177.459C185.811 0.383995 192.483 2.68799 197.475 7.29599C202.467 11.808 204.963 18.144 204.963 26.304C204.963 29.664 204.723 33.456 204.243 37.68C203.763 41.808 203.475 44.256 203.379 45.024C202.419 52.704 201.939 57.84 201.939 60.432C201.939 63.888 203.043 66.576 205.251 68.496C207.459 70.32 210.915 71.328 215.619 71.52V91.104Z" fill="#545454"/>
<path d="M92.6848 63.024C94.9888 59.28 98.3008 56.256 102.621 53.952C106.941 51.648 111.885 50.496 117.453 50.496C124.077 50.496 130.077 52.176 135.453 55.536C140.829 58.896 145.053 63.696 148.125 69.936C151.293 76.176 152.877 83.424 152.877 91.68C152.877 99.936 151.293 107.232 148.125 113.568C145.053 119.808 140.829 124.656 135.453 128.112C130.077 131.472 124.077 133.152 117.453 133.152C111.789 133.152 106.845 132.048 102.621 129.84C98.3968 127.536 95.0848 124.512 92.6848 120.768V132H68.0608V25.44H92.6848V63.024ZM127.821 91.68C127.821 85.536 126.093 80.736 122.637 77.28C119.277 73.728 115.101 71.952 110.109 71.952C105.213 71.952 101.037 73.728 97.5808 77.28C94.2208 80.832 92.5408 85.68 92.5408 91.824C92.5408 97.968 94.2208 102.816 97.5808 106.368C101.037 109.92 105.213 111.696 110.109 111.696C115.005 111.696 119.181 109.92 122.637 106.368C126.093 102.72 127.821 97.824 127.821 91.68Z" fill="#FF5454"/>
</svg>
