<svg width="1455" height="210" viewBox="0 0 1455 210" fill="none" xmlns="http://www.w3.org/2000/svg">
<path d="M67.3995 137.12V158H54.8715C45.9435 158 38.9835 155.84 33.9915 151.52C28.9995 147.104 26.5035 139.952 26.5035 130.064V98.096H16.7115V77.648H26.5035V58.064H51.1275V77.648H67.2555V98.096H51.1275V130.352C51.1275 132.752 51.7035 134.48 52.8555 135.536C54.0075 136.592 55.9275 137.12 58.6155 137.12H67.3995ZM130.508 76.784C139.724 76.784 147.116 79.856 152.684 86C158.252 92.048 161.036 100.4 161.036 111.056V158H136.556V114.368C136.556 108.992 135.164 104.816 132.38 101.84C129.596 98.864 125.852 97.376 121.148 97.376C116.444 97.376 112.7 98.864 109.916 101.84C107.132 104.816 105.74 108.992 105.74 114.368V158H81.1155V51.44H105.74V88.448C108.236 84.896 111.644 82.064 115.964 79.952C120.284 77.84 125.132 76.784 130.508 76.784ZM253.891 116.528C253.891 118.832 253.747 121.232 253.459 123.728H197.731C198.115 128.72 199.699 132.56 202.483 135.248C205.363 137.84 208.867 139.136 212.995 139.136C219.139 139.136 223.411 136.544 225.811 131.36H252.019C250.675 136.64 248.227 141.392 244.675 145.616C241.219 149.84 236.851 153.152 231.571 155.552C226.291 157.952 220.387 159.152 213.859 159.152C205.987 159.152 198.979 157.472 192.835 154.112C186.691 150.752 181.891 145.952 178.435 139.712C174.979 133.472 173.251 126.176 173.251 117.824C173.251 109.472 174.931 102.176 178.291 95.936C181.747 89.696 186.547 84.896 192.691 81.536C198.835 78.176 205.891 76.496 213.859 76.496C221.635 76.496 228.547 78.128 234.595 81.392C240.643 84.656 245.347 89.312 248.707 95.36C252.163 101.408 253.891 108.464 253.891 116.528ZM228.691 110.048C228.691 105.824 227.251 102.464 224.371 99.968C221.491 97.472 217.891 96.224 213.571 96.224C209.443 96.224 205.939 97.424 203.059 99.824C200.275 102.224 198.547 105.632 197.875 110.048H228.691ZM301.573 97.52C306.277 97.328 309.733 96.32 311.941 94.496C314.149 92.576 315.253 89.888 315.253 86.432C315.253 83.84 314.773 78.704 313.813 71.024C313.717 70.256 313.429 67.808 312.949 63.68C312.469 59.456 312.229 55.664 312.229 52.304C312.229 44.144 314.725 37.808 319.717 33.296C324.709 28.688 331.381 26.384 339.733 26.384H350.101V46.544H344.485C341.413 46.544 339.205 47.216 337.861 48.56C336.517 49.904 335.845 51.968 335.845 54.752C335.845 56.864 336.229 61.664 336.997 69.152C337.861 78.464 338.293 84.56 338.293 87.44C338.293 92.72 336.997 97.088 334.405 100.544C331.909 104 328.069 106.208 322.885 107.168V107.456C328.069 108.512 331.909 110.768 334.405 114.224C336.997 117.584 338.293 121.952 338.293 127.328C338.293 130.208 337.861 136.304 336.997 145.616C336.229 152.912 335.845 157.664 335.845 159.872C335.845 162.656 336.517 164.72 337.861 166.064C339.205 167.504 341.413 168.224 344.485 168.224H350.101V188.384H339.733C331.381 188.384 324.709 186.08 319.717 181.472C314.725 176.96 312.229 170.576 312.229 162.32C312.229 158.96 312.469 155.216 312.949 151.088C313.429 146.864 313.717 144.368 313.813 143.6C314.773 135.92 315.253 130.784 315.253 128.192C315.253 124.928 314.149 122.336 311.941 120.416C309.733 118.4 306.277 117.296 301.573 117.104V97.52ZM907.33 117.104C902.626 117.296 899.17 118.4 896.962 120.416C894.754 122.336 893.65 124.928 893.65 128.192C893.65 130.784 894.13 135.92 895.09 143.6C895.186 144.368 895.474 146.864 895.954 151.088C896.434 155.216 896.674 158.96 896.674 162.32C896.674 170.576 894.178 176.96 889.186 181.472C884.194 186.08 877.522 188.384 869.17 188.384H858.802V168.224H864.418C867.49 168.224 869.698 167.504 871.042 166.064C872.386 164.72 873.058 162.656 873.058 159.872C873.058 157.664 872.674 152.912 871.906 145.616C871.042 136.304 870.61 130.208 870.61 127.328C870.61 121.952 871.858 117.584 874.354 114.224C876.946 110.768 880.834 108.512 886.018 107.456V107.168C880.834 106.208 876.946 104 874.354 100.544C871.858 97.088 870.61 92.72 870.61 87.44C870.61 84.56 871.042 78.464 871.906 69.152C872.674 61.664 873.058 56.864 873.058 54.752C873.058 51.968 872.386 49.904 871.042 48.56C869.698 47.216 867.49 46.544 864.418 46.544H858.802V26.384H869.17C877.522 26.384 884.194 28.688 889.186 33.296C894.178 37.808 896.674 44.144 896.674 52.304C896.674 55.664 896.434 59.456 895.954 63.68C895.474 67.808 895.186 70.256 895.09 71.024C894.13 78.704 893.65 83.84 893.65 86.432C893.65 89.888 894.754 92.576 896.962 94.496C899.17 96.32 902.626 97.328 907.33 97.52V117.104ZM992.569 159.152C985.561 159.152 979.321 157.952 973.849 155.552C968.377 153.152 964.057 149.888 960.889 145.76C957.721 141.536 955.945 136.832 955.561 131.648H979.897C980.185 134.432 981.481 136.688 983.785 138.416C986.089 140.144 988.921 141.008 992.281 141.008C995.353 141.008 997.705 140.432 999.337 139.28C1001.07 138.032 1001.93 136.448 1001.93 134.528C1001.93 132.224 1000.73 130.544 998.329 129.488C995.929 128.336 992.041 127.088 986.665 125.744C980.905 124.4 976.105 123.008 972.265 121.568C968.425 120.032 965.113 117.68 962.329 114.512C959.545 111.248 958.153 106.88 958.153 101.408C958.153 96.8 959.401 92.624 961.897 88.88C964.489 85.04 968.233 82.016 973.129 79.808C978.121 77.6 984.025 76.496 990.841 76.496C1000.92 76.496 1008.84 78.992 1014.6 83.984C1020.46 88.976 1023.82 95.6 1024.68 103.856H1001.93C1001.55 101.072 1000.3 98.864 998.185 97.232C996.169 95.6 993.481 94.784 990.121 94.784C987.241 94.784 985.033 95.36 983.497 96.512C981.961 97.568 981.193 99.056 981.193 100.976C981.193 103.28 982.393 105.008 984.793 106.16C987.289 107.312 991.129 108.464 996.313 109.616C1002.27 111.152 1007.11 112.688 1010.86 114.224C1014.6 115.664 1017.87 118.064 1020.65 121.424C1023.53 124.688 1025.02 129.104 1025.11 134.672C1025.11 139.376 1023.77 143.6 1021.08 147.344C1018.49 150.992 1014.7 153.872 1009.71 155.984C1004.81 158.096 999.097 159.152 992.569 159.152ZM1035.28 117.824C1035.28 109.472 1036.96 102.176 1040.32 95.936C1043.78 89.696 1048.53 84.896 1054.58 81.536C1060.72 78.176 1067.73 76.496 1075.6 76.496C1085.68 76.496 1094.08 79.136 1100.8 84.416C1107.62 89.696 1112.08 97.136 1114.19 106.736H1087.99C1085.78 100.592 1081.51 97.52 1075.17 97.52C1070.66 97.52 1067.06 99.296 1064.37 102.848C1061.68 106.304 1060.34 111.296 1060.34 117.824C1060.34 124.352 1061.68 129.392 1064.37 132.944C1067.06 136.4 1070.66 138.128 1075.17 138.128C1081.51 138.128 1085.78 135.056 1087.99 128.912H1114.19C1112.08 138.32 1107.62 145.712 1100.8 151.088C1093.99 156.464 1085.59 159.152 1075.6 159.152C1067.73 159.152 1060.72 157.472 1054.58 154.112C1048.53 150.752 1043.78 145.952 1040.32 139.712C1036.96 133.472 1035.28 126.176 1035.28 117.824ZM1176.76 76.784C1185.97 76.784 1193.37 79.856 1198.93 86C1204.5 92.048 1207.29 100.4 1207.29 111.056V158H1182.81V114.368C1182.81 108.992 1181.41 104.816 1178.63 101.84C1175.85 98.864 1172.1 97.376 1167.4 97.376C1162.69 97.376 1158.95 98.864 1156.17 101.84C1153.38 104.816 1151.99 108.992 1151.99 114.368V158H1127.37V51.44H1151.99V88.448C1154.49 84.896 1157.89 82.064 1162.21 79.952C1166.53 77.84 1171.38 76.784 1176.76 76.784ZM1260.97 159.152C1253.1 159.152 1246 157.472 1239.66 154.112C1233.42 150.752 1228.48 145.952 1224.83 139.712C1221.28 133.472 1219.5 126.176 1219.5 117.824C1219.5 109.568 1221.32 102.32 1224.97 96.08C1228.62 89.744 1233.61 84.896 1239.95 81.536C1246.28 78.176 1253.39 76.496 1261.26 76.496C1269.13 76.496 1276.24 78.176 1282.57 81.536C1288.91 84.896 1293.9 89.744 1297.55 96.08C1301.2 102.32 1303.02 109.568 1303.02 117.824C1303.02 126.08 1301.15 133.376 1297.4 139.712C1293.76 145.952 1288.72 150.752 1282.28 154.112C1275.95 157.472 1268.84 159.152 1260.97 159.152ZM1260.97 137.84C1265.68 137.84 1269.66 136.112 1272.92 132.656C1276.28 129.2 1277.96 124.256 1277.96 117.824C1277.96 111.392 1276.33 106.448 1273.07 102.992C1269.9 99.536 1265.96 97.808 1261.26 97.808C1256.46 97.808 1252.48 99.536 1249.31 102.992C1246.14 106.352 1244.56 111.296 1244.56 117.824C1244.56 124.256 1246.09 129.2 1249.16 132.656C1252.33 136.112 1256.27 137.84 1260.97 137.84ZM1352.66 159.152C1344.79 159.152 1337.68 157.472 1331.35 154.112C1325.11 150.752 1320.16 145.952 1316.52 139.712C1312.96 133.472 1311.19 126.176 1311.19 117.824C1311.19 109.568 1313.01 102.32 1316.66 96.08C1320.31 89.744 1325.3 84.896 1331.64 81.536C1337.97 78.176 1345.08 76.496 1352.95 76.496C1360.82 76.496 1367.92 78.176 1374.26 81.536C1380.6 84.896 1385.59 89.744 1389.24 96.08C1392.88 102.32 1394.71 109.568 1394.71 117.824C1394.71 126.08 1392.84 133.376 1389.09 139.712C1385.44 145.952 1380.4 150.752 1373.97 154.112C1367.64 157.472 1360.53 159.152 1352.66 159.152ZM1352.66 137.84C1357.36 137.84 1361.35 136.112 1364.61 132.656C1367.97 129.2 1369.65 124.256 1369.65 117.824C1369.65 111.392 1368.02 106.448 1364.76 102.992C1361.59 99.536 1357.65 97.808 1352.95 97.808C1348.15 97.808 1344.16 99.536 1341 102.992C1337.83 106.352 1336.24 111.296 1336.24 117.824C1336.24 124.256 1337.78 129.2 1340.85 132.656C1344.02 136.112 1347.96 137.84 1352.66 137.84ZM1432.4 51.44V158H1407.77V51.44H1432.4Z" fill="#545454"/>
<path d="M394.279 89.024C396.583 85.28 399.895 82.256 404.215 79.952C408.535 77.648 413.479 76.496 419.047 76.496C425.671 76.496 431.671 78.176 437.047 81.536C442.423 84.896 446.647 89.696 449.719 95.936C452.887 102.176 454.471 109.424 454.471 117.68C454.471 125.936 452.887 133.232 449.719 139.568C446.647 145.808 442.423 150.656 437.047 154.112C431.671 157.472 425.671 159.152 419.047 159.152C413.383 159.152 408.439 158.048 404.215 155.84C399.991 153.536 396.679 150.512 394.279 146.768V158H369.655V51.44H394.279V89.024ZM429.415 117.68C429.415 111.536 427.687 106.736 424.231 103.28C420.871 99.728 416.695 97.952 411.703 97.952C406.807 97.952 402.631 99.728 399.175 103.28C395.815 106.832 394.135 111.68 394.135 117.824C394.135 123.968 395.815 128.816 399.175 132.368C402.631 135.92 406.807 137.696 411.703 137.696C416.599 137.696 420.775 135.92 424.231 132.368C427.687 128.72 429.415 123.824 429.415 117.68ZM479.773 69.296C475.453 69.296 471.901 68.048 469.117 65.552C466.429 62.96 465.085 59.792 465.085 56.048C465.085 52.208 466.429 49.04 469.117 46.544C471.901 43.952 475.453 42.656 479.773 42.656C483.997 42.656 487.453 43.952 490.141 46.544C492.925 49.04 494.317 52.208 494.317 56.048C494.317 59.792 492.925 62.96 490.141 65.552C487.453 68.048 483.997 69.296 479.773 69.296ZM492.013 77.648V158H467.389V77.648H492.013ZM558.818 76.784C568.226 76.784 575.714 79.856 581.282 86C586.946 92.048 589.778 100.4 589.778 111.056V158H565.298V114.368C565.298 108.992 563.906 104.816 561.122 101.84C558.338 98.864 554.594 97.376 549.89 97.376C545.186 97.376 541.442 98.864 538.658 101.84C535.874 104.816 534.482 108.992 534.482 114.368V158H509.858V77.648H534.482V88.304C536.978 84.752 540.338 81.968 544.562 79.952C548.786 77.84 553.538 76.784 558.818 76.784ZM601.993 117.68C601.993 109.424 603.529 102.176 606.601 95.936C609.769 89.696 614.041 84.896 619.417 81.536C624.793 78.176 630.793 76.496 637.417 76.496C643.081 76.496 648.025 77.648 652.249 79.952C656.569 82.256 659.881 85.28 662.185 89.024V77.648H686.809V158H662.185V146.624C659.785 150.368 656.425 153.392 652.105 155.696C647.881 158 642.937 159.152 637.273 159.152C630.745 159.152 624.793 157.472 619.417 154.112C614.041 150.656 609.769 145.808 606.601 139.568C603.529 133.232 601.993 125.936 601.993 117.68ZM662.185 117.824C662.185 111.68 660.457 106.832 657.001 103.28C653.641 99.728 649.513 97.952 644.617 97.952C639.721 97.952 635.545 99.728 632.089 103.28C628.729 106.736 627.049 111.536 627.049 117.68C627.049 123.824 628.729 128.72 632.089 132.368C635.545 135.92 639.721 137.696 644.617 137.696C649.513 137.696 653.641 135.92 657.001 132.368C660.457 128.816 662.185 123.968 662.185 117.824ZM729.247 91.04C732.127 86.624 735.727 83.168 740.047 80.672C744.367 78.08 749.167 76.784 754.447 76.784V102.848H747.679C741.535 102.848 736.927 104.192 733.855 106.88C730.783 109.472 729.247 114.08 729.247 120.704V158H704.623V77.648H729.247V91.04ZM848.297 77.648L797.897 196.16H771.401L789.833 155.264L757.145 77.648H784.649L803.225 127.904L821.657 77.648H848.297Z" fill="url(#paint0_linear)"/>
<defs>
<linearGradient id="paint0_linear" x1="381" y1="45.5" x2="821" y2="193.5" gradientUnits="userSpaceOnUse">
<stop stop-color="#B466CF"/>
<stop offset="0.791667" stop-color="#43A5FF"/>
<stop offset="1" stop-color="#F176C0"/>
</linearGradient>
</defs>
</svg>
