<svg width="564" height="504" viewBox="0 0 564 504" fill="none" xmlns="http://www.w3.org/2000/svg">
<path d="M488.076 136.453C488.076 136.453 468.779 167.989 475.671 176.527C482.562 185.065 423.965 185.279 423.965 185.279C423.965 185.279 432.767 139.404 430.176 128.847L488.076 136.453Z" fill="#FFB8B8"/>
<path d="M457.236 147.882C423.817 147.882 396.725 119.968 396.725 85.5339C396.725 51.1001 423.817 23.186 457.236 23.186C490.655 23.186 517.747 51.1001 517.747 85.5339C517.747 119.968 490.655 147.882 457.236 147.882Z" fill="#2F2E41"/>
<path d="M314.914 423.476V460.438L279.043 452.736L282.031 426.556L314.914 423.476Z" fill="#FFB8B8"/>
<path d="M187.866 429.636L87.7231 446.577L113.133 485.078C113.133 485.078 183.382 460.437 201.319 460.437C219.255 460.437 187.866 429.636 187.866 429.636Z" fill="#FFB8B8"/>
<path d="M415.057 355.714C415.057 355.714 340.323 266.391 316.409 271.012C292.494 275.632 282.031 303.352 282.031 303.352L268.579 440.416C268.579 440.416 316.409 445.037 316.409 440.416C316.409 435.796 325.377 337.233 325.377 337.233C325.377 337.233 395.626 497.398 432.993 391.135L415.057 355.714Z" fill="#D0CDE1"/>
<path d="M536.126 415.776C536.126 415.776 534.631 496.458 489.791 501.079C444.951 505.699 395.627 466.597 395.627 466.597L314.914 426.756C314.914 426.756 219.255 478.918 190.856 465.057C190.856 465.057 160.962 432.716 180.393 423.476C199.824 414.236 181.888 423.476 181.888 423.476L296.978 361.874C296.978 361.874 319.398 355.714 358.26 372.655C397.121 389.595 449.435 397.295 449.435 397.295L536.126 415.776Z" fill="#D0CDE1"/>
<path d="M461.392 152.428C436.628 152.428 416.552 131.743 416.552 106.227C416.552 80.7109 436.628 60.0259 461.392 60.0259C486.157 60.0259 506.233 80.7109 506.233 106.227C506.233 131.743 486.157 152.428 461.392 152.428Z" fill="#FFB8B8"/>
<path d="M397.121 235.591L400.111 300.272C400.111 300.272 398.616 384.975 412.068 391.135C418.869 394.246 432.53 400.498 445.16 407.336C454.636 412.449 463.53 417.87 468.492 422.536C469.808 423.689 470.942 425.045 471.855 426.556C477.834 437.336 516.695 435.796 525.663 428.096C534.631 420.396 528.653 437.336 536.126 440.416C543.36 443.404 553.39 418.979 547.247 382.511C547.052 381.294 546.828 380.062 546.589 378.815C539.728 343.471 550.505 258.814 548.846 226.104C548.749 223.605 548.495 221.115 548.084 218.65C543.6 194.009 486.383 143.866 475.681 165.226C462.499 191.592 432.216 167.505 427.015 155.508C397.121 153.968 386.659 190.929 386.659 190.929L397.121 235.591Z" fill="#5BB6BC"/>
<path d="M276.052 446.577C276.052 446.577 299.967 455.817 307.441 454.277C314.914 452.737 322.387 458.898 322.387 468.138C322.387 477.378 331.355 498.938 317.903 500.479C304.451 502.019 249.148 498.939 237.191 503.559C237.191 503.559 183.382 505.099 187.867 481.998C192.351 458.898 214.771 460.438 214.771 460.438C214.771 460.438 276.052 457.357 276.052 446.577Z" fill="#2F2E41"/>
<path d="M101.175 451.197C101.175 451.197 98.1858 441.957 93.7018 441.957C89.2177 441.957 53.3455 448.117 48.8615 446.577C44.3774 445.037 -7.93619 441.957 1.03188 468.137C9.99995 494.318 39.8934 497.398 39.8934 497.398C39.8934 497.398 93.7018 491.238 101.175 492.778C108.649 494.318 135.553 492.778 131.069 485.078C126.585 477.377 98.1858 463.517 101.175 451.197Z" fill="#2F2E41"/>
<path d="M237.23 229.991L229.03 264.843C228.938 265.231 228.952 265.638 229.071 266.019L266.268 385.788C266.415 386.263 266.716 386.671 267.12 386.944C267.524 387.218 268.006 387.34 268.487 387.291C268.968 387.243 269.418 387.025 269.763 386.676C270.107 386.326 270.325 385.866 270.379 385.371L275.525 338.713C275.559 338.404 275.528 338.09 275.434 337.793L241.292 229.83C241.149 229.379 240.868 228.989 240.491 228.718C240.114 228.447 239.661 228.311 239.201 228.329C238.742 228.347 238.301 228.519 237.945 228.819C237.589 229.119 237.338 229.531 237.23 229.991Z" fill="#3F3D56"/>
<path d="M240.246 232.934L232.674 262.837L265.483 372.046L273.054 338.244L240.246 232.934Z" fill="white"/>
<path d="M405.543 395.448C404.282 399.348 274.315 394.148 273.053 392.848C271.953 391.219 271.023 389.476 270.277 387.647C269.091 385.047 268.006 382.447 268.006 382.447L273.053 340.349L401.758 335.643C401.758 335.643 404.976 371.318 405.632 387.647C405.855 390.244 405.826 392.857 405.543 395.448Z" fill="#3F3D56"/>
<path opacity="0.1" d="M289.457 346.043L286.933 382.447H343.714V346.043H289.457Z" fill="black"/>
<path opacity="0.1" d="M362.641 357.745L362.302 357.675L363.904 373.345H395.45V357.745H362.641Z" fill="black"/>
<path opacity="0.1" d="M405.543 395.448C404.282 399.348 274.315 394.148 273.053 392.847C271.953 391.219 271.023 389.476 270.277 387.647H405.632C405.855 390.244 405.826 392.857 405.543 395.448Z" fill="black"/>
<path d="M447.211 34.7513C437.897 34.7513 430.347 26.972 430.347 17.3757C430.347 7.77938 437.897 0 447.211 0C456.524 0 464.074 7.77938 464.074 17.3757C464.074 26.972 456.524 34.7513 447.211 34.7513Z" fill="#2F2E41"/>
<path d="M470.186 29C470.186 29 452.956 58.5285 412.892 69.5824C372.827 80.6364 412.564 142.67 412.564 142.67C412.564 142.67 398.115 120.112 418.957 96.223C439.799 72.334 473.339 56.0016 470.186 29Z" fill="#2F2E41"/>
<path opacity="0.1" d="M445.16 407.336C448.852 414.529 453.186 421.998 453.919 425.016C454.412 427.064 459.883 425.879 468.492 422.537C485.755 415.807 515.679 400.391 543.6 384.975C544.886 384.272 546.107 383.447 547.246 382.511C547.052 381.294 546.828 380.062 546.589 378.815C539.728 343.471 550.505 258.815 548.846 226.104L536.126 221.73L510.717 246.371V351.094C510.717 351.094 444.951 388.055 440.467 391.135C438.18 392.706 441.334 399.867 445.16 407.336Z" fill="black"/>
<path d="M389.648 323.373L349.292 344.934C349.292 344.934 325.377 318.753 310.43 338.774C295.483 358.794 353.776 364.955 353.776 364.955C353.776 364.955 404.595 352.634 406.089 335.694C407.584 318.753 389.648 323.373 389.648 323.373Z" fill="#FFB8B8"/>
<path d="M456.908 380.356L432.993 386.516C432.993 386.516 406.089 352.635 377.69 364.955C349.292 377.275 413.563 401.916 413.563 401.916C413.563 401.916 447.94 420.397 461.392 404.996C474.844 389.596 456.908 380.356 456.908 380.356Z" fill="#FFB8B8"/>
<path d="M404.595 177.069C403.1 178.609 386.658 190.93 386.658 190.93C386.658 190.93 382.174 249.451 388.153 261.772C394.132 274.092 398.616 274.092 394.132 280.252C389.648 286.412 383.669 281.792 389.648 292.573C395.627 303.353 401.605 301.813 397.121 306.433C392.637 311.053 394.132 312.593 394.132 312.593L376.196 327.994C376.196 327.994 387.2 346.053 401.129 344.723C415.057 343.394 427.015 274.092 427.015 274.092L404.595 177.069Z" fill="#5BB6BC"/>
<path d="M536.126 214.031L549.578 218.651C549.578 218.651 585.45 354.175 543.6 377.275C501.749 400.376 455.414 423.477 453.919 417.317C452.424 411.156 435.983 386.516 440.467 383.436C444.951 380.355 510.717 343.394 510.717 343.394V238.671L536.126 214.031Z" fill="#5BB6BC"/>
<path opacity="0.1" d="M515.949 270.242L518.937 344.164L439.719 382.666L512.959 344.164L515.949 270.242Z" fill="black"/>
</svg>
