<svg width="703" height="446" viewBox="0 0 703 446" fill="none" xmlns="http://www.w3.org/2000/svg">
<path d="M404.771 167.683C417.605 167.683 428.01 156.772 428.01 143.312C428.01 129.852 417.605 118.941 404.771 118.941C391.936 118.941 381.531 129.852 381.531 143.312C381.531 156.772 391.936 167.683 404.771 167.683Z" fill="#2F2E41"/>
<path d="M411.245 119.611C415.267 119.612 419.22 120.707 422.717 122.789C426.215 124.872 429.137 127.87 431.199 131.492C433.26 135.113 434.39 139.234 434.479 143.451C434.567 147.667 433.61 151.836 431.703 155.549C433.717 152.905 435.185 149.851 436.012 146.579C436.838 143.308 437.006 139.892 436.505 136.549C436.003 133.206 434.843 130.009 433.098 127.162C431.353 124.315 429.062 121.881 426.37 120.014C423.678 118.147 420.645 116.889 417.464 116.319C414.283 115.749 411.024 115.881 407.894 116.705C404.765 117.529 401.833 119.029 399.286 121.107C396.739 123.185 394.633 125.797 393.102 128.776C395.274 125.916 398.034 123.606 401.175 122.02C404.316 120.433 407.758 119.61 411.245 119.611Z" fill="#2F2E41"/>
<path d="M361.345 143.261C399.047 143.261 429.61 111.208 429.61 71.67C429.61 32.1316 399.047 0.0794067 361.345 0.0794067C323.643 0.0794067 293.08 32.1316 293.08 71.67C293.08 111.208 323.643 143.261 361.345 143.261Z" fill="#2F2E41"/>
<path d="M307.768 27.2518C319.531 13.3787 335.973 4.84091 353.624 3.44039C371.276 2.03986 388.756 7.88617 402.375 19.7454C401.816 19.1889 401.264 18.6279 400.684 18.0872C387.152 5.47728 369.398 -0.979718 351.328 0.136239C333.257 1.2522 316.348 9.84972 304.321 24.038C292.294 38.2262 286.133 56.8434 287.193 75.795C288.253 94.7466 296.447 112.481 309.973 125.097C310.553 125.638 311.149 126.147 311.742 126.664C298.916 113.868 291.332 96.3481 290.591 77.8001C289.849 59.2521 296.009 41.1276 307.768 27.2518Z" fill="#2F2E41"/>
<path d="M360.767 142.654C385.049 142.654 404.734 122.01 404.734 96.5443C404.734 71.0789 385.049 50.4351 360.767 50.4351C336.484 50.4351 316.799 71.0789 316.799 96.5443C316.799 122.01 336.484 142.654 360.767 142.654Z" fill="#FFB8B8"/>
<path d="M329.527 111.105C329.527 111.105 335.312 166.921 326.056 172.988C316.799 179.055 379.279 187.549 379.279 187.549C379.279 187.549 370.023 126.879 393.163 111.105H329.527Z" fill="#FFB8B8"/>
<path d="M385.064 163.281C385.064 163.281 402.293 154.844 377.48 157.849C352.667 160.854 331.26 149.327 331.26 149.327C331.26 149.327 323.742 141.44 322.585 149.934C321.428 158.428 326.056 174.202 300.601 176.629C275.146 179.055 252.006 171.775 242.749 189.976C233.493 208.177 238.121 287.048 238.121 287.048C238.121 287.048 255.477 352.572 269.361 362.279C283.246 371.986 404.734 358.639 404.734 358.639L439.445 293.115V216.671C439.445 216.671 434.816 189.976 402.42 197.256C402.42 197.256 381.593 192.403 382.75 181.482C383.907 170.562 385.064 163.281 385.064 163.281Z" fill="#D0CDE1"/>
<path d="M273.953 408.649C274.668 405.381 275.147 403.533 275.147 403.533L274.777 400.874L270.965 373.728L269.362 362.278C283.243 356.211 286.717 328.301 286.717 328.301L287.24 327.973L289.609 326.486V326.48L298.114 321.129L298.287 321.022L301.722 323.42L308.701 328.301C333.117 347.131 357.981 346.796 373.324 343.83C382.704 342.015 388.534 339.223 388.534 339.223L405.365 333.337L405.888 333.156L406.406 333.236L416.277 334.803L416.456 334.837L417.273 334.964L414.987 351.537L411.673 375.623C420.427 380.485 428.211 389.618 435.017 400.874C436.524 403.365 437.984 405.957 439.397 408.649C441.236 412.131 442.992 415.753 444.665 419.463C444.869 419.905 445.067 420.354 445.265 420.802C445.91 422.255 446.549 423.722 447.168 425.195H270.888C271.118 423.715 271.348 422.302 271.571 420.943C271.583 420.897 271.591 420.85 271.597 420.802C271.68 420.347 271.756 419.905 271.827 419.463C272.606 415.044 273.359 411.354 273.953 408.649Z" fill="#2F2E41"/>
<path d="M267.047 175.415C267.047 175.415 279.774 199.683 275.146 230.018C270.518 260.353 289.031 335.584 289.031 335.584L302.915 331.944C302.915 331.944 293.659 268.847 295.973 254.286C298.287 239.725 298.287 182.696 286.717 175.415C275.146 168.135 267.047 175.415 267.047 175.415Z" fill="#2F2E41"/>
<path d="M401.606 200.635L406.469 334.977L415.725 341.044C415.725 341.044 429.031 193.616 422.089 193.616H407.964C407.1 193.616 406.246 193.801 405.452 194.158C404.659 194.515 403.943 195.038 403.348 195.694C402.753 196.351 402.292 197.127 401.993 197.977C401.693 198.826 401.562 199.73 401.606 200.635Z" fill="#2F2E41"/>
<path d="M295.394 332.551C298.589 332.551 301.179 329.834 301.179 326.484C301.179 323.133 298.589 320.417 295.394 320.417C292.199 320.417 289.609 323.133 289.609 326.484C289.609 329.834 292.199 332.551 295.394 332.551Z" fill="#FF5454"/>
<path d="M411.097 338.618C414.292 338.618 416.882 335.901 416.882 332.551C416.882 329.2 414.292 326.484 411.097 326.484C407.902 326.484 405.312 329.2 405.312 332.551C405.312 335.901 407.902 338.618 411.097 338.618Z" fill="#FF5454"/>
<path d="M323.163 38.9075V85.0168H333.345L346.304 70.4559L344.568 85.0168H389.576L386.799 70.4559L392.353 85.0168H399.527V38.9075H323.163Z" fill="#2F2E41"/>
<path d="M316.221 93.5108C318.138 93.5108 319.692 90.5229 319.692 86.8371C319.692 83.1513 318.138 80.1634 316.221 80.1634C314.304 80.1634 312.75 83.1513 312.75 86.8371C312.75 90.5229 314.304 93.5108 316.221 93.5108Z" fill="#FFB8B8"/>
<path d="M405.312 93.5108C407.229 93.5108 408.783 90.5229 408.783 86.8371C408.783 83.1513 407.229 80.1634 405.312 80.1634C403.395 80.1634 401.841 83.1513 401.841 86.8371C401.841 90.5229 403.395 93.5108 405.312 93.5108Z" fill="#FFB8B8"/>
<path d="M429.031 331.944C429.031 331.944 376.386 321.63 372.915 339.831C369.444 358.032 431.345 350.145 431.345 350.145L429.031 331.944Z" fill="#FFB8B8"/>
<path d="M427.874 206.964C427.874 206.964 553.991 312.53 530.85 338.011C507.709 363.492 419.775 356.212 419.775 356.212L425.56 325.877L476.469 319.81L451.015 293.115L427.874 295.542V206.964Z" fill="#D0CDE1"/>
<path d="M241.592 382.907L257.791 396.254C257.791 396.254 269.361 433.869 286.717 422.949C304.072 412.028 270.518 373.199 270.518 373.199L250.849 365.919L241.592 382.907Z" fill="#FFB8B8"/>
<path d="M257.791 187.549L241.636 192.648C241.636 192.648 129.361 279.768 124.732 304.036C120.104 328.304 146.716 341.651 146.716 341.651L247.378 391.4L257.791 362.279L210.353 336.797C210.353 336.797 213.824 329.517 199.939 328.304C186.055 327.09 183.741 311.316 183.741 311.316C183.741 311.316 211.51 266.42 226.551 276.127C241.592 285.835 246.221 293.115 246.221 293.115L257.791 187.549Z" fill="#D0CDE1"/>
<path d="M488.205 412.807V416.872C488.207 417.987 488.01 419.093 487.624 420.133C487.453 420.596 487.245 421.044 487.005 421.472C486.244 422.811 485.164 423.921 483.871 424.691C482.578 425.461 481.117 425.865 479.63 425.865H194.503C193.016 425.865 191.555 425.461 190.262 424.691C188.969 423.921 187.889 422.811 187.128 421.472C186.888 421.044 186.68 420.596 186.509 420.133C186.123 419.093 185.926 417.987 185.928 416.872V412.807C185.928 411.626 186.149 410.456 186.58 409.365C187.011 408.274 187.642 407.282 188.439 406.447C189.235 405.612 190.181 404.95 191.221 404.498C192.262 404.046 193.377 403.814 194.503 403.814H210.938V401.919C210.938 401.87 210.947 401.821 210.965 401.775C210.983 401.73 211.01 401.689 211.043 401.654C211.076 401.619 211.116 401.591 211.159 401.572C211.202 401.554 211.249 401.544 211.296 401.544H219.871C219.918 401.544 219.965 401.554 220.008 401.572C220.051 401.591 220.091 401.619 220.124 401.654C220.157 401.689 220.184 401.73 220.202 401.775C220.22 401.821 220.229 401.87 220.229 401.919V403.814H225.586V401.919C225.586 401.87 225.595 401.821 225.613 401.775C225.631 401.73 225.657 401.689 225.69 401.654C225.724 401.619 225.763 401.591 225.806 401.572C225.85 401.554 225.896 401.544 225.943 401.544H234.519C234.565 401.544 234.612 401.554 234.655 401.572C234.699 401.591 234.738 401.619 234.772 401.654C234.805 401.689 234.831 401.73 234.849 401.775C234.867 401.821 234.876 401.87 234.876 401.919V403.814H240.24V401.919C240.239 401.87 240.249 401.821 240.267 401.775C240.285 401.73 240.311 401.689 240.344 401.654C240.377 401.619 240.417 401.591 240.46 401.572C240.504 401.554 240.55 401.544 240.597 401.544H249.172C249.219 401.544 249.266 401.554 249.309 401.572C249.353 401.591 249.392 401.619 249.425 401.654C249.459 401.689 249.485 401.73 249.503 401.775C249.521 401.821 249.53 401.87 249.53 401.919V403.814H254.887V401.919C254.887 401.87 254.896 401.821 254.914 401.775C254.932 401.73 254.958 401.689 254.992 401.654C255.025 401.619 255.064 401.591 255.108 401.572C255.151 401.554 255.198 401.544 255.245 401.544H263.82C263.867 401.544 263.913 401.554 263.957 401.572C264 401.591 264.04 401.619 264.073 401.654C264.106 401.689 264.132 401.73 264.15 401.775C264.168 401.821 264.177 401.87 264.177 401.919V403.814H269.534V401.919C269.534 401.87 269.544 401.821 269.561 401.775C269.579 401.73 269.606 401.689 269.639 401.654C269.672 401.619 269.712 401.591 269.755 401.572C269.798 401.554 269.845 401.544 269.892 401.544H278.467C278.514 401.544 278.561 401.554 278.604 401.572C278.648 401.591 278.687 401.619 278.72 401.654C278.753 401.689 278.78 401.73 278.798 401.775C278.816 401.821 278.825 401.87 278.825 401.919V403.814H284.188V401.919C284.188 401.87 284.197 401.821 284.215 401.775C284.233 401.73 284.26 401.689 284.293 401.654C284.326 401.619 284.365 401.591 284.409 401.572C284.452 401.554 284.499 401.544 284.546 401.544H293.121C293.168 401.544 293.215 401.554 293.258 401.572C293.301 401.591 293.341 401.619 293.374 401.654C293.407 401.689 293.434 401.73 293.452 401.775C293.469 401.821 293.479 401.87 293.479 401.919V403.814H298.836V401.919C298.836 401.87 298.845 401.821 298.863 401.775C298.881 401.73 298.907 401.689 298.94 401.654C298.973 401.619 299.013 401.591 299.056 401.572C299.1 401.554 299.146 401.544 299.193 401.544H366.365C366.412 401.544 366.458 401.554 366.501 401.572C366.545 401.591 366.584 401.619 366.618 401.654C366.651 401.689 366.677 401.73 366.695 401.775C366.713 401.821 366.722 401.87 366.722 401.919V403.814H372.086V401.919C372.085 401.87 372.095 401.821 372.113 401.775C372.131 401.73 372.157 401.689 372.19 401.654C372.223 401.619 372.263 401.591 372.306 401.572C372.35 401.554 372.396 401.544 372.443 401.544H381.018C381.113 401.545 381.203 401.585 381.27 401.655C381.337 401.725 381.375 401.82 381.376 401.919V403.814H386.733V401.919C386.733 401.87 386.742 401.821 386.76 401.775C386.778 401.73 386.804 401.689 386.838 401.654C386.871 401.619 386.91 401.591 386.954 401.572C386.997 401.554 387.044 401.544 387.091 401.544H395.666C395.713 401.544 395.759 401.554 395.803 401.572C395.846 401.591 395.886 401.619 395.919 401.654C395.952 401.689 395.978 401.73 395.996 401.775C396.014 401.821 396.023 401.87 396.023 401.919V403.814H401.38V401.919C401.38 401.87 401.39 401.821 401.407 401.775C401.425 401.73 401.452 401.689 401.485 401.654C401.518 401.619 401.558 401.591 401.601 401.572C401.645 401.554 401.691 401.544 401.738 401.544H410.313C410.36 401.544 410.407 401.554 410.45 401.572C410.494 401.591 410.533 401.619 410.566 401.654C410.599 401.689 410.626 401.73 410.644 401.775C410.662 401.821 410.671 401.87 410.671 401.919V403.814H416.034V401.919C416.034 401.87 416.043 401.821 416.061 401.775C416.079 401.73 416.106 401.689 416.139 401.654C416.172 401.619 416.211 401.591 416.255 401.572C416.298 401.554 416.345 401.544 416.392 401.544H424.967C425.061 401.545 425.15 401.585 425.216 401.656C425.282 401.726 425.319 401.821 425.318 401.919V403.814H430.682V401.919C430.682 401.87 430.691 401.821 430.709 401.775C430.727 401.73 430.753 401.689 430.786 401.654C430.819 401.619 430.859 401.591 430.902 401.572C430.946 401.554 430.992 401.544 431.039 401.544H439.614C439.661 401.544 439.708 401.554 439.751 401.572C439.795 401.591 439.834 401.619 439.867 401.654C439.901 401.689 439.927 401.73 439.945 401.775C439.963 401.821 439.972 401.87 439.972 401.919V403.814H445.329V401.919C445.329 401.87 445.338 401.821 445.356 401.775C445.374 401.73 445.4 401.689 445.434 401.654C445.467 401.619 445.506 401.591 445.55 401.572C445.593 401.554 445.64 401.544 445.687 401.544H454.262C454.309 401.544 454.355 401.554 454.399 401.572C454.442 401.591 454.482 401.619 454.515 401.654C454.548 401.689 454.574 401.73 454.592 401.775C454.61 401.821 454.62 401.87 454.619 401.919V403.814H479.63C480.756 403.814 481.871 404.046 482.912 404.498C483.952 404.95 484.898 405.612 485.694 406.447C486.49 407.282 487.122 408.274 487.553 409.365C487.984 410.456 488.205 411.626 488.205 412.807Z" fill="#3F3D56"/>
<path d="M571.114 420.13H103.086V421.469H571.114V420.13Z" fill="#3F3D56"/>
<path d="M465.246 241.63H358.97V239.332H310.781V241.63H204.067C202.161 241.63 200.332 242.424 198.984 243.838C197.636 245.252 196.878 247.169 196.878 249.169V401.782C196.878 403.782 197.636 405.699 198.984 407.113C200.332 408.527 202.161 409.321 204.067 409.321H465.246C467.152 409.321 468.981 408.527 470.329 407.113C471.677 405.699 472.435 403.782 472.435 401.782V249.169C472.435 248.179 472.249 247.198 471.887 246.284C471.526 245.369 470.997 244.538 470.329 243.838C469.661 243.138 468.869 242.582 467.997 242.203C467.125 241.825 466.19 241.63 465.246 241.63Z" fill="#3F3D56"/>
<path d="M334.866 311.651C343.682 311.651 350.828 304.156 350.828 294.911C350.828 285.665 343.682 278.17 334.866 278.17C326.05 278.17 318.903 285.665 318.903 294.911C318.903 304.156 326.05 311.651 334.866 311.651Z" stroke="#D0CDE1" stroke-width="2" stroke-miterlimit="10"/>
<path d="M329.758 317.678C338.574 317.678 345.72 310.183 345.72 300.937C345.72 291.692 338.574 284.197 329.758 284.197C320.942 284.197 313.795 291.692 313.795 300.937C313.795 310.183 320.942 317.678 329.758 317.678Z" fill="#D0CDE1"/>
<path d="M137.293 444.326H16.6141V445.84H137.293V444.326Z" fill="#3F3D56"/>
<path d="M664.064 444.326H543.385V445.84H664.064V444.326Z" fill="#3F3D56"/>
<path d="M86.9263 395.555C74.2129 417.322 78.5869 444.398 78.5869 444.398C78.5869 444.398 103.573 436.182 116.287 414.415C129 392.649 124.626 365.573 124.626 365.573C124.626 365.573 99.6397 373.788 86.9263 395.555Z" fill="#3F3D56"/>
<path d="M78.0681 444.578L77.3452 444.457C77.0838 444.414 51.0654 439.893 35.4831 420.341C19.9007 400.789 20.2757 373.133 20.2808 372.856L20.2963 372.089L21.0192 372.209C21.2806 372.252 47.299 376.773 62.8814 396.326C78.4637 415.878 78.0887 443.533 78.0836 443.81L78.0681 444.578Z" fill="#FF5454"/>
<path d="M79.0946 445.266L78.3963 445.036C78.1437 444.953 53.0342 436.495 40.3425 414.766C27.6509 393.036 31.8742 365.734 31.9178 365.461L32.04 364.704L32.7384 364.934C32.9909 365.017 58.1005 373.475 70.7921 395.205C83.4838 416.935 79.2605 444.236 79.2168 444.509L79.0946 445.266ZM33.0701 366.467C32.4921 371.049 30.1881 394.816 41.4313 414.066C52.675 433.315 73.9105 441.961 78.0645 443.504C78.6426 438.922 80.9466 415.155 69.7034 395.905C58.4596 376.655 37.2242 368.009 33.0701 366.467H33.0701Z" fill="#3F3D56"/>
<path d="M79.3802 373.867C87.1383 373.867 93.4274 367.271 93.4274 359.135C93.4274 350.999 87.1383 344.403 79.3802 344.403C71.6221 344.403 65.333 350.999 65.333 359.135C65.333 367.271 71.6221 373.867 79.3802 373.867Z" fill="#3F3D56"/>
<path d="M255.269 172.932L174.685 87.7542H136.641V86.4149H175.218L175.406 86.6138L256.177 171.99L255.269 172.932Z" fill="#3F3D56"/>
<path d="M444.538 170.253L525.122 85.0757H563.166V83.7365H524.589L524.402 83.9354L443.63 169.312L444.538 170.253Z" fill="#3F3D56"/>
<path d="M93.2225 45.7615H6.10352e-05L6.10352e-05 65.0981H93.2225V45.7615Z" fill="#D0CDE1"/>
<path d="M93.2225 75.4333H6.10352e-05L6.10352e-05 94.7699H93.2225V75.4333Z" fill="#D0CDE1"/>
<path d="M93.2225 105.105H6.10352e-05L6.10352e-05 124.442H93.2225V105.105Z" fill="#D0CDE1"/>
<path opacity="0.15" d="M38.5653 45.7615H6.10352e-05L6.10352e-05 65.0982H38.5653V45.7615Z" fill="black"/>
<path opacity="0.15" d="M12.4852 75.4332H0L0 94.7699H12.4852V75.4332Z" fill="black"/>
<path opacity="0.15" d="M62.1484 105.105H6.10352e-05L6.10352e-05 124.442H62.1484V105.105Z" fill="black"/>
<path d="M703 50.1056H609.635V58.8306H703V50.1056Z" fill="#D0CDE1"/>
<path d="M593.148 48.9762H574.659V68.3652H593.148V48.9762Z" fill="#FF5454"/>
<path d="M593.148 78.0596H574.659V97.4486H593.148V78.0596Z" fill="#FF5454"/>
<path d="M593.148 107.143H574.659V126.532H593.148V107.143Z" fill="#FF5454"/>
<path d="M598.256 64.3476H578.491V43.6191H598.256V64.3476ZM579.768 63.0083H596.979V44.9584H579.768V63.0083Z" fill="#3F3D56"/>
<path d="M703 79.189H609.635V87.914H703V79.189Z" fill="#D0CDE1"/>
<path d="M598.256 93.4308H578.491V72.7027H598.256V93.4308ZM579.768 92.0916H596.979V74.042H579.768V92.0916Z" fill="#3F3D56"/>
<path d="M703 108.272H609.635V116.997H703V108.272Z" fill="#D0CDE1"/>
<path d="M598.256 122.514H578.491V101.786H598.256V122.514ZM579.768 121.175H596.979V103.125H579.768V121.175Z" fill="#3F3D56"/>
<path d="M120.678 66.3263C126.321 66.3263 130.895 61.5296 130.895 55.6124C130.895 49.6953 126.321 44.8985 120.678 44.8985C115.036 44.8985 110.462 49.6953 110.462 55.6124C110.462 61.5296 115.036 66.3263 120.678 66.3263Z" fill="#FF5454"/>
<path d="M120.678 98.468C126.321 98.468 130.895 93.6712 130.895 87.7541C130.895 81.837 126.321 77.0402 120.678 77.0402C115.036 77.0402 110.462 81.837 110.462 87.7541C110.462 93.6712 115.036 98.468 120.678 98.468Z" fill="#FF5454"/>
<path d="M120.678 127.262C126.321 127.262 130.895 122.465 130.895 116.548C130.895 110.631 126.321 105.834 120.678 105.834C115.036 105.834 110.462 110.631 110.462 116.548C110.462 122.465 115.036 127.262 120.678 127.262Z" fill="#FF5454"/>
<path d="M115.57 64.3175C113.424 64.3175 111.325 63.6498 109.54 62.399C107.755 61.1482 106.364 59.3703 105.542 57.2902C104.72 55.2102 104.505 52.9213 104.924 50.7131C105.343 48.5049 106.377 46.4766 107.895 44.8846C109.413 43.2926 111.347 42.2084 113.453 41.7691C115.558 41.3299 117.741 41.5554 119.724 42.4169C121.708 43.2785 123.403 44.7376 124.596 46.6096C125.788 48.4816 126.425 50.6825 126.425 52.9339C126.422 55.952 125.277 58.8455 123.242 60.9796C121.207 63.1137 118.448 64.3141 115.57 64.3175ZM115.57 42.8897C113.676 42.8897 111.824 43.4787 110.249 44.5824C108.674 45.6861 107.447 47.2548 106.722 49.0902C105.997 50.9255 105.807 52.9451 106.177 54.8935C106.546 56.8419 107.458 58.6316 108.798 60.0363C110.137 61.441 111.844 62.3977 113.702 62.7852C115.56 63.1728 117.485 62.9739 119.236 62.2136C120.986 61.4534 122.481 60.166 123.534 58.5142C124.586 56.8625 125.148 54.9205 125.148 52.9339C125.145 50.271 124.135 47.7179 122.34 45.8349C120.544 43.9519 118.11 42.8927 115.57 42.8897Z" fill="#3F3D56"/>
<path d="M115.57 96.4591C113.424 96.4591 111.325 95.7915 109.54 94.5407C107.755 93.2898 106.364 91.512 105.542 89.4319C104.72 87.3518 104.505 85.063 104.924 82.8548C105.343 80.6466 106.377 78.6183 107.895 77.0263C109.413 75.4343 111.347 74.3501 113.453 73.9108C115.558 73.4716 117.741 73.697 119.724 74.5586C121.708 75.4202 123.403 76.8793 124.596 78.7513C125.788 80.6233 126.425 82.8242 126.425 85.0756C126.422 88.0937 125.277 90.9872 123.242 93.1213C121.207 95.2554 118.448 96.4558 115.57 96.4591ZM115.57 75.0314C113.676 75.0314 111.824 75.6204 110.249 76.7241C108.674 77.8278 107.447 79.3965 106.722 81.2318C105.997 83.0672 105.807 85.0868 106.177 87.0352C106.546 88.9836 107.458 90.7733 108.798 92.178C110.137 93.5827 111.844 94.5394 113.702 94.9269C115.56 95.3145 117.485 95.1155 119.236 94.3553C120.986 93.5951 122.481 92.3077 123.534 90.6559C124.586 89.0042 125.148 87.0622 125.148 85.0756C125.145 82.4126 124.135 79.8596 122.34 77.9766C120.544 76.0936 118.11 75.0344 115.57 75.0314Z" fill="#3F3D56"/>
<path d="M115.57 125.253C113.424 125.253 111.325 124.585 109.54 123.334C107.755 122.083 106.364 120.306 105.542 118.226C104.72 116.145 104.505 113.857 104.924 111.648C105.343 109.44 106.377 107.412 107.895 105.82C109.413 104.228 111.347 103.144 113.453 102.704C115.558 102.265 117.741 102.491 119.724 103.352C121.708 104.214 123.403 105.673 124.596 107.545C125.788 109.417 126.425 111.618 126.425 113.869C126.422 116.887 125.277 119.781 123.242 121.915C121.207 124.049 118.448 125.249 115.57 125.253ZM115.57 103.825C113.676 103.825 111.824 104.414 110.249 105.518C108.674 106.621 107.447 108.19 106.722 110.025C105.997 111.861 105.807 113.88 106.177 115.829C106.546 117.777 107.458 119.567 108.798 120.972C110.137 122.376 111.844 123.333 113.702 123.721C115.56 124.108 117.485 123.909 119.236 123.149C120.986 122.389 122.481 121.101 123.534 119.45C124.586 117.798 125.148 115.856 125.148 113.869C125.145 111.206 124.135 108.653 122.34 106.77C120.544 104.887 118.11 103.828 115.57 103.825Z" fill="#3F3D56"/>
<path d="M631.487 399.127H630.21V389.082C630.21 388.55 630.412 388.039 630.771 387.663C631.131 387.286 631.617 387.074 632.125 387.074H635.318C635.487 387.073 635.649 387.003 635.769 386.877C635.889 386.752 635.956 386.582 635.956 386.404V379.708C635.956 379.53 635.889 379.36 635.769 379.234C635.649 379.109 635.487 379.038 635.318 379.038H632.125C631.617 379.038 631.131 378.826 630.771 378.449C630.412 378.073 630.21 377.562 630.21 377.029V373.681C630.21 373.504 630.142 373.333 630.023 373.208C629.903 373.082 629.741 373.012 629.571 373.012H623.825C623.317 373.011 622.83 372.799 622.471 372.423C622.112 372.046 621.91 371.535 621.909 371.003V370.333C621.909 370.156 621.842 369.985 621.722 369.86C621.602 369.734 621.44 369.664 621.271 369.664H598.284C598.115 369.664 597.953 369.734 597.833 369.86C597.713 369.985 597.646 370.156 597.646 370.333V371.003C597.645 371.535 597.443 372.046 597.084 372.423C596.725 372.799 596.238 373.011 595.73 373.012H589.984C589.814 373.012 589.652 373.082 589.532 373.208C589.413 373.333 589.345 373.504 589.345 373.681V377.029C589.345 377.562 589.143 378.073 588.783 378.449C588.424 378.826 587.937 379.038 587.43 379.038H584.237C584.068 379.038 583.905 379.109 583.786 379.234C583.666 379.36 583.599 379.53 583.599 379.708V386.404C583.599 386.582 583.666 386.752 583.786 386.877C583.905 387.003 584.068 387.073 584.237 387.074H588.068C588.576 387.074 589.063 387.286 589.422 387.663C589.781 388.039 589.983 388.55 589.984 389.082V399.127H588.707V389.082C588.707 388.905 588.639 388.735 588.519 388.609C588.4 388.484 588.237 388.413 588.068 388.413H584.237C583.729 388.412 583.242 388.2 582.883 387.824C582.524 387.447 582.322 386.937 582.322 386.404V379.708C582.322 379.175 582.524 378.665 582.883 378.288C583.242 377.911 583.729 377.7 584.237 377.699H587.43C587.599 377.699 587.761 377.628 587.881 377.503C588.001 377.377 588.068 377.207 588.068 377.029V373.681C588.069 373.149 588.271 372.638 588.63 372.261C588.989 371.885 589.476 371.673 589.984 371.672H595.73C595.9 371.672 596.062 371.602 596.182 371.476C596.301 371.351 596.369 371.18 596.369 371.003V370.333C596.369 369.801 596.571 369.29 596.93 368.913C597.29 368.537 597.776 368.325 598.284 368.324H621.271C621.778 368.325 622.265 368.537 622.624 368.913C622.984 369.29 623.186 369.801 623.186 370.333V371.003C623.186 371.18 623.254 371.351 623.373 371.476C623.493 371.602 623.655 371.672 623.825 371.672H629.571C630.079 371.673 630.566 371.885 630.925 372.261C631.284 372.638 631.486 373.149 631.487 373.681V377.029C631.487 377.207 631.554 377.377 631.674 377.503C631.794 377.628 631.956 377.699 632.125 377.699H635.318C635.826 377.7 636.313 377.911 636.672 378.288C637.031 378.665 637.233 379.175 637.233 379.708V386.404C637.233 386.937 637.031 387.447 636.672 387.824C636.313 388.2 635.826 388.412 635.318 388.413H632.125C631.956 388.413 631.794 388.484 631.674 388.609C631.554 388.735 631.487 388.905 631.487 389.082V399.127Z" fill="#3F3D56"/>
<path d="M629.571 446H590.622C590.114 445.999 589.627 445.788 589.268 445.411C588.909 445.034 588.707 444.524 588.707 443.991V415.198H589.984V443.991C589.984 444.169 590.051 444.339 590.171 444.465C590.29 444.59 590.453 444.661 590.622 444.661H629.571C629.741 444.661 629.903 444.59 630.023 444.465C630.142 444.339 630.21 444.169 630.21 443.991V415.198H631.487V443.991C631.486 444.524 631.284 445.034 630.925 445.411C630.566 445.788 630.079 445.999 629.571 446Z" fill="#3F3D56"/>
<path d="M637.872 403.814H589.984C589.278 403.814 588.707 404.414 588.707 405.153V418.546C588.707 419.285 589.278 419.885 589.984 419.885H637.872C638.577 419.885 639.149 419.285 639.149 418.546V405.153C639.149 404.414 638.577 403.814 637.872 403.814Z" fill="#FF5454"/>
<path d="M633.722 415.867H585.833C585.325 415.867 584.839 415.655 584.479 415.278C584.12 414.902 583.918 414.391 583.918 413.858V400.466C583.918 399.933 584.12 399.423 584.479 399.046C584.839 398.67 585.325 398.458 585.833 398.457H633.722C634.229 398.458 634.716 398.67 635.075 399.046C635.435 399.423 635.637 399.933 635.637 400.466V413.858C635.637 414.391 635.435 414.902 635.075 415.278C634.716 415.655 634.229 415.867 633.722 415.867ZM585.833 399.796C585.664 399.796 585.502 399.867 585.382 399.993C585.262 400.118 585.195 400.288 585.195 400.466V413.858C585.195 414.036 585.262 414.206 585.382 414.332C585.502 414.457 585.664 414.528 585.833 414.528H633.722C633.891 414.528 634.053 414.457 634.173 414.332C634.293 414.206 634.36 414.036 634.36 413.858V400.466C634.36 400.288 634.293 400.118 634.173 399.993C634.053 399.867 633.891 399.796 633.722 399.796H585.833Z" fill="#3F3D56"/>
<path d="M608.5 363.637C606.803 351.646 606.355 339.496 607.163 327.403L608.5 307.389C601.131 322.767 602.796 343.007 608.5 363.637V363.637Z" fill="#D0CDE1"/>
<path d="M614.247 366.985C613.43 359.829 613.214 352.612 613.603 345.417L614.247 333.504C610.701 342.658 611.503 354.706 614.247 366.985Z" fill="#D0CDE1"/>
</svg>
