<svg width="607" height="171" viewBox="0 0 607 171" fill="none" xmlns="http://www.w3.org/2000/svg">
<path d="M0.971188 71.52C5.67519 71.328 9.13119 70.32 11.3392 68.496C13.5472 66.576 14.6512 63.888 14.6512 60.432C14.6512 57.84 14.1712 52.704 13.2112 45.024C13.1152 44.256 12.8272 41.808 12.3472 37.68C11.8672 33.456 11.6272 29.664 11.6272 26.304C11.6272 18.144 14.1232 11.808 19.1152 7.29599C24.1072 2.68799 30.7792 0.383995 39.1312 0.383995H49.4992V20.544H43.8832C40.8112 20.544 38.6032 21.216 37.2592 22.56C35.9152 23.904 35.2432 25.968 35.2432 28.752C35.2432 30.864 35.6272 35.664 36.3952 43.152C37.2592 52.464 37.6912 58.56 37.6912 61.44C37.6912 66.72 36.3952 71.088 33.8032 74.544C31.3072 78 27.4672 80.208 22.2832 81.168V81.456C27.4672 82.512 31.3072 84.768 33.8032 88.224C36.3952 91.584 37.6912 95.952 37.6912 101.328C37.6912 104.208 37.2592 110.304 36.3952 119.616C35.6272 126.912 35.2432 131.664 35.2432 133.872C35.2432 136.656 35.9152 138.72 37.2592 140.064C38.6032 141.504 40.8112 142.224 43.8832 142.224H49.4992V162.384H39.1312C30.7792 162.384 24.1072 160.08 19.1152 155.472C14.1232 150.96 11.6272 144.576 11.6272 136.32C11.6272 132.96 11.8672 129.216 12.3472 125.088C12.8272 120.864 13.1152 118.368 13.2112 117.6C14.1712 109.92 14.6512 104.784 14.6512 102.192C14.6512 98.928 13.5472 96.336 11.3392 94.416C9.13119 92.4 5.67519 91.296 0.971188 91.104V71.52ZM606.025 91.104C601.321 91.296 597.865 92.4 595.657 94.416C593.449 96.336 592.345 98.928 592.345 102.192C592.345 104.784 592.825 109.92 593.785 117.6C593.881 118.368 594.169 120.864 594.649 125.088C595.129 129.216 595.369 132.96 595.369 136.32C595.369 144.576 592.873 150.96 587.881 155.472C582.889 160.08 576.217 162.384 567.865 162.384H557.497V142.224H563.113C566.185 142.224 568.393 141.504 569.737 140.064C571.081 138.72 571.753 136.656 571.753 133.872C571.753 131.664 571.369 126.912 570.601 119.616C569.737 110.304 569.305 104.208 569.305 101.328C569.305 95.952 570.553 91.584 573.049 88.224C575.641 84.768 579.529 82.512 584.713 81.456V81.168C579.529 80.208 575.641 78 573.049 74.544C570.553 71.088 569.305 66.72 569.305 61.44C569.305 58.56 569.737 52.464 570.601 43.152C571.369 35.664 571.753 30.864 571.753 28.752C571.753 25.968 571.081 23.904 569.737 22.56C568.393 21.216 566.185 20.544 563.113 20.544H557.497V0.383995H567.865C576.217 0.383995 582.889 2.68799 587.881 7.29599C592.873 11.808 595.369 18.144 595.369 26.304C595.369 29.664 595.129 33.456 594.649 37.68C594.169 41.808 593.881 44.256 593.785 45.024C592.825 52.704 592.345 57.84 592.345 60.432C592.345 63.888 593.449 66.576 595.657 68.496C597.865 70.32 601.321 71.328 606.025 71.52V91.104Z" fill="#545454"/>
<path d="M93.2786 63.024C95.5826 59.28 98.8946 56.256 103.215 53.952C107.535 51.648 112.479 50.496 118.047 50.496C124.671 50.496 130.671 52.176 136.047 55.536C141.423 58.896 145.647 63.696 148.719 69.936C151.887 76.176 153.471 83.424 153.471 91.68C153.471 99.936 151.887 107.232 148.719 113.568C145.647 119.808 141.423 124.656 136.047 128.112C130.671 131.472 124.671 133.152 118.047 133.152C112.383 133.152 107.439 132.048 103.215 129.84C98.9906 127.536 95.6786 124.512 93.2786 120.768V132H68.6546V25.44H93.2786V63.024ZM128.415 91.68C128.415 85.536 126.687 80.736 123.231 77.28C119.871 73.728 115.695 71.952 110.703 71.952C105.807 71.952 101.631 73.728 98.1746 77.28C94.8146 80.832 93.1346 85.68 93.1346 91.824C93.1346 97.968 94.8146 102.816 98.1746 106.368C101.631 109.92 105.807 111.696 110.703 111.696C115.599 111.696 119.775 109.92 123.231 106.368C126.687 102.72 128.415 97.824 128.415 91.68ZM178.773 43.296C174.453 43.296 170.901 42.048 168.117 39.552C165.429 36.96 164.085 33.792 164.085 30.048C164.085 26.208 165.429 23.04 168.117 20.544C170.901 17.952 174.453 16.656 178.773 16.656C182.997 16.656 186.453 17.952 189.141 20.544C191.925 23.04 193.317 26.208 193.317 30.048C193.317 33.792 191.925 36.96 189.141 39.552C186.453 42.048 182.997 43.296 178.773 43.296ZM191.013 51.648V132H166.389V51.648H191.013ZM257.818 50.784C267.226 50.784 274.714 53.856 280.282 60C285.946 66.048 288.778 74.4 288.778 85.056V132H264.298V88.368C264.298 82.992 262.906 78.816 260.122 75.84C257.338 72.864 253.594 71.376 248.89 71.376C244.186 71.376 240.442 72.864 237.658 75.84C234.874 78.816 233.482 82.992 233.482 88.368V132H208.858V51.648H233.482V62.304C235.978 58.752 239.338 55.968 243.562 53.952C247.786 51.84 252.538 50.784 257.818 50.784ZM300.993 91.68C300.993 83.424 302.529 76.176 305.601 69.936C308.769 63.696 313.041 58.896 318.417 55.536C323.793 52.176 329.793 50.496 336.417 50.496C342.081 50.496 347.025 51.648 351.249 53.952C355.569 56.256 358.881 59.28 361.185 63.024V51.648H385.809V132H361.185V120.624C358.785 124.368 355.425 127.392 351.105 129.696C346.881 132 341.937 133.152 336.273 133.152C329.745 133.152 323.793 131.472 318.417 128.112C313.041 124.656 308.769 119.808 305.601 113.568C302.529 107.232 300.993 99.936 300.993 91.68ZM361.185 91.824C361.185 85.68 359.457 80.832 356.001 77.28C352.641 73.728 348.513 71.952 343.617 71.952C338.721 71.952 334.545 73.728 331.089 77.28C327.729 80.736 326.049 85.536 326.049 91.68C326.049 97.824 327.729 102.72 331.089 106.368C334.545 109.92 338.721 111.696 343.617 111.696C348.513 111.696 352.641 109.92 356.001 106.368C359.457 102.816 361.185 97.968 361.185 91.824ZM428.247 65.04C431.127 60.624 434.727 57.168 439.047 54.672C443.367 52.08 448.167 50.784 453.447 50.784V76.848H446.679C440.535 76.848 435.927 78.192 432.855 80.88C429.783 83.472 428.247 88.08 428.247 94.704V132H403.623V51.648H428.247V65.04ZM547.297 51.648L496.897 170.16H470.401L488.833 129.264L456.145 51.648H483.649L502.225 101.904L520.657 51.648H547.297Z" fill="#FF5454"/>
</svg>
